{
  "accessors": [
    {
      "bufferView": 1,
      "componentType": 5126,
      "count": 65532,
      "max": [
        1.0022730827331543,
        1.7767397165298462,
        0.9021199941635132
      ],
      "min": [
        -1.0026828050613403,
        -0.9990465044975281,
        -2.7278032302856445
      ],
      "type": "VEC3"
    },
    {
      "bufferView": 1,
      "byteOffset": 786384,
      "componentType": 5126,
      "count": 65532,
      "max": [
        0.9999997615814209,
        0.9999998807907104,
        0.999118983745575
      ],
      "min": [
        -0.9999998211860657,
        -0.9998878836631775,
        -0.9999998807907104
      ],
      "type": "VEC3"
    },
    {
      "bufferView": 0,
      "componentType": 5125,
      "count": 360942,
      "type": "SCALAR"
    },
    {
      "bufferView": 1,
      "byteOffset": 1572768,
      "componentType": 5126,
      "count": 65532,
      "max": [
        0.9355912208557129,
        1.7767397165298462,
        1.0374815464019775
      ],
      "min": [
        -1.0026828050613403,
        -0.9983844757080078,
        -2.704632520675659
      ],
      "type": "VEC3"
    },
    {
      "bufferView": 1,
      "byteOffset": 2359152,
      "componentType": 5126,
      "count": 65532,
      "max": [
        0.9999867677688599,
        0.9999998211860657,
        0.9996994733810425
      ],
      "min": [
        -0.9999999403953552,
        -0.9999974966049194,
        -0.999995768070221
      ],
      "type": "VEC3"
    },
    {
      "bufferView": 0,
      "byteOffset": 1443768,
      "componentType": 5125,
      "count": 356070,
      "type": "SCALAR"
    },
    {
      "bufferView": 1,
      "byteOffset": 3145536,
      "componentType": 5126,
      "count": 46497,
      "max": [
        1.001707673072815,
        1.776308298110962,
        1.038494348526001
      ],
      "min": [
        -1.0025173425674438,
        -0.9989042282104492,
        -2.7278056144714355
      ],
      "type": "VEC3"
    },
    {
      "bufferView": 1,
      "byteOffset": 3703500,
      "componentType": 5126,
      "count": 46497,
      "max": [
        0.9999993443489075,
        0.9999998807907104,
        0.9999947547912598
      ],
      "min": [
        -0.9999974966049194,
        -0.999988317489624,
        -0.9999999403953552
      ],
      "type": "VEC3"
    },
    {
      "bufferView": 0,
      "byteOffset": 2868048,
      "componentType": 5125,
      "count": 199044,
      "type": "SCALAR"
    }
  ],
  "asset": {
    "extras": {
      "author": "DanP38 (https://sketchfab.com/DanP38)",
      "license": "CC-BY-4.0 (http://creativecommons.org/licenses/by/4.0/)",
      "source": "https://sketchfab.com/3d-models/planar-head-by-oleg-toropygin-7d831ee5b5494ab595c443088e549c59",
      "title": "Planar head by Oleg Toropygin"
    },
    "generator": "Sketchfab-12.68.0",
    "version": "2.0"
  },
  "bufferViews": [
    {
      "buffer": 0,
      "byteLength": 3664224,
      "name": "floatBufferViews",
      "target": 34963
    },
    {
      "buffer": 0,
      "byteLength": 4261464,
      "byteOffset": 3664224,
      "byteStride": 12,
      "name": "floatBufferViews",
      "target": 34962
    }
  ],
  "buffers": [
    {
      "byteLength": 7925688,
      "uri": "scene.bin"
    }
  ],
  "materials": [
    {
      "doubleSided": true,
      "name": "material_0",
      "pbrMetallicRoughness": {
        "metallicFactor": 0.0,
        "roughnessFactor": 0.6
      }
    }
  ],
  "meshes": [
    {
      "name": "Object_0",
      "primitives": [
        {
          "attributes": {
            "NORMAL": 1,
            "POSITION": 0
          },
          "indices": 2,
          "material": 0,
          "mode": 4
        }
      ]
    },
    {
      "name": "Object_1",
      "primitives": [
        {
          "attributes": {
            "NORMAL": 4,
            "POSITION": 3
          },
          "indices": 5,
          "material": 0,
          "mode": 4
        }
      ]
    },
    {
      "name": "Object_2",
      "primitives": [
        {
          "attributes": {
            "NORMAL": 7,
            "POSITION": 6
          },
          "indices": 8,
          "material": 0,
          "mode": 4
        }
      ]
    }
  ],
  "nodes": [
    {
      "children": [
        1
      ],
      "matrix": [
        1.0,
        0.0,
        0.0,
        0.0,
        0.0,
        2.220446049250313e-16,
        -1.0,
        0.0,
        0.0,
        1.0,
        2.220446049250313e-16,
        0.0,
        0.0,
        0.0,
        0.0,
        1.0
      ],
      "name": "Sketchfab_model"
    },
    {
      "children": [
        2,
        3,
        4
      ],
      "name": "ph-stand-150k-fix-5.OBJ.cleaner.materialmerger.gles"
    },
    {
      "mesh": 0,
      "name": "Object_2"
    },
    {
      "mesh": 1,
      "name": "Object_3"
    },
    {
      "mesh": 2,
      "name": "Object_4"
    }
  ],
  "scene": 0,
  "scenes": [
    {
      "name": "Sketchfab_Scene",
      "nodes": [
        0
      ]
    }
  ]
}
