<svg id="svg" version="1.1" xmlns="http://www.w3.org/2000/svg" xmlns:xlink="http://www.w3.org/1999/xlink" viewBox="0, 0, 400,400"><g id="svgg"><path id="path0" d="M253.313 62.644 C 252.100 63.160,247.642 67.303,244.968 70.400 C 244.303 71.170,242.763 72.610,241.546 73.600 C 240.328 74.590,238.627 76.279,237.766 77.354 C 236.905 78.428,235.582 79.868,234.826 80.554 C 230.515 84.464,228.762 86.206,227.959 87.378 C 227.465 88.099,225.877 89.643,224.430 90.810 C 222.984 91.977,220.810 94.152,219.600 95.644 C 218.390 97.136,217.288 98.367,217.152 98.378 C 216.727 98.415,213.545 101.301,211.426 103.571 C 207.876 107.375,205.856 109.349,203.469 111.347 C 202.190 112.418,200.415 114.218,199.524 115.347 C 198.633 116.476,196.766 118.340,195.375 119.490 C 193.984 120.639,191.910 122.709,190.766 124.090 C 189.622 125.470,187.683 127.413,186.457 128.406 C 185.231 129.400,183.178 131.462,181.896 132.989 C 180.613 134.517,178.807 136.315,177.882 136.986 C 175.720 138.553,173.965 140.264,172.839 141.901 C 172.347 142.616,170.922 144.015,169.672 145.010 C 166.713 147.365,164.880 149.177,163.404 151.206 C 162.747 152.110,161.228 153.604,160.029 154.525 C 157.308 156.616,156.616 157.308,154.525 160.029 C 153.604 161.228,152.112 162.747,151.209 163.404 C 149.101 164.940,146.917 167.130,145.400 169.228 C 144.740 170.141,143.055 171.708,141.656 172.710 C 140.207 173.748,138.357 175.580,137.356 176.966 C 136.382 178.314,134.305 180.384,132.699 181.605 C 131.105 182.818,128.990 184.900,128.000 186.231 C 127.010 187.562,125.204 189.345,123.986 190.193 C 122.769 191.042,120.701 193.067,119.391 194.694 C 118.081 196.322,116.234 198.226,115.286 198.927 C 113.189 200.477,111.837 201.847,109.237 205.053 C 108.143 206.403,106.443 208.166,105.460 208.973 C 103.201 210.824,102.891 211.582,104.020 212.496 C 104.839 213.160,107.814 213.200,155.840 213.200 C 203.474 213.200,206.843 213.245,207.595 213.889 C 208.947 215.046,208.488 216.191,205.307 219.590 C 204.376 220.586,203.611 221.507,203.607 221.639 C 203.603 221.770,203.233 222.301,202.784 222.819 C 202.334 223.337,200.939 225.274,199.684 227.124 C 198.428 228.973,197.040 230.982,196.600 231.587 C 196.160 232.192,195.449 233.208,195.020 233.844 C 194.591 234.480,193.509 235.810,192.616 236.800 C 191.723 237.790,190.544 239.479,189.996 240.553 C 189.059 242.391,187.273 244.711,185.357 246.578 C 184.894 247.030,184.207 247.940,183.830 248.600 C 181.696 252.339,180.242 254.508,178.735 256.200 C 178.147 256.860,176.988 258.390,176.160 259.600 C 175.332 260.810,174.012 262.641,173.227 263.669 C 172.442 264.696,171.350 266.289,170.800 267.209 C 170.250 268.128,169.350 269.368,168.800 269.965 C 165.902 273.111,164.935 274.316,164.285 275.594 C 162.686 278.736,162.110 279.599,160.101 281.861 C 158.946 283.161,157.374 285.209,156.606 286.412 C 155.051 288.848,155.147 288.713,151.260 294.000 C 149.723 296.090,148.187 298.080,147.845 298.423 C 147.022 299.246,144.817 302.513,144.807 302.921 C 144.797 303.376,140.735 308.762,139.318 310.200 C 138.667 310.860,137.610 312.389,136.968 313.598 C 136.325 314.808,134.389 317.508,132.663 319.598 C 130.938 321.689,129.228 324.028,128.863 324.795 C 128.210 326.168,127.783 326.784,126.200 328.642 C 125.760 329.159,124.950 330.228,124.400 331.018 C 123.850 331.808,122.976 332.986,122.458 333.636 C 121.692 334.594,121.608 334.927,122.007 335.408 C 123.189 336.832,125.337 335.837,127.631 332.803 C 128.599 331.523,130.659 329.550,132.210 328.419 C 133.760 327.289,136.271 325.003,137.789 323.339 C 139.308 321.676,141.205 319.902,142.006 319.396 C 142.807 318.890,144.079 317.800,144.831 316.974 C 147.162 314.414,148.529 313.083,151.254 310.717 C 152.700 309.462,155.420 306.942,157.298 305.117 C 159.175 303.293,161.725 300.900,162.963 299.800 C 164.201 298.700,166.812 296.270,168.765 294.400 C 170.718 292.530,173.716 289.740,175.427 288.200 C 177.137 286.660,179.001 284.877,179.569 284.238 C 181.061 282.556,183.149 280.665,184.053 280.176 C 184.961 279.685,190.800 273.994,190.800 273.600 C 190.800 273.455,191.655 272.738,192.700 272.008 C 193.745 271.277,195.950 269.279,197.600 267.567 C 199.250 265.854,201.608 263.676,202.841 262.727 C 205.942 260.337,208.092 258.355,209.082 256.972 C 209.544 256.327,210.681 255.260,211.610 254.600 C 212.538 253.940,214.851 251.849,216.749 249.954 C 218.647 248.058,221.352 245.585,222.761 244.458 C 224.169 243.330,225.789 241.831,226.361 241.125 C 227.948 239.165,230.069 237.181,232.655 235.236 C 233.945 234.265,235.841 232.454,236.868 231.212 C 237.896 229.969,239.516 228.424,240.468 227.778 C 241.421 227.132,244.093 224.693,246.406 222.359 C 248.720 220.024,250.980 217.997,251.428 217.855 C 251.877 217.712,253.287 216.327,254.563 214.777 C 255.838 213.227,257.607 211.473,258.495 210.879 C 259.382 210.286,260.526 209.519,261.038 209.175 C 261.549 208.831,262.470 207.919,263.084 207.148 C 263.698 206.377,265.544 204.498,267.187 202.973 C 268.829 201.448,271.093 199.300,272.218 198.200 C 273.343 197.100,275.953 194.670,278.018 192.800 C 280.082 190.930,283.218 188.058,284.986 186.417 C 291.208 180.641,292.498 179.462,295.086 177.182 C 296.576 175.869,297.197 174.097,296.354 173.563 C 296.044 173.367,274.531 173.210,247.576 173.206 C 193.967 173.199,197.706 173.405,198.098 170.487 C 198.399 168.238,200.803 163.314,202.745 160.969 C 202.942 160.732,203.239 160.106,203.407 159.577 C 203.575 159.048,204.024 158.162,204.404 157.608 C 206.525 154.517,208.723 150.873,208.994 150.000 C 209.330 148.916,211.054 145.558,212.586 143.000 C 213.114 142.120,213.802 140.853,214.117 140.185 C 214.431 139.516,215.433 137.896,216.344 136.585 C 217.254 135.273,217.999 133.997,217.999 133.748 C 218.000 132.927,220.121 128.632,221.490 126.678 C 222.230 125.621,222.991 124.349,223.180 123.852 C 223.516 122.970,225.182 120.284,225.994 119.317 C 226.217 119.051,226.400 118.725,226.400 118.592 C 226.400 118.459,226.829 117.416,227.352 116.275 C 227.876 115.134,228.505 113.750,228.750 113.200 C 229.423 111.687,230.660 109.617,231.339 108.868 C 231.672 108.500,232.145 107.749,232.390 107.199 C 232.634 106.650,233.367 105.300,234.018 104.200 C 234.669 103.100,235.386 101.750,235.612 101.200 C 236.197 99.778,236.345 99.476,236.788 98.800 C 237.004 98.470,237.462 97.570,237.805 96.800 C 238.763 94.652,240.074 92.330,241.435 90.375 C 242.690 88.570,243.734 86.658,246.004 82.000 C 246.701 80.570,247.698 78.680,248.219 77.800 C 248.741 76.920,249.417 75.660,249.722 75.000 C 250.027 74.340,250.574 73.553,250.938 73.251 C 251.302 72.949,251.600 72.516,251.600 72.289 C 251.600 72.061,252.050 71.286,252.600 70.564 C 253.150 69.843,253.600 69.009,253.600 68.711 C 253.600 68.413,253.940 67.502,254.356 66.686 C 256.072 63.320,255.641 61.653,253.313 62.644 " stroke="none" fill="#fafbfb" fill-rule="evenodd"></path><path id="path1" d="M174.400 0.400 C 174.400 0.646,172.410 0.800,169.229 0.800 C 164.190 0.800,164.038 0.825,163.271 1.800 C 162.529 2.744,162.267 2.800,158.605 2.800 C 155.062 2.800,154.707 2.869,154.516 3.600 C 154.329 4.315,153.970 4.400,151.145 4.400 C 148.160 4.400,147.957 4.456,147.527 5.400 C 147.094 6.350,146.906 6.400,143.736 6.400 C 140.667 6.400,140.400 6.464,140.400 7.200 C 140.400 7.893,140.118 8.006,138.300 8.046 C 135.081 8.117,135.009 8.139,134.872 9.100 C 134.756 9.920,134.529 10.000,132.335 10.000 C 130.262 10.000,129.896 10.112,129.716 10.800 C 129.543 11.460,129.170 11.600,127.586 11.600 C 125.305 11.600,124.400 11.891,124.400 12.625 C 124.400 12.921,123.815 13.265,123.100 13.388 C 121.179 13.720,119.839 13.937,119.500 13.970 C 119.335 13.987,119.200 14.270,119.200 14.600 C 119.200 14.969,118.825 15.200,118.227 15.200 C 117.605 15.200,117.162 15.489,117.000 16.000 C 116.778 16.699,115.815 17.041,114.657 16.833 C 114.468 16.799,113.715 17.228,112.983 17.786 C 112.252 18.344,111.326 18.802,110.927 18.805 C 109.597 18.815,108.400 19.287,108.400 19.801 C 108.400 20.095,107.658 20.420,106.642 20.573 C 105.366 20.764,104.828 21.051,104.679 21.618 C 104.559 22.080,104.132 22.400,103.637 22.400 C 103.067 22.400,102.800 22.655,102.800 23.200 C 102.800 23.795,102.518 24.012,101.700 24.046 C 99.566 24.136,99.399 24.208,99.272 25.100 C 99.168 25.833,98.891 26.000,97.776 26.000 C 96.840 26.000,96.249 26.253,95.907 26.800 C 95.632 27.240,95.094 27.600,94.711 27.600 C 94.302 27.600,93.912 28.013,93.764 28.600 C 93.550 29.452,93.283 29.600,91.957 29.600 C 90.667 29.600,90.400 29.737,90.400 30.400 C 90.400 30.990,90.133 31.200,89.382 31.200 C 88.822 31.200,87.914 31.650,87.364 32.200 C 86.814 32.750,86.012 33.200,85.582 33.200 C 85.067 33.200,84.800 33.473,84.800 34.000 C 84.800 34.533,84.533 34.800,84.000 34.800 C 83.413 34.800,83.200 35.067,83.200 35.800 C 83.200 36.704,83.042 36.800,81.563 36.800 C 80.262 36.800,79.882 36.964,79.716 37.600 C 79.596 38.060,79.170 38.400,78.716 38.400 C 78.266 38.400,77.836 38.739,77.719 39.187 C 77.606 39.619,77.173 40.082,76.757 40.214 C 76.341 40.346,76.000 40.802,76.000 41.227 C 76.000 41.865,75.714 42.000,74.363 42.000 C 73.097 42.000,72.680 42.171,72.529 42.751 C 72.421 43.164,71.880 43.709,71.327 43.961 C 70.689 44.251,70.404 44.634,70.548 45.009 C 70.710 45.432,70.494 45.600,69.787 45.600 C 69.067 45.600,68.800 45.816,68.800 46.400 C 68.800 46.933,68.533 47.200,68.000 47.200 C 67.560 47.200,67.177 47.380,67.150 47.600 C 67.123 47.820,67.078 48.225,67.050 48.500 C 67.023 48.775,66.595 49.058,66.100 49.128 C 65.522 49.210,65.200 49.532,65.200 50.028 C 65.200 50.510,64.925 50.800,64.468 50.800 C 64.065 50.800,63.494 51.250,63.200 51.800 C 62.906 52.350,62.350 52.800,61.965 52.800 C 60.865 52.800,60.000 53.239,60.000 53.796 C 60.000 54.077,59.627 54.404,59.170 54.524 C 58.714 54.643,58.243 55.114,58.124 55.570 C 58.001 56.039,57.579 56.400,57.153 56.400 C 56.667 56.400,56.400 56.683,56.400 57.200 C 56.400 57.649,56.133 58.000,55.791 58.000 C 55.457 58.000,54.985 58.435,54.743 58.966 C 54.501 59.497,53.964 60.021,53.551 60.129 C 53.138 60.237,52.797 60.657,52.793 61.063 C 52.789 61.468,52.339 62.224,51.793 62.742 C 51.247 63.260,50.800 64.025,50.800 64.442 C 50.800 64.933,50.519 65.200,50.000 65.200 C 49.482 65.200,49.200 65.467,49.200 65.957 C 49.200 66.430,48.826 66.807,48.200 66.964 C 47.554 67.126,47.200 67.496,47.200 68.008 C 47.200 68.524,46.931 68.800,46.428 68.800 C 45.932 68.800,45.610 69.122,45.528 69.700 C 45.458 70.195,45.130 70.600,44.800 70.600 C 44.470 70.600,44.022 71.005,43.805 71.500 C 43.588 71.995,43.093 72.400,42.705 72.400 C 42.188 72.400,42.000 72.720,42.000 73.600 C 42.000 74.260,41.825 74.800,41.610 74.800 C 41.139 74.800,39.849 77.183,40.290 77.240 C 40.460 77.262,40.150 77.404,39.600 77.556 C 38.986 77.726,38.551 78.174,38.472 78.716 C 38.391 79.279,38.063 79.600,37.572 79.600 C 37.040 79.600,36.798 79.880,36.793 80.500 C 36.789 80.995,36.339 81.824,35.793 82.342 C 35.247 82.860,34.800 83.625,34.800 84.042 C 34.800 84.533,34.519 84.800,34.000 84.800 C 33.419 84.800,33.200 85.067,33.200 85.772 C 33.200 86.476,32.951 86.780,32.300 86.872 C 31.572 86.976,31.376 87.294,31.273 88.544 C 31.181 89.671,30.937 90.144,30.373 90.291 C 29.776 90.447,29.600 90.848,29.600 92.047 C 29.600 92.901,29.420 93.623,29.200 93.650 C 28.980 93.678,28.575 93.723,28.300 93.750 C 28.025 93.778,27.745 94.187,27.678 94.659 C 27.610 95.132,27.205 95.610,26.778 95.722 C 26.170 95.881,26.000 96.277,26.000 97.535 C 26.000 98.899,25.863 99.164,25.100 99.272 C 24.352 99.378,24.179 99.687,24.077 101.100 C 23.978 102.474,23.805 102.800,23.177 102.800 C 22.582 102.800,22.400 103.078,22.400 103.987 C 22.400 104.808,22.236 105.112,21.871 104.972 C 21.218 104.721,20.400 106.413,20.400 108.015 C 20.400 108.760,20.106 109.377,19.600 109.693 C 19.003 110.065,18.800 110.626,18.800 111.896 C 18.800 113.301,18.667 113.600,18.043 113.600 C 17.217 113.600,16.800 114.341,16.800 115.806 C 16.800 116.395,16.501 116.841,16.000 117.000 C 15.384 117.195,15.200 117.605,15.200 118.780 C 15.200 119.929,15.017 120.355,14.460 120.500 C 13.939 120.636,13.652 121.194,13.494 122.378 C 13.369 123.304,12.955 124.291,12.572 124.571 C 12.105 124.913,11.815 125.813,11.691 127.306 C 11.546 129.057,11.346 129.573,10.753 129.728 C 10.121 129.894,10.000 130.311,10.000 132.335 C 10.000 134.529,9.920 134.756,9.100 134.872 C 8.282 134.988,8.189 135.247,8.082 137.700 C 7.978 140.072,7.868 140.400,7.182 140.400 C 6.484 140.400,6.399 140.690,6.393 143.100 C 6.387 145.450,6.258 145.922,5.393 146.742 C 4.527 147.563,4.400 148.029,4.400 150.380 C 4.400 152.568,4.249 153.212,3.600 153.800 C 2.938 154.399,2.800 155.032,2.800 157.462 C 2.800 159.249,2.635 160.400,2.380 160.400 C 1.342 160.400,0.800 163.212,0.800 168.587 C 0.800 171.929,0.647 174.000,0.400 174.000 C 0.137 174.000,0.000 182.933,0.000 200.000 C 0.000 217.067,0.137 226.000,0.400 226.000 C 0.647 226.000,0.800 228.075,0.800 231.426 C 0.800 236.853,1.114 238.400,2.214 238.400 C 2.684 238.400,2.800 239.098,2.800 241.938 C 2.800 244.968,2.915 245.580,3.600 246.200 C 4.249 246.788,4.400 247.432,4.400 249.620 C 4.400 251.971,4.527 252.437,5.393 253.258 C 6.256 254.076,6.387 254.551,6.393 256.873 C 6.399 259.170,6.510 259.581,7.181 259.794 C 7.827 259.999,7.984 260.473,8.081 262.521 C 8.188 264.745,8.293 265.013,9.100 265.128 C 9.920 265.244,10.000 265.471,10.000 267.665 C 10.000 269.689,10.121 270.106,10.753 270.272 C 11.346 270.427,11.546 270.943,11.691 272.694 C 11.815 274.187,12.105 275.087,12.572 275.429 C 12.955 275.709,13.369 276.696,13.494 277.622 C 13.652 278.806,13.939 279.364,14.460 279.500 C 15.024 279.647,15.200 280.073,15.200 281.284 C 15.200 282.538,15.369 282.919,16.000 283.084 C 16.525 283.221,16.800 283.630,16.800 284.273 C 16.800 285.573,17.487 286.800,18.214 286.800 C 18.625 286.800,18.800 287.250,18.800 288.304 C 18.800 289.374,19.030 289.951,19.600 290.307 C 20.106 290.623,20.400 291.240,20.400 291.985 C 20.400 293.498,21.175 295.200,21.864 295.200 C 22.169 295.200,22.400 295.631,22.400 296.200 C 22.400 296.923,22.615 297.200,23.177 297.200 C 23.805 297.200,23.978 297.526,24.077 298.900 C 24.179 300.313,24.352 300.622,25.100 300.728 C 25.863 300.836,26.000 301.101,26.000 302.465 C 26.000 303.723,26.170 304.119,26.778 304.278 C 27.205 304.390,27.610 304.868,27.678 305.341 C 27.754 305.879,28.137 306.248,28.700 306.328 C 29.456 306.435,29.600 306.703,29.600 308.001 C 29.600 309.195,29.782 309.604,30.400 309.800 C 30.901 309.959,31.200 310.405,31.200 310.994 C 31.200 312.459,31.617 313.200,32.443 313.200 C 32.984 313.200,33.200 313.486,33.200 314.200 C 33.200 314.933,33.413 315.200,34.000 315.200 C 34.533 315.200,34.800 315.467,34.800 316.000 C 34.800 316.587,35.067 316.800,35.800 316.800 C 36.719 316.800,36.800 316.947,36.800 318.600 C 36.800 320.133,36.919 320.400,37.600 320.400 C 38.145 320.400,38.400 320.667,38.400 321.237 C 38.400 321.716,38.717 322.158,39.141 322.269 C 39.548 322.375,40.175 323.078,40.534 323.831 C 40.893 324.584,41.370 325.200,41.594 325.200 C 41.817 325.200,42.000 325.667,42.000 326.237 C 42.000 326.922,42.260 327.343,42.763 327.474 C 43.183 327.584,43.619 328.031,43.733 328.467 C 43.847 328.903,44.314 329.357,44.770 329.476 C 45.239 329.599,45.600 330.021,45.600 330.447 C 45.600 330.924,45.883 331.200,46.372 331.200 C 46.868 331.200,47.190 331.522,47.272 332.100 C 47.354 332.678,47.722 333.046,48.300 333.128 C 48.878 333.210,49.200 333.532,49.200 334.028 C 49.200 334.533,49.476 334.800,50.000 334.800 C 50.519 334.800,50.800 335.067,50.800 335.558 C 50.800 335.975,51.247 336.740,51.793 337.258 C 52.339 337.776,52.789 338.532,52.793 338.937 C 52.797 339.343,53.138 339.763,53.551 339.871 C 53.964 339.979,54.501 340.503,54.743 341.034 C 54.985 341.565,55.457 342.000,55.791 342.000 C 56.133 342.000,56.400 342.351,56.400 342.800 C 56.400 343.317,56.667 343.600,57.153 343.600 C 57.579 343.600,58.001 343.961,58.124 344.430 C 58.243 344.886,58.714 345.357,59.170 345.476 C 59.627 345.596,60.000 345.939,60.000 346.239 C 60.000 346.539,60.433 346.893,60.962 347.026 C 61.491 347.159,62.011 347.601,62.118 348.007 C 62.241 348.479,62.834 348.845,63.756 349.018 C 64.809 349.216,65.200 349.493,65.200 350.045 C 65.200 350.519,65.482 350.800,65.957 350.800 C 66.430 350.800,66.807 351.174,66.964 351.800 C 67.126 352.446,67.496 352.800,68.008 352.800 C 68.533 352.800,68.800 353.069,68.800 353.600 C 68.800 354.118,69.067 354.400,69.557 354.400 C 70.030 354.400,70.407 354.774,70.564 355.400 C 70.726 356.046,71.096 356.400,71.608 356.400 C 72.133 356.400,72.400 356.669,72.400 357.200 C 72.400 357.776,72.667 358.000,73.353 358.000 C 73.959 358.000,74.380 358.282,74.509 358.774 C 74.641 359.278,75.202 359.639,76.119 359.811 C 77.027 359.982,77.597 360.346,77.726 360.838 C 77.842 361.281,78.275 361.600,78.763 361.600 C 79.333 361.600,79.600 361.855,79.600 362.400 C 79.600 363.081,79.867 363.200,81.400 363.200 C 83.053 363.200,83.200 363.281,83.200 364.200 C 83.200 364.933,83.413 365.200,84.000 365.200 C 84.533 365.200,84.800 365.467,84.800 366.000 C 84.800 366.527,85.067 366.800,85.582 366.800 C 86.012 366.800,86.814 367.250,87.364 367.800 C 87.914 368.350,88.822 368.800,89.382 368.800 C 90.133 368.800,90.400 369.010,90.400 369.600 C 90.400 370.263,90.667 370.400,91.957 370.400 C 93.283 370.400,93.550 370.548,93.764 371.400 C 93.942 372.108,94.287 372.400,94.946 372.400 C 95.457 372.400,96.202 372.760,96.600 373.200 C 96.998 373.640,97.746 374.000,98.262 374.000 C 98.916 374.000,99.200 374.230,99.200 374.757 C 99.200 375.619,99.945 376.000,101.633 376.000 C 102.533 376.000,102.800 376.183,102.800 376.800 C 102.800 377.327,103.067 377.600,103.582 377.600 C 104.012 377.600,104.814 378.050,105.364 378.600 C 106.137 379.373,106.776 379.600,108.182 379.600 C 109.733 379.600,110.000 379.717,110.000 380.400 C 110.000 381.080,110.267 381.200,111.772 381.200 C 113.305 381.200,113.562 381.321,113.672 382.100 C 113.774 382.820,114.095 383.025,115.280 383.123 C 116.328 383.210,116.833 383.473,117.007 384.023 C 117.193 384.608,117.620 384.800,118.732 384.800 C 119.881 384.800,120.298 385.000,120.605 385.700 C 120.910 386.395,121.387 386.628,122.700 386.723 C 123.790 386.802,124.400 387.038,124.400 387.380 C 124.400 388.113,125.311 388.400,127.633 388.400 C 129.333 388.400,129.600 388.508,129.600 389.200 C 129.600 389.917,129.867 390.000,132.172 390.000 C 134.535 390.000,134.755 390.073,134.872 390.900 C 134.988 391.718,135.247 391.811,137.700 391.918 C 140.072 392.022,140.400 392.132,140.400 392.818 C 140.400 393.531,140.692 393.600,143.705 393.600 C 146.749 393.600,147.042 393.671,147.405 394.500 C 147.761 395.312,148.119 395.411,151.057 395.515 C 153.904 395.616,154.341 395.730,154.520 396.415 C 154.708 397.135,155.091 397.200,159.163 397.200 C 163.250 397.200,163.600 397.260,163.600 397.957 C 163.600 399.072,164.306 399.200,170.433 399.200 C 173.878 399.200,176.000 399.352,176.000 399.600 C 176.000 399.862,184.267 400.000,200.000 400.000 C 215.733 400.000,224.000 399.862,224.000 399.600 C 224.000 399.352,226.171 399.198,229.700 399.194 C 235.570 399.188,236.077 399.091,236.517 397.900 C 236.740 397.293,237.342 397.200,241.025 397.200 C 244.938 397.200,245.291 397.137,245.484 396.400 C 245.672 395.680,246.030 395.600,249.039 395.600 C 252.274 395.600,252.393 395.567,252.636 394.600 C 252.879 393.632,252.994 393.600,256.281 393.600 C 259.312 393.600,259.697 393.516,259.879 392.818 C 260.050 392.167,260.495 392.016,262.542 391.918 C 264.744 391.812,265.013 391.706,265.128 390.900 C 265.245 390.073,265.465 390.000,267.828 390.000 C 270.133 390.000,270.400 389.917,270.400 389.200 C 270.400 388.508,270.667 388.400,272.367 388.400 C 274.689 388.400,275.600 388.113,275.600 387.380 C 275.600 387.038,276.210 386.802,277.300 386.723 C 278.613 386.628,279.090 386.395,279.395 385.700 C 279.706 384.991,280.116 384.800,281.332 384.800 C 282.525 384.800,282.921 384.623,283.079 384.021 C 283.232 383.435,283.693 383.212,284.941 383.121 C 286.312 383.021,286.622 382.844,286.728 382.100 C 286.836 381.341,287.102 381.200,288.428 381.200 C 289.733 381.200,290.000 381.064,290.000 380.400 C 290.000 379.732,290.267 379.600,291.617 379.600 C 292.788 379.600,293.533 379.324,294.313 378.600 C 294.907 378.050,295.799 377.600,296.296 377.600 C 296.933 377.600,297.200 377.364,297.200 376.800 C 297.200 376.183,297.467 376.000,298.367 376.000 C 300.055 376.000,300.800 375.619,300.800 374.757 C 300.800 374.230,301.084 374.000,301.738 374.000 C 302.254 374.000,302.993 373.650,303.380 373.223 C 303.767 372.795,304.559 372.390,305.142 372.323 C 305.887 372.236,306.238 371.934,306.328 371.300 C 306.435 370.546,306.704 370.400,307.981 370.400 C 309.170 370.400,309.553 370.224,309.716 369.600 C 309.843 369.115,310.262 368.800,310.781 368.800 C 311.251 368.800,312.086 368.350,312.636 367.800 C 313.186 367.250,313.988 366.800,314.418 366.800 C 314.933 366.800,315.200 366.527,315.200 366.000 C 315.200 365.467,315.467 365.200,316.000 365.200 C 316.587 365.200,316.800 364.933,316.800 364.200 C 316.800 363.281,316.947 363.200,318.600 363.200 C 320.133 363.200,320.400 363.081,320.400 362.400 C 320.400 361.855,320.667 361.600,321.237 361.600 C 321.725 361.600,322.158 361.281,322.274 360.838 C 322.403 360.346,322.973 359.982,323.881 359.811 C 324.798 359.639,325.359 359.278,325.491 358.774 C 325.620 358.282,326.041 358.000,326.647 358.000 C 327.322 358.000,327.600 357.775,327.600 357.228 C 327.600 356.732,327.922 356.410,328.500 356.328 C 329.078 356.246,329.446 355.878,329.528 355.300 C 329.610 354.722,329.932 354.400,330.428 354.400 C 330.924 354.400,331.200 354.124,331.200 353.628 C 331.200 353.132,331.522 352.810,332.100 352.728 C 332.678 352.646,333.046 352.278,333.128 351.700 C 333.210 351.122,333.532 350.800,334.028 350.800 C 334.533 350.800,334.800 350.524,334.800 350.000 C 334.800 349.464,335.067 349.200,335.609 349.200 C 336.083 349.200,336.606 348.787,336.873 348.200 C 337.123 347.650,337.645 347.200,338.031 347.200 C 339.134 347.200,340.000 346.762,340.000 346.204 C 340.000 345.923,340.373 345.596,340.830 345.476 C 341.286 345.357,341.757 344.886,341.876 344.430 C 341.999 343.961,342.421 343.600,342.847 343.600 C 343.333 343.600,343.600 343.317,343.600 342.800 C 343.600 342.360,343.864 342.000,344.186 342.000 C 344.508 342.000,344.983 341.595,345.241 341.100 C 345.499 340.605,345.953 339.930,346.250 339.600 C 348.511 337.083,349.200 336.129,349.200 335.511 C 349.200 335.067,349.500 334.800,350.000 334.800 C 350.524 334.800,350.800 334.533,350.800 334.028 C 350.800 333.532,351.122 333.210,351.700 333.128 C 352.278 333.046,352.646 332.678,352.728 332.100 C 352.810 331.522,353.132 331.200,353.628 331.200 C 354.124 331.200,354.400 330.924,354.400 330.428 C 354.400 329.932,354.722 329.610,355.300 329.528 C 355.863 329.448,356.246 329.079,356.322 328.541 C 356.390 328.068,356.795 327.590,357.222 327.478 C 357.687 327.357,358.000 326.930,358.000 326.418 C 358.000 325.947,358.450 325.145,359.000 324.635 C 359.550 324.125,360.000 323.414,360.000 323.054 C 360.000 322.667,360.326 322.400,360.800 322.400 C 361.387 322.400,361.600 322.133,361.600 321.400 C 361.600 320.667,361.813 320.400,362.400 320.400 C 363.081 320.400,363.200 320.133,363.200 318.600 C 363.200 316.947,363.281 316.800,364.200 316.800 C 364.933 316.800,365.200 316.587,365.200 316.000 C 365.200 315.467,365.467 315.200,366.000 315.200 C 366.587 315.200,366.800 314.933,366.800 314.200 C 366.800 313.486,367.016 313.200,367.557 313.200 C 368.379 313.200,368.800 312.460,368.800 311.014 C 368.800 310.430,369.092 310.017,369.600 309.884 C 370.233 309.719,370.400 309.338,370.400 308.065 C 370.400 306.701,370.537 306.436,371.300 306.328 C 371.863 306.248,372.246 305.879,372.322 305.341 C 372.390 304.868,372.795 304.390,373.222 304.278 C 373.830 304.119,374.000 303.723,374.000 302.465 C 374.000 301.101,374.137 300.836,374.900 300.728 C 375.648 300.622,375.821 300.313,375.923 298.900 C 376.021 297.546,376.199 297.200,376.799 297.200 C 377.380 297.200,377.580 296.858,377.676 295.700 C 377.767 294.597,378.038 294.095,378.700 293.805 C 379.368 293.512,379.600 293.075,379.600 292.109 C 379.600 291.240,379.866 290.641,380.400 290.307 C 380.954 289.961,381.200 289.374,381.200 288.399 C 381.200 287.321,381.412 286.897,382.100 286.595 C 382.758 286.306,383.033 285.802,383.123 284.720 C 383.210 283.672,383.473 283.167,384.023 282.993 C 384.608 282.807,384.800 282.380,384.800 281.268 C 384.800 280.119,385.000 279.702,385.700 279.395 C 386.385 279.094,386.626 278.617,386.707 277.400 C 386.873 274.904,387.166 274.000,387.808 274.000 C 388.238 274.000,388.400 273.534,388.400 272.296 C 388.400 271.026,388.603 270.465,389.200 270.093 C 389.835 269.696,390.000 269.160,390.000 267.491 C 390.000 265.696,390.131 265.332,390.900 264.995 C 391.658 264.662,391.819 264.240,391.919 262.321 C 392.016 260.472,392.186 259.995,392.819 259.794 C 393.511 259.574,393.600 259.167,393.600 256.216 C 393.600 252.998,393.634 252.878,394.600 252.636 C 395.563 252.394,395.600 252.266,395.600 249.155 C 395.600 246.262,395.683 245.903,396.400 245.716 C 397.124 245.527,397.200 245.170,397.200 241.953 C 397.200 239.099,397.315 238.400,397.786 238.400 C 398.886 238.400,399.200 236.853,399.200 231.426 C 399.200 228.075,399.353 226.000,399.600 226.000 C 399.863 226.000,400.000 217.067,400.000 200.000 C 400.000 182.933,399.863 174.000,399.600 174.000 C 399.353 174.000,399.200 171.925,399.200 168.574 C 399.200 163.147,398.886 161.600,397.786 161.600 C 397.316 161.600,397.200 160.902,397.200 158.062 C 397.200 155.032,397.085 154.420,396.400 153.800 C 395.751 153.212,395.600 152.568,395.600 150.380 C 395.600 148.029,395.473 147.563,394.607 146.742 C 393.742 145.922,393.613 145.450,393.607 143.100 C 393.601 140.690,393.516 140.400,392.818 140.400 C 392.132 140.400,392.022 140.072,391.918 137.700 C 391.811 135.247,391.718 134.988,390.900 134.872 C 390.080 134.756,390.000 134.529,390.000 132.335 C 390.000 130.311,389.879 129.894,389.247 129.728 C 388.654 129.573,388.454 129.057,388.309 127.306 C 388.193 125.910,387.888 124.907,387.491 124.617 C 387.142 124.362,386.800 123.444,386.729 122.577 C 386.632 121.396,386.374 120.901,385.700 120.605 C 385.000 120.298,384.800 119.881,384.800 118.732 C 384.800 117.620,384.608 117.193,384.023 117.007 C 383.473 116.833,383.210 116.328,383.123 115.280 C 383.025 114.095,382.820 113.774,382.100 113.672 C 381.330 113.563,381.200 113.302,381.200 111.868 C 381.200 110.626,380.993 110.063,380.400 109.693 C 379.894 109.377,379.600 108.760,379.600 108.015 C 379.600 106.413,378.782 104.721,378.129 104.972 C 377.764 105.112,377.600 104.808,377.600 103.987 C 377.600 103.078,377.418 102.800,376.823 102.800 C 376.195 102.800,376.022 102.474,375.923 101.100 C 375.821 99.687,375.648 99.378,374.900 99.272 C 374.137 99.164,374.000 98.899,374.000 97.535 C 374.000 96.277,373.830 95.881,373.222 95.722 C 372.795 95.610,372.390 95.132,372.322 94.659 C 372.255 94.187,371.975 93.778,371.700 93.750 C 371.425 93.723,371.020 93.678,370.800 93.650 C 370.580 93.623,370.400 92.880,370.400 92.000 C 370.400 90.682,370.263 90.400,369.623 90.400 C 368.995 90.400,368.822 90.074,368.723 88.700 C 368.621 87.287,368.448 86.978,367.700 86.872 C 367.049 86.780,366.800 86.476,366.800 85.772 C 366.800 85.067,366.581 84.800,366.000 84.800 C 365.467 84.800,365.200 84.533,365.200 84.000 C 365.200 83.413,364.933 83.200,364.200 83.200 C 363.281 83.200,363.200 83.053,363.200 81.400 C 363.200 79.867,363.081 79.600,362.400 79.600 C 361.855 79.600,361.600 79.333,361.600 78.763 C 361.600 78.262,361.279 77.841,360.800 77.716 C 360.360 77.601,360.000 77.233,360.000 76.899 C 360.000 76.565,359.550 75.875,359.000 75.365 C 358.438 74.844,358.000 73.992,358.000 73.419 C 358.000 72.667,357.791 72.400,357.200 72.400 C 356.667 72.400,356.400 72.133,356.400 71.600 C 356.400 71.160,356.220 70.778,356.000 70.750 C 355.780 70.723,355.375 70.677,355.100 70.650 C 354.825 70.623,354.542 70.195,354.472 69.700 C 354.390 69.122,354.068 68.800,353.572 68.800 C 353.069 68.800,352.800 68.524,352.800 68.008 C 352.800 67.496,352.446 67.126,351.800 66.964 C 351.174 66.807,350.800 66.430,350.800 65.957 C 350.800 65.467,350.518 65.200,350.000 65.200 C 349.481 65.200,349.200 64.933,349.200 64.442 C 349.200 64.025,348.753 63.260,348.207 62.742 C 347.661 62.224,347.211 61.468,347.207 61.063 C 347.203 60.657,346.862 60.237,346.449 60.129 C 346.036 60.021,345.499 59.497,345.257 58.966 C 345.015 58.435,344.543 58.000,344.209 58.000 C 343.867 58.000,343.600 57.649,343.600 57.200 C 343.600 56.683,343.333 56.400,342.847 56.400 C 342.421 56.400,341.999 56.039,341.876 55.570 C 341.757 55.114,341.286 54.643,340.830 54.524 C 340.373 54.404,340.000 54.077,340.000 53.796 C 340.000 53.238,339.134 52.800,338.031 52.800 C 337.645 52.800,337.123 52.350,336.873 51.800 C 336.606 51.213,336.083 50.800,335.609 50.800 C 335.067 50.800,334.800 50.536,334.800 50.000 C 334.800 49.476,334.533 49.200,334.028 49.200 C 333.532 49.200,333.210 48.878,333.128 48.300 C 333.046 47.722,332.678 47.354,332.100 47.272 C 331.522 47.190,331.200 46.868,331.200 46.372 C 331.200 45.867,330.924 45.600,330.400 45.600 C 329.960 45.600,329.600 45.336,329.600 45.014 C 329.600 44.692,329.195 44.213,328.700 43.951 C 328.205 43.688,327.565 43.142,327.277 42.737 C 326.943 42.265,326.259 42.000,325.377 42.000 C 324.283 42.000,324.000 41.841,324.000 41.227 C 324.000 40.802,323.659 40.346,323.243 40.214 C 322.827 40.082,322.394 39.619,322.281 39.187 C 322.167 38.754,321.741 38.400,321.334 38.400 C 320.926 38.400,320.368 38.040,320.093 37.600 C 319.748 37.048,319.160 36.800,318.197 36.800 C 316.974 36.800,316.800 36.676,316.800 35.800 C 316.800 35.067,316.587 34.800,316.000 34.800 C 315.467 34.800,315.200 34.533,315.200 34.000 C 315.200 33.409,314.933 33.200,314.181 33.200 C 313.608 33.200,312.756 32.762,312.235 32.200 C 311.725 31.650,310.997 31.200,310.617 31.200 C 310.236 31.200,309.831 30.840,309.716 30.400 C 309.553 29.776,309.170 29.600,307.981 29.600 C 306.706 29.600,306.435 29.453,306.328 28.704 C 306.254 28.189,305.862 27.744,305.404 27.656 C 304.967 27.573,304.371 27.166,304.082 26.752 C 303.743 26.269,303.073 26.000,302.205 26.000 C 301.110 26.000,300.832 25.830,300.728 25.100 C 300.601 24.208,300.434 24.136,298.300 24.046 C 297.482 24.012,297.200 23.795,297.200 23.200 C 297.200 22.655,296.933 22.400,296.363 22.400 C 295.872 22.400,295.442 22.081,295.323 21.629 C 295.183 21.090,294.622 20.773,293.468 20.578 C 292.558 20.424,291.616 20.028,291.374 19.697 C 291.127 19.359,290.061 19.012,288.943 18.904 C 287.399 18.756,286.868 18.521,286.576 17.856 C 286.213 17.031,286.013 16.947,284.147 16.846 C 283.654 16.820,283.205 16.462,283.084 16.000 C 282.947 15.476,282.538 15.200,281.899 15.200 C 281.363 15.200,280.598 14.840,280.200 14.400 C 279.802 13.960,279.009 13.598,278.438 13.595 C 276.821 13.586,275.600 13.156,275.600 12.596 C 275.600 11.891,274.670 11.600,272.414 11.600 C 270.830 11.600,270.457 11.460,270.284 10.800 C 270.104 10.112,269.738 10.000,267.665 10.000 C 265.471 10.000,265.244 9.920,265.128 9.100 C 265.013 8.290,264.747 8.188,262.457 8.080 C 260.330 7.979,259.881 7.832,259.711 7.180 C 259.530 6.487,259.142 6.400,256.248 6.400 C 253.253 6.400,252.958 6.327,252.595 5.500 C 252.238 4.687,251.882 4.589,248.900 4.484 C 246.450 4.398,245.600 4.228,245.600 3.827 C 245.600 3.007,244.658 2.800,240.925 2.800 C 237.764 2.800,237.458 2.727,236.729 1.800 C 235.965 0.829,235.797 0.800,230.971 0.800 C 227.924 0.800,226.000 0.645,226.000 0.400 C 226.000 0.137,217.133 0.000,200.200 0.000 C 183.267 0.000,174.400 0.137,174.400 0.400 M255.348 64.266 C 255.219 64.781,254.772 65.870,254.356 66.686 C 253.940 67.502,253.600 68.413,253.600 68.711 C 253.600 69.009,253.150 69.843,252.600 70.564 C 252.050 71.286,251.600 72.061,251.600 72.289 C 251.600 72.516,251.302 72.949,250.938 73.251 C 250.574 73.553,250.027 74.340,249.722 75.000 C 249.417 75.660,248.741 76.920,248.219 77.800 C 247.698 78.680,246.701 80.570,246.004 82.000 C 243.734 86.658,242.690 88.570,241.435 90.375 C 240.074 92.330,238.763 94.652,237.805 96.800 C 237.462 97.570,237.004 98.470,236.788 98.800 C 236.345 99.476,236.197 99.778,235.612 101.200 C 235.386 101.750,234.669 103.100,234.018 104.200 C 233.367 105.300,232.634 106.650,232.390 107.199 C 232.145 107.749,231.672 108.500,231.339 108.868 C 230.660 109.617,229.423 111.687,228.750 113.200 C 228.505 113.750,227.876 115.134,227.352 116.275 C 226.829 117.416,226.400 118.459,226.400 118.592 C 226.400 118.725,226.217 119.051,225.994 119.317 C 225.182 120.284,223.516 122.970,223.180 123.852 C 222.991 124.349,222.230 125.621,221.490 126.678 C 220.121 128.632,218.000 132.927,217.999 133.748 C 217.999 133.997,217.254 135.273,216.344 136.585 C 215.433 137.896,214.431 139.516,214.117 140.185 C 213.802 140.853,213.114 142.120,212.586 143.000 C 211.054 145.558,209.330 148.916,208.994 150.000 C 208.723 150.873,206.525 154.517,204.404 157.608 C 204.024 158.162,203.575 159.048,203.407 159.577 C 203.239 160.106,202.942 160.732,202.745 160.969 C 200.803 163.314,198.399 168.238,198.098 170.487 C 197.706 173.405,193.967 173.199,247.576 173.206 C 274.531 173.210,296.044 173.367,296.354 173.563 C 297.197 174.097,296.576 175.869,295.086 177.182 C 292.498 179.462,291.208 180.641,284.986 186.417 C 283.218 188.058,280.082 190.930,278.018 192.800 C 275.953 194.670,273.343 197.100,272.218 198.200 C 271.093 199.300,268.829 201.448,267.187 202.973 C 265.544 204.498,263.698 206.377,263.084 207.148 C 262.470 207.919,261.549 208.831,261.038 209.175 C 260.526 209.519,259.382 210.286,258.495 210.879 C 257.607 211.473,255.838 213.227,254.563 214.777 C 253.287 216.327,251.877 217.712,251.428 217.855 C 250.980 217.997,248.720 220.024,246.406 222.359 C 244.093 224.693,241.421 227.132,240.468 227.778 C 239.516 228.424,237.896 229.969,236.868 231.212 C 235.841 232.454,233.945 234.265,232.655 235.236 C 230.069 237.181,227.948 239.165,226.361 241.125 C 225.789 241.831,224.169 243.330,222.761 244.458 C 221.352 245.585,218.647 248.058,216.749 249.954 C 214.851 251.849,212.538 253.940,211.610 254.600 C 210.681 255.260,209.544 256.327,209.082 256.972 C 208.092 258.355,205.942 260.337,202.841 262.727 C 201.608 263.676,199.250 265.854,197.600 267.567 C 195.950 269.279,193.745 271.277,192.700 272.008 C 191.655 272.738,190.800 273.455,190.800 273.600 C 190.800 273.994,184.961 279.685,184.053 280.176 C 183.149 280.665,181.061 282.556,179.569 284.238 C 179.001 284.877,177.137 286.660,175.427 288.200 C 173.716 289.740,170.718 292.530,168.765 294.400 C 166.812 296.270,164.201 298.700,162.963 299.800 C 161.725 300.900,159.175 303.293,157.298 305.117 C 155.420 306.942,152.700 309.462,151.254 310.717 C 148.529 313.083,147.162 314.414,144.831 316.974 C 144.079 317.800,142.807 318.890,142.006 319.396 C 141.205 319.902,139.308 321.676,137.789 323.339 C 136.271 325.003,133.760 327.289,132.210 328.419 C 130.659 329.550,128.599 331.523,127.631 332.803 C 125.337 335.837,123.189 336.832,122.007 335.408 C 121.608 334.927,121.692 334.594,122.458 333.636 C 122.976 332.986,123.850 331.808,124.400 331.018 C 124.950 330.228,125.760 329.159,126.200 328.642 C 127.783 326.784,128.210 326.168,128.863 324.795 C 129.228 324.028,130.938 321.689,132.663 319.598 C 134.389 317.508,136.325 314.808,136.968 313.598 C 137.610 312.389,138.667 310.860,139.318 310.200 C 140.735 308.762,144.797 303.376,144.807 302.921 C 144.817 302.513,147.022 299.246,147.845 298.423 C 148.187 298.080,149.723 296.090,151.260 294.000 C 155.147 288.713,155.051 288.848,156.606 286.412 C 157.374 285.209,158.946 283.161,160.101 281.861 C 162.110 279.599,162.686 278.736,164.285 275.594 C 164.935 274.316,165.902 273.111,168.800 269.965 C 169.350 269.368,170.250 268.128,170.800 267.209 C 171.350 266.289,172.442 264.696,173.227 263.669 C 174.012 262.641,175.332 260.810,176.160 259.600 C 176.988 258.390,178.147 256.860,178.735 256.200 C 180.242 254.508,181.696 252.339,183.830 248.600 C 184.207 247.940,184.894 247.030,185.357 246.578 C 187.273 244.711,189.059 242.391,189.996 240.553 C 190.544 239.479,191.723 237.790,192.616 236.800 C 193.509 235.810,194.591 234.480,195.020 233.844 C 195.449 233.208,196.160 232.192,196.600 231.587 C 197.040 230.982,198.428 228.973,199.684 227.124 C 200.939 225.274,202.334 223.337,202.784 222.819 C 203.233 222.301,203.603 221.770,203.607 221.639 C 203.611 221.507,204.376 220.586,205.307 219.590 C 208.488 216.191,208.947 215.046,207.595 213.889 C 206.843 213.245,203.474 213.200,155.840 213.200 C 107.814 213.200,104.839 213.160,104.020 212.496 C 102.891 211.582,103.201 210.824,105.460 208.973 C 106.443 208.166,108.143 206.403,109.237 205.053 C 111.837 201.847,113.189 200.477,115.286 198.927 C 116.234 198.226,118.081 196.322,119.391 194.694 C 120.701 193.067,122.769 191.042,123.986 190.193 C 125.204 189.345,127.010 187.562,128.000 186.231 C 128.990 184.900,131.105 182.818,132.699 181.605 C 134.305 180.384,136.382 178.314,137.356 176.966 C 138.357 175.580,140.207 173.748,141.656 172.710 C 143.055 171.708,144.740 170.141,145.400 169.228 C 146.917 167.130,149.101 164.940,151.209 163.404 C 152.112 162.747,153.604 161.228,154.525 160.029 C 156.616 157.308,157.308 156.616,160.029 154.525 C 161.228 153.604,162.747 152.110,163.404 151.206 C 164.880 149.177,166.713 147.365,169.672 145.010 C 170.922 144.015,172.347 142.616,172.839 141.901 C 173.965 140.264,175.720 138.553,177.882 136.986 C 178.807 136.315,180.613 134.517,181.896 132.989 C 183.178 131.462,185.231 129.400,186.457 128.406 C 187.683 127.413,189.622 125.470,190.766 124.090 C 191.910 122.709,193.984 120.639,195.375 119.490 C 196.766 118.340,198.633 116.476,199.524 115.347 C 200.415 114.218,202.190 112.418,203.469 111.347 C 205.856 109.349,207.876 107.375,211.426 103.571 C 213.545 101.301,216.727 98.415,217.152 98.378 C 217.288 98.367,218.390 97.136,219.600 95.644 C 220.810 94.152,222.984 91.977,224.430 90.810 C 225.877 89.643,227.465 88.099,227.959 87.378 C 228.762 86.206,230.515 84.464,234.826 80.554 C 235.582 79.868,236.905 78.428,237.766 77.354 C 238.627 76.279,240.328 74.590,241.546 73.600 C 242.763 72.610,244.303 71.170,244.968 70.400 C 251.232 63.147,256.394 60.095,255.348 64.266 " stroke="none" fill="#6dccce" fill-rule="evenodd"></path></g></svg>