<svg id="svg" version="1.1" xmlns="http://www.w3.org/2000/svg" xmlns:xlink="http://www.w3.org/1999/xlink"  viewBox="0, 0, 400,400"><g id="svgg"><path id="path0" d="M292.600 150.363 C 290.355 150.532,288.488 150.907,287.641 151.358 C 286.787 151.813,284.779 152.212,282.241 152.432 C 275.943 152.978,274.897 153.211,273.404 154.397 C 272.640 155.004,271.201 155.706,270.207 155.957 C 269.134 156.227,268.196 156.755,267.900 157.257 C 267.625 157.722,266.493 158.510,265.383 159.009 C 263.984 159.639,263.005 160.449,262.183 161.658 C 261.533 162.616,260.595 163.728,260.100 164.129 C 259.605 164.530,259.200 165.074,259.200 165.338 C 259.200 165.602,258.670 166.461,258.021 167.248 C 257.373 168.034,256.547 169.470,256.185 170.439 C 255.823 171.408,255.049 173.190,254.464 174.400 C 253.447 176.503,253.398 176.900,253.357 183.400 L 253.315 190.200 254.400 191.600 C 254.997 192.370,255.782 193.900,256.144 195.000 C 256.559 196.259,257.617 197.913,259.001 199.464 C 260.211 200.819,261.201 202.079,261.202 202.264 C 261.207 203.156,263.222 204.853,265.166 205.604 C 266.358 206.064,267.855 206.880,268.493 207.417 C 269.131 207.954,270.618 208.674,271.798 209.017 C 272.978 209.360,274.371 209.976,274.893 210.387 C 275.415 210.798,276.553 211.262,277.421 211.419 C 278.290 211.576,280.126 212.225,281.502 212.861 C 284.114 214.068,287.271 214.956,290.503 215.393 C 291.809 215.569,292.808 216.018,293.692 216.825 C 294.827 217.862,295.271 218.000,297.475 218.000 C 299.649 218.000,300.142 218.148,301.286 219.143 C 302.009 219.771,303.283 220.508,304.118 220.780 C 305.576 221.254,306.727 222.547,308.366 225.548 C 309.136 226.959,309.006 230.019,308.088 232.091 C 305.384 238.190,290.429 239.096,279.400 233.830 C 278.300 233.304,276.544 232.678,275.498 232.438 C 274.452 232.198,272.850 231.461,271.938 230.801 C 271.026 230.140,269.969 229.600,269.589 229.600 C 268.473 229.600,266.117 228.481,265.868 227.833 C 265.742 227.505,264.927 226.873,264.057 226.429 C 263.187 225.985,262.131 225.185,261.711 224.650 C 261.081 223.849,258.721 222.811,257.508 222.802 C 257.348 222.801,256.851 223.516,256.405 224.390 C 255.959 225.265,255.069 226.369,254.427 226.843 C 253.511 227.520,253.202 228.135,252.986 229.700 C 252.788 231.140,252.351 232.100,251.416 233.148 C 250.647 234.008,250.023 235.217,249.882 236.115 C 249.752 236.949,249.185 238.178,248.623 238.846 C 247.160 240.585,247.195 242.921,248.700 243.891 C 249.305 244.281,250.223 245.097,250.739 245.704 C 251.297 246.361,252.397 246.989,253.452 247.255 C 254.540 247.529,255.401 248.030,255.678 248.551 C 256.300 249.718,257.165 250.299,258.722 250.594 C 259.450 250.732,260.376 251.176,260.780 251.580 C 261.184 251.984,262.726 252.592,264.206 252.929 C 265.895 253.314,267.288 253.912,267.948 254.534 C 268.702 255.244,269.962 255.718,272.400 256.208 C 274.270 256.584,276.272 257.226,276.848 257.636 C 280.193 260.012,309.923 259.909,313.485 257.509 C 314.318 256.947,315.990 256.176,317.200 255.795 C 318.410 255.414,319.850 254.691,320.400 254.188 C 320.950 253.685,322.210 253.047,323.200 252.771 C 324.190 252.494,325.549 251.757,326.219 251.134 C 326.890 250.510,327.610 249.995,327.819 249.990 C 328.338 249.976,331.801 246.367,332.112 245.516 C 332.250 245.140,332.997 244.420,333.773 243.916 C 335.309 242.919,336.400 240.508,336.400 238.113 C 336.400 237.373,336.774 236.262,337.231 235.643 C 338.333 234.154,338.738 230.621,338.522 224.400 C 338.324 218.718,336.671 214.267,333.781 211.638 C 333.022 210.946,332.400 210.135,332.400 209.834 C 332.400 208.696,328.571 204.745,326.161 203.395 C 324.820 202.644,323.493 201.753,323.213 201.416 C 322.933 201.079,321.792 200.532,320.677 200.201 C 319.562 199.869,318.246 199.219,317.752 198.755 C 317.217 198.252,315.508 197.597,313.530 197.137 C 311.703 196.711,309.486 195.941,308.604 195.426 C 307.722 194.911,305.806 194.304,304.347 194.078 C 302.887 193.852,300.721 193.208,299.533 192.646 C 298.346 192.084,296.142 191.366,294.637 191.050 C 293.132 190.735,291.424 190.125,290.842 189.695 C 290.261 189.264,289.355 188.776,288.831 188.610 C 288.306 188.443,287.206 187.653,286.386 186.854 C 285.565 186.054,284.417 185.072,283.834 184.672 C 282.945 184.061,282.813 183.738,283.012 182.672 C 283.143 181.972,283.082 180.653,282.877 179.740 C 282.433 177.769,282.506 177.629,284.700 176.255 C 285.635 175.669,286.400 175.021,286.400 174.814 C 286.400 172.797,304.079 173.325,306.407 175.411 C 306.740 175.710,308.215 176.147,309.685 176.382 C 312.910 176.897,313.455 177.086,315.000 178.228 C 315.662 178.718,317.138 179.240,318.293 179.394 C 319.851 179.602,320.568 179.921,321.093 180.643 C 322.622 182.740,328.430 182.914,329.289 180.889 C 329.543 180.290,330.160 179.347,330.660 178.794 C 331.160 178.241,331.851 176.989,332.196 176.011 C 332.541 175.034,333.381 173.364,334.064 172.301 C 334.767 171.204,335.546 169.213,335.863 167.703 C 336.170 166.238,336.687 164.746,337.011 164.388 C 338.216 163.056,335.511 160.017,332.246 159.034 C 331.178 158.712,329.897 158.067,329.399 157.599 C 328.901 157.131,327.438 156.485,326.147 156.162 C 322.981 155.371,320.400 154.405,320.400 154.010 C 320.400 153.517,318.724 153.197,313.923 152.776 C 311.514 152.564,309.062 152.146,308.472 151.847 C 306.102 150.642,298.429 149.925,292.600 150.363 M182.273 151.510 C 181.468 151.849,180.106 151.944,178.230 151.792 C 170.904 151.202,169.902 153.175,170.585 166.842 C 170.964 174.423,169.039 173.655,188.168 173.860 C 197.503 173.961,204.221 174.194,204.844 174.440 C 206.701 175.171,206.846 176.599,206.819 193.961 C 206.799 207.084,206.900 210.182,207.390 211.572 C 207.917 213.064,207.917 213.425,207.393 214.679 C 206.680 216.385,206.625 219.260,207.271 221.047 C 208.774 225.203,204.118 235.200,200.678 235.200 C 199.935 235.200,198.449 235.464,197.376 235.787 C 194.898 236.533,187.577 235.219,186.416 233.819 C 186.153 233.503,185.061 232.952,183.988 232.596 C 182.736 232.180,181.945 231.658,181.780 231.138 C 181.639 230.692,180.685 229.934,179.662 229.453 C 178.638 228.972,177.220 227.989,176.511 227.269 C 174.633 225.362,170.800 226.285,170.800 228.643 C 170.800 228.949,170.170 229.866,169.401 230.682 C 168.631 231.498,167.885 232.533,167.743 232.983 C 167.602 233.432,166.915 234.520,166.219 235.400 C 163.650 238.644,161.526 242.338,161.776 243.126 C 162.136 244.259,167.495 249.513,169.038 250.245 C 169.771 250.593,170.476 251.208,170.604 251.613 C 170.744 252.053,171.647 252.617,172.855 253.018 C 173.965 253.387,175.453 254.197,176.161 254.820 C 176.870 255.442,178.338 256.167,179.425 256.432 C 180.511 256.696,181.677 257.151,182.015 257.441 C 183.208 258.467,185.600 259.200,187.752 259.200 C 188.949 259.200,192.041 259.490,194.623 259.845 C 198.929 260.437,199.650 260.438,203.358 259.852 C 205.581 259.501,208.247 259.111,209.281 258.985 C 210.316 258.859,211.936 258.346,212.881 257.845 C 213.827 257.344,215.071 256.816,215.647 256.672 C 216.223 256.529,217.216 255.877,217.854 255.225 C 218.492 254.572,220.001 253.591,221.207 253.045 C 223.532 251.993,226.400 249.529,226.400 248.584 C 226.400 248.273,226.895 247.712,227.500 247.337 C 229.068 246.366,229.600 245.606,229.600 244.337 C 229.600 243.610,230.064 242.762,230.944 241.882 C 231.938 240.889,232.364 240.036,232.577 238.612 C 232.736 237.552,233.199 235.946,233.605 235.043 C 235.573 230.670,235.585 230.364,235.431 191.164 C 235.276 151.852,235.316 152.592,233.315 151.822 C 231.216 151.013,184.139 150.726,182.273 151.510 M103.382 151.557 C 69.864 151.821,71.219 151.723,70.005 153.990 C 69.713 154.537,69.616 170.563,69.691 205.979 L 69.800 257.178 70.712 258.089 L 71.623 259.000 112.801 259.000 L 153.978 259.000 154.811 258.167 C 155.478 257.500,155.636 256.864,155.606 254.967 C 155.559 251.916,155.567 251.671,155.850 247.415 C 156.524 237.297,157.045 237.474,126.800 237.554 C 117.670 237.578,109.581 237.458,108.823 237.287 C 108.066 237.117,106.086 237.110,104.423 237.273 C 97.832 237.920,97.083 236.692,97.277 225.560 C 97.447 215.845,96.680 216.263,114.200 216.326 C 123.121 216.358,137.350 215.950,142.600 215.512 C 143.040 215.475,143.964 215.580,144.654 215.744 C 147.282 216.371,148.389 210.529,147.720 199.551 C 147.366 193.747,149.359 194.221,125.000 194.142 C 103.009 194.070,98.725 193.874,97.921 192.904 C 97.230 192.071,97.289 174.951,97.985 174.255 C 98.313 173.927,105.818 173.763,124.920 173.669 C 147.168 173.559,151.544 173.445,152.300 172.960 C 153.189 172.389,153.200 172.273,153.199 163.491 C 153.199 152.549,152.998 151.857,149.800 151.767 C 148.700 151.736,144.740 151.621,141.000 151.512 C 137.260 151.403,120.332 151.423,103.382 151.557 " stroke="none" fill="#f9fae9" fill-rule="evenodd"></path><path id="path1" d="M0.000 200.000 L 0.000 400.000 200.000 400.000 L 400.000 400.000 400.000 200.000 L 400.000 0.000 200.000 0.000 L 0.000 0.000 0.000 200.000 M304.800 150.876 C 306.230 151.110,307.882 151.547,308.472 151.847 C 309.062 152.146,311.514 152.564,313.923 152.776 C 318.724 153.197,320.400 153.517,320.400 154.010 C 320.400 154.405,322.981 155.371,326.147 156.162 C 327.438 156.485,328.901 157.131,329.399 157.599 C 329.897 158.067,331.178 158.712,332.246 159.034 C 335.511 160.017,338.216 163.056,337.011 164.388 C 336.687 164.746,336.170 166.238,335.863 167.703 C 335.546 169.213,334.767 171.204,334.064 172.301 C 333.381 173.364,332.541 175.034,332.196 176.011 C 331.851 176.989,331.160 178.241,330.660 178.794 C 330.160 179.347,329.543 180.290,329.289 180.889 C 328.430 182.914,322.622 182.740,321.093 180.643 C 320.568 179.921,319.851 179.602,318.293 179.394 C 317.138 179.240,315.662 178.718,315.000 178.228 C 313.455 177.086,312.910 176.897,309.685 176.382 C 308.215 176.147,306.740 175.710,306.407 175.411 C 304.079 173.325,286.400 172.797,286.400 174.814 C 286.400 175.021,285.635 175.669,284.700 176.255 C 282.506 177.629,282.433 177.769,282.877 179.740 C 283.082 180.653,283.143 181.972,283.012 182.672 C 282.813 183.738,282.945 184.061,283.834 184.672 C 284.417 185.072,285.565 186.054,286.386 186.854 C 287.206 187.653,288.306 188.443,288.831 188.610 C 289.355 188.776,290.261 189.264,290.842 189.695 C 291.424 190.125,293.132 190.735,294.637 191.050 C 296.142 191.366,298.346 192.084,299.533 192.646 C 300.721 193.208,302.887 193.852,304.347 194.078 C 305.806 194.304,307.722 194.911,308.604 195.426 C 309.486 195.941,311.703 196.711,313.530 197.137 C 315.508 197.597,317.217 198.252,317.752 198.755 C 318.246 199.219,319.562 199.869,320.677 200.201 C 321.792 200.532,322.933 201.079,323.213 201.416 C 323.493 201.753,324.820 202.644,326.161 203.395 C 328.571 204.745,332.400 208.696,332.400 209.834 C 332.400 210.135,333.022 210.946,333.781 211.638 C 336.671 214.267,338.324 218.718,338.522 224.400 C 338.738 230.621,338.333 234.154,337.231 235.643 C 336.774 236.262,336.400 237.373,336.400 238.113 C 336.400 240.508,335.309 242.919,333.773 243.916 C 332.997 244.420,332.250 245.140,332.112 245.516 C 331.801 246.367,328.338 249.976,327.819 249.990 C 327.610 249.995,326.890 250.510,326.219 251.134 C 325.549 251.757,324.190 252.494,323.200 252.771 C 322.210 253.047,320.950 253.685,320.400 254.188 C 319.850 254.691,318.410 255.414,317.200 255.795 C 315.990 256.176,314.318 256.947,313.485 257.509 C 309.923 259.909,280.193 260.012,276.848 257.636 C 276.272 257.226,274.270 256.584,272.400 256.208 C 269.962 255.718,268.702 255.244,267.948 254.534 C 267.288 253.912,265.895 253.314,264.206 252.929 C 262.726 252.592,261.184 251.984,260.780 251.580 C 260.376 251.176,259.450 250.732,258.722 250.594 C 257.165 250.299,256.300 249.718,255.678 248.551 C 255.401 248.030,254.540 247.529,253.452 247.255 C 252.397 246.989,251.297 246.361,250.739 245.704 C 250.223 245.097,249.305 244.281,248.700 243.891 C 247.195 242.921,247.160 240.585,248.623 238.846 C 249.185 238.178,249.752 236.949,249.882 236.115 C 250.023 235.217,250.647 234.008,251.416 233.148 C 252.351 232.100,252.788 231.140,252.986 229.700 C 253.202 228.135,253.511 227.520,254.427 226.843 C 255.069 226.369,255.959 225.265,256.405 224.390 C 256.851 223.516,257.348 222.801,257.508 222.802 C 258.721 222.811,261.081 223.849,261.711 224.650 C 262.131 225.185,263.187 225.985,264.057 226.429 C 264.927 226.873,265.742 227.505,265.868 227.833 C 266.117 228.481,268.473 229.600,269.589 229.600 C 269.969 229.600,271.026 230.140,271.938 230.801 C 272.850 231.461,274.452 232.198,275.498 232.438 C 276.544 232.678,278.300 233.304,279.400 233.830 C 290.429 239.096,305.384 238.190,308.088 232.091 C 309.006 230.019,309.136 226.959,308.366 225.548 C 306.727 222.547,305.576 221.254,304.118 220.780 C 303.283 220.508,302.009 219.771,301.286 219.143 C 300.142 218.148,299.649 218.000,297.475 218.000 C 295.271 218.000,294.827 217.862,293.692 216.825 C 292.808 216.018,291.809 215.569,290.503 215.393 C 287.271 214.956,284.114 214.068,281.502 212.861 C 280.126 212.225,278.290 211.576,277.421 211.419 C 276.553 211.262,275.415 210.798,274.893 210.387 C 274.371 209.976,272.978 209.360,271.798 209.017 C 270.618 208.674,269.131 207.954,268.493 207.417 C 267.855 206.880,266.358 206.064,265.166 205.604 C 263.222 204.853,261.207 203.156,261.202 202.264 C 261.201 202.079,260.211 200.819,259.001 199.464 C 257.617 197.913,256.559 196.259,256.144 195.000 C 255.782 193.900,254.997 192.370,254.400 191.600 L 253.315 190.200 253.357 183.400 C 253.398 176.900,253.447 176.503,254.464 174.400 C 255.049 173.190,255.823 171.408,256.185 170.439 C 256.547 169.470,257.373 168.034,258.021 167.248 C 258.670 166.461,259.200 165.602,259.200 165.338 C 259.200 165.074,259.605 164.530,260.100 164.129 C 260.595 163.728,261.533 162.616,262.183 161.658 C 263.005 160.449,263.984 159.639,265.383 159.009 C 266.493 158.510,267.625 157.722,267.900 157.257 C 268.196 156.755,269.134 156.227,270.207 155.957 C 271.201 155.706,272.640 155.004,273.404 154.397 C 274.897 153.211,275.943 152.978,282.241 152.432 C 284.779 152.212,286.787 151.813,287.641 151.358 C 290.057 150.072,298.453 149.836,304.800 150.876 M225.410 151.337 C 229.365 151.452,232.922 151.670,233.315 151.822 C 235.316 152.592,235.276 151.852,235.431 191.164 C 235.585 230.364,235.573 230.670,233.605 235.043 C 233.199 235.946,232.736 237.552,232.577 238.612 C 232.364 240.036,231.938 240.889,230.944 241.882 C 230.064 242.762,229.600 243.610,229.600 244.337 C 229.600 245.606,229.068 246.366,227.500 247.337 C 226.895 247.712,226.400 248.273,226.400 248.584 C 226.400 249.529,223.532 251.993,221.207 253.045 C 220.001 253.591,218.492 254.572,217.854 255.225 C 217.216 255.877,216.223 256.529,215.647 256.672 C 215.071 256.816,213.827 257.344,212.881 257.845 C 211.936 258.346,210.316 258.859,209.281 258.985 C 208.247 259.111,205.581 259.501,203.358 259.852 C 199.650 260.438,198.929 260.437,194.623 259.845 C 192.041 259.490,188.949 259.200,187.752 259.200 C 185.600 259.200,183.208 258.467,182.015 257.441 C 181.677 257.151,180.511 256.696,179.425 256.432 C 178.338 256.167,176.870 255.442,176.161 254.820 C 175.453 254.197,173.965 253.387,172.855 253.018 C 171.647 252.617,170.744 252.053,170.604 251.613 C 170.476 251.208,169.771 250.593,169.038 250.245 C 167.495 249.513,162.136 244.259,161.776 243.126 C 161.526 242.338,163.650 238.644,166.219 235.400 C 166.915 234.520,167.602 233.432,167.743 232.983 C 167.885 232.533,168.631 231.498,169.401 230.682 C 170.170 229.866,170.800 228.949,170.800 228.643 C 170.800 226.285,174.633 225.362,176.511 227.269 C 177.220 227.989,178.638 228.972,179.662 229.453 C 180.685 229.934,181.639 230.692,181.780 231.138 C 181.945 231.658,182.736 232.180,183.988 232.596 C 185.061 232.952,186.153 233.503,186.416 233.819 C 187.577 235.219,194.898 236.533,197.376 235.787 C 198.449 235.464,199.935 235.200,200.678 235.200 C 204.118 235.200,208.774 225.203,207.271 221.047 C 206.625 219.260,206.680 216.385,207.393 214.679 C 207.917 213.425,207.917 213.064,207.390 211.572 C 206.900 210.182,206.799 207.084,206.819 193.961 C 206.846 176.599,206.701 175.171,204.844 174.440 C 204.221 174.194,197.503 173.961,188.168 173.860 C 169.039 173.655,170.964 174.423,170.585 166.842 C 169.902 153.175,170.904 151.202,178.230 151.792 C 180.106 151.944,181.468 151.849,182.273 151.510 C 183.534 150.980,209.546 150.876,225.410 151.337 M149.800 151.767 C 152.998 151.857,153.199 152.549,153.199 163.491 C 153.200 172.273,153.189 172.389,152.300 172.960 C 151.544 173.445,147.168 173.559,124.920 173.669 C 105.818 173.763,98.313 173.927,97.985 174.255 C 97.289 174.951,97.230 192.071,97.921 192.904 C 98.725 193.874,103.009 194.070,125.000 194.142 C 149.359 194.221,147.366 193.747,147.720 199.551 C 148.389 210.529,147.282 216.371,144.654 215.744 C 143.964 215.580,143.040 215.475,142.600 215.512 C 137.350 215.950,123.121 216.358,114.200 216.326 C 96.680 216.263,97.447 215.845,97.277 225.560 C 97.083 236.692,97.832 237.920,104.423 237.273 C 106.086 237.110,108.066 237.117,108.823 237.287 C 109.581 237.458,117.670 237.578,126.800 237.554 C 157.045 237.474,156.524 237.297,155.850 247.415 C 155.567 251.671,155.559 251.916,155.606 254.967 C 155.636 256.864,155.478 257.500,154.811 258.167 L 153.978 259.000 112.801 259.000 L 71.623 259.000 70.712 258.089 L 69.800 257.178 69.691 205.979 C 69.576 151.899,69.512 153.800,71.496 152.500 C 72.628 151.758,124.294 151.024,141.000 151.512 C 144.740 151.621,148.700 151.736,149.800 151.767 " stroke="none" fill="#b3cb64" fill-rule="evenodd"></path></g></svg>