<svg id="svg" version="1.1" xmlns="http://www.w3.org/2000/svg" xmlns:xlink="http://www.w3.org/1999/xlink" viewBox="0, 0, 400,400"><g id="svgg"><path id="path0" d="M58.000 165.154 C 42.949 169.239,35.820 189.621,43.642 206.200 C 50.697 221.151,74.322 222.361,82.623 208.198 C 83.892 206.031,85.600 201.548,85.600 200.382 C 85.600 198.912,81.767 199.264,81.468 200.761 C 80.218 207.011,74.382 212.823,68.210 213.964 C 55.197 216.370,45.561 208.340,44.731 194.400 L 44.600 192.200 65.400 192.000 L 86.200 191.800 86.096 188.244 C 85.611 171.695,72.773 161.144,58.000 165.154 M156.814 165.040 C 151.948 166.348,147.226 170.034,144.825 174.400 L 143.614 176.600 143.607 171.100 L 143.600 165.600 141.600 165.600 L 139.600 165.600 139.600 200.622 L 139.600 235.644 141.500 235.522 L 143.400 235.400 143.507 221.400 L 143.614 207.400 144.762 209.408 C 152.548 223.017,176.856 220.237,182.939 205.042 C 191.882 182.704,176.832 159.660,156.814 165.040 M235.240 165.219 C 224.654 167.991,218.344 177.733,218.283 191.400 C 218.207 208.316,226.251 217.742,240.800 217.783 C 252.298 217.816,258.843 213.469,262.213 203.562 C 263.554 199.620,263.549 199.599,261.300 199.604 L 259.400 199.609 258.285 202.584 C 255.238 210.714,250.203 214.129,241.200 214.175 C 230.115 214.231,223.521 207.397,222.214 194.500 L 221.960 192.000 242.780 192.000 L 263.600 192.000 263.600 188.283 C 263.600 172.021,250.366 161.258,235.240 165.219 M284.600 165.032 C 276.079 166.913,272.088 171.351,272.481 178.508 C 272.892 185.992,278.261 190.174,289.800 192.000 C 301.914 193.917,307.195 197.239,307.529 203.152 C 307.925 210.158,301.867 214.358,291.320 214.392 C 282.527 214.420,276.082 209.443,274.586 201.467 C 274.263 199.743,270.400 199.068,270.400 200.736 C 270.400 210.961,278.987 217.806,291.800 217.795 C 304.558 217.784,311.600 212.807,311.600 203.800 C 311.600 195.455,307.437 192.038,293.480 188.924 C 279.354 185.773,276.380 183.820,276.412 177.716 C 276.486 164.150,304.486 165.044,305.891 178.658 C 306.299 182.617,309.823 182.475,309.761 178.501 C 309.607 168.494,297.726 162.133,284.600 165.032 M332.600 165.032 C 324.089 166.911,320.123 171.280,320.483 178.379 C 320.869 185.987,326.176 190.161,337.800 192.000 C 349.914 193.917,355.195 197.239,355.529 203.152 C 355.925 210.158,349.867 214.358,339.320 214.392 C 330.527 214.420,324.082 209.443,322.586 201.467 C 322.313 200.010,322.298 200.000,320.310 200.000 L 318.309 200.000 318.575 201.900 C 320.068 212.547,327.090 217.806,339.800 217.795 C 352.558 217.784,359.600 212.807,359.600 203.800 C 359.600 195.488,355.419 192.032,341.657 188.969 C 327.405 185.798,324.400 183.850,324.400 177.787 C 324.400 164.183,352.482 165.012,353.891 178.658 C 354.299 182.617,357.823 182.475,357.761 178.501 C 357.607 168.494,345.726 162.133,332.600 165.032 M89.600 165.906 C 89.600 166.074,90.465 167.289,91.523 168.606 C 92.581 169.923,95.096 173.160,97.112 175.800 C 99.127 178.440,102.399 182.701,104.382 185.269 L 107.988 189.938 103.127 196.469 C 100.454 200.061,95.972 206.056,93.167 209.792 C 87.592 217.215,87.597 217.200,90.347 217.200 C 92.867 217.200,92.341 217.761,101.794 205.000 C 106.357 198.840,110.235 193.645,110.410 193.455 C 110.696 193.146,113.415 196.639,120.000 205.774 C 128.890 218.107,128.049 217.200,130.593 217.200 C 131.781 217.200,132.853 217.038,132.976 216.839 C 133.099 216.640,128.789 210.598,123.400 203.412 C 118.010 196.225,113.600 190.186,113.600 189.991 C 113.600 189.797,115.003 187.784,116.718 185.519 C 118.432 183.253,122.150 178.340,124.979 174.600 C 127.809 170.860,130.456 167.428,130.862 166.974 C 131.977 165.727,131.810 165.598,129.100 165.620 L 126.600 165.640 122.532 171.120 C 113.614 183.133,111.069 186.399,110.644 186.377 C 110.400 186.364,106.736 181.684,102.503 175.977 L 94.805 165.600 92.203 165.600 C 90.771 165.600,89.600 165.738,89.600 165.906 M194.097 191.300 L 194.200 217.000 196.000 217.000 L 197.800 217.000 198.012 200.400 C 198.267 180.441,198.491 179.491,204.269 173.925 C 207.237 171.066,213.805 168.687,217.029 169.303 C 217.949 169.479,218.000 169.387,218.000 167.545 L 218.000 165.600 216.055 165.600 C 209.386 165.600,202.890 168.958,199.545 174.134 L 198.000 176.524 198.000 171.062 L 198.000 165.600 195.997 165.600 L 193.994 165.600 194.097 191.300 M70.620 169.358 C 77.011 172.284,81.018 178.039,81.919 185.587 L 82.255 188.400 63.528 188.400 C 45.957 188.400,44.800 188.357,44.803 187.700 C 44.856 174.534,59.383 164.213,70.620 169.358 M169.280 169.396 C 187.052 176.511,184.854 210.401,166.384 214.035 C 150.555 217.149,140.684 203.915,144.185 184.273 C 146.443 171.606,157.874 164.830,169.280 169.396 M245.728 168.598 C 253.296 170.569,258.644 177.300,259.474 185.900 L 259.716 188.400 241.058 188.400 L 222.400 188.400 222.400 187.245 C 222.400 175.460,234.608 165.702,245.728 168.598 " stroke="none" fill="#f7f7f7" fill-rule="evenodd"></path><path id="path1" d="M183.400 5.475 C 181.860 5.566,180.429 5.812,180.220 6.020 C 180.011 6.229,179.118 6.400,178.236 6.400 C 175.816 6.400,166.312 7.579,165.400 7.992 C 164.960 8.191,162.710 8.655,160.400 9.023 C 158.090 9.390,156.020 9.824,155.800 9.986 C 155.580 10.149,153.780 10.595,151.800 10.979 C 149.820 11.362,148.020 11.814,147.800 11.983 C 147.580 12.152,146.050 12.610,144.400 13.000 C 142.750 13.390,141.220 13.837,141.000 13.993 C 140.780 14.148,139.700 14.510,138.600 14.797 C 137.500 15.084,135.870 15.640,134.977 16.034 C 134.085 16.427,132.510 16.962,131.477 17.222 C 130.445 17.482,129.600 17.825,129.600 17.984 C 129.600 18.143,128.520 18.600,127.200 19.000 C 125.880 19.400,124.800 19.878,124.800 20.063 C 124.800 20.248,124.522 20.400,124.183 20.400 C 123.844 20.400,122.449 20.917,121.083 21.549 C 119.717 22.181,117.925 22.937,117.100 23.229 C 116.275 23.522,115.600 23.880,115.600 24.026 C 115.600 24.172,114.750 24.616,113.712 25.013 C 112.673 25.409,111.638 25.884,111.412 26.067 C 111.185 26.250,109.560 27.145,107.800 28.055 C 106.040 28.965,104.510 29.825,104.400 29.966 C 104.290 30.107,103.435 30.559,102.500 30.972 C 101.565 31.384,100.800 31.874,100.800 32.061 C 100.800 32.247,100.557 32.400,100.260 32.400 C 99.963 32.400,98.975 32.940,98.063 33.600 C 97.152 34.260,96.259 34.800,96.079 34.800 C 95.898 34.800,95.397 35.115,94.963 35.500 C 94.530 35.885,93.551 36.546,92.788 36.970 C 92.025 37.393,91.310 37.847,91.200 37.979 C 91.090 38.111,90.465 38.560,89.810 38.977 C 89.156 39.394,88.436 39.883,88.210 40.063 C 86.343 41.550,83.924 43.200,83.611 43.200 C 83.400 43.200,83.035 43.560,82.800 44.000 C 82.565 44.440,82.110 44.800,81.789 44.800 C 81.469 44.800,80.982 45.160,80.707 45.600 C 80.432 46.040,80.026 46.403,79.804 46.406 C 79.582 46.410,78.770 46.952,78.000 47.611 C 77.230 48.269,76.008 49.302,75.284 49.904 C 71.867 52.751,69.317 55.162,62.239 62.239 C 55.162 69.317,52.751 71.867,49.904 75.284 C 49.302 76.008,48.269 77.230,47.611 78.000 C 46.952 78.770,46.410 79.582,46.406 79.804 C 46.403 80.026,46.040 80.432,45.600 80.707 C 45.160 80.982,44.800 81.469,44.800 81.789 C 44.800 82.110,44.440 82.565,44.000 82.800 C 43.560 83.035,43.200 83.400,43.200 83.611 C 43.200 83.924,41.550 86.343,40.063 88.210 C 39.883 88.436,39.394 89.156,38.977 89.810 C 38.560 90.465,38.111 91.090,37.979 91.200 C 37.847 91.310,37.393 92.025,36.970 92.788 C 36.546 93.551,35.885 94.530,35.500 94.963 C 35.115 95.397,34.800 95.898,34.800 96.079 C 34.800 96.259,34.260 97.152,33.600 98.063 C 32.940 98.975,32.400 99.963,32.400 100.260 C 32.400 100.557,32.247 100.800,32.061 100.800 C 31.874 100.800,31.384 101.565,30.972 102.500 C 30.559 103.435,30.107 104.290,29.966 104.400 C 29.825 104.510,28.965 106.040,28.055 107.800 C 27.145 109.560,26.250 111.185,26.067 111.412 C 25.884 111.638,25.409 112.673,25.013 113.712 C 24.616 114.750,24.172 115.600,24.026 115.600 C 23.880 115.600,23.522 116.275,23.229 117.100 C 22.937 117.925,22.181 119.717,21.549 121.083 C 20.917 122.449,20.400 123.844,20.400 124.183 C 20.400 124.522,20.248 124.800,20.063 124.800 C 19.878 124.800,19.400 125.880,19.000 127.200 C 18.600 128.520,18.143 129.600,17.984 129.600 C 17.825 129.600,17.482 130.445,17.222 131.477 C 16.962 132.510,16.427 134.085,16.034 134.977 C 15.640 135.870,15.084 137.500,14.797 138.600 C 14.510 139.700,14.148 140.780,13.993 141.000 C 13.837 141.220,13.390 142.750,13.000 144.400 C 12.610 146.050,12.152 147.580,11.983 147.800 C 11.814 148.020,11.362 149.820,10.979 151.800 C 10.595 153.780,10.149 155.580,9.986 155.800 C 9.824 156.020,9.390 158.090,9.023 160.400 C 8.655 162.710,8.191 164.960,7.992 165.400 C 7.579 166.312,6.400 175.816,6.400 178.236 C 6.400 179.118,6.175 180.065,5.900 180.340 C 5.173 181.067,5.173 218.933,5.900 219.660 C 6.175 219.935,6.400 220.882,6.400 221.764 C 6.400 224.184,7.579 233.688,7.992 234.600 C 8.191 235.040,8.655 237.290,9.023 239.600 C 9.390 241.910,9.824 243.980,9.986 244.200 C 10.149 244.420,10.595 246.220,10.979 248.200 C 11.362 250.180,11.814 251.980,11.983 252.200 C 12.152 252.420,12.610 253.950,13.000 255.600 C 13.390 257.250,13.837 258.780,13.993 259.000 C 14.148 259.220,14.510 260.300,14.797 261.400 C 15.084 262.500,15.640 264.130,16.034 265.023 C 16.427 265.915,16.962 267.490,17.222 268.523 C 17.482 269.555,17.825 270.400,17.984 270.400 C 18.143 270.400,18.600 271.480,19.000 272.800 C 19.400 274.120,19.878 275.200,20.063 275.200 C 20.248 275.200,20.400 275.478,20.400 275.817 C 20.400 276.156,20.917 277.551,21.549 278.917 C 22.181 280.283,22.937 282.075,23.229 282.900 C 23.522 283.725,23.880 284.400,24.026 284.400 C 24.172 284.400,24.616 285.250,25.013 286.288 C 25.409 287.327,25.884 288.362,26.067 288.588 C 26.250 288.815,27.145 290.440,28.055 292.200 C 28.965 293.960,29.825 295.490,29.966 295.600 C 30.107 295.710,30.559 296.565,30.972 297.500 C 31.384 298.435,31.874 299.200,32.061 299.200 C 32.247 299.200,32.400 299.443,32.400 299.740 C 32.400 300.037,32.940 301.025,33.600 301.937 C 34.260 302.848,34.800 303.741,34.800 303.921 C 34.800 304.102,35.115 304.603,35.500 305.037 C 35.885 305.470,36.546 306.449,36.970 307.212 C 37.393 307.975,37.847 308.690,37.979 308.800 C 38.111 308.910,38.560 309.535,38.977 310.190 C 39.394 310.844,39.883 311.564,40.063 311.790 C 41.550 313.657,43.200 316.076,43.200 316.389 C 43.200 316.600,43.560 316.965,44.000 317.200 C 44.440 317.435,44.800 317.890,44.800 318.211 C 44.800 318.531,45.160 319.018,45.600 319.293 C 46.040 319.568,46.403 319.974,46.406 320.196 C 46.410 320.418,46.952 321.230,47.611 322.000 C 48.269 322.770,49.302 323.992,49.904 324.716 C 52.751 328.133,55.162 330.683,62.239 337.761 C 69.317 344.838,71.867 347.249,75.284 350.096 C 76.008 350.698,77.230 351.731,78.000 352.389 C 78.770 353.048,79.582 353.590,79.804 353.594 C 80.026 353.597,80.432 353.960,80.707 354.400 C 80.982 354.840,81.469 355.200,81.789 355.200 C 82.110 355.200,82.565 355.560,82.800 356.000 C 83.035 356.440,83.400 356.800,83.611 356.800 C 83.924 356.800,86.343 358.450,88.210 359.937 C 88.436 360.117,89.156 360.606,89.810 361.023 C 90.465 361.440,91.090 361.889,91.200 362.021 C 91.310 362.153,92.025 362.607,92.788 363.030 C 93.551 363.454,94.530 364.115,94.963 364.500 C 95.397 364.885,95.898 365.200,96.079 365.200 C 96.259 365.200,97.152 365.740,98.063 366.400 C 98.975 367.060,99.963 367.600,100.260 367.600 C 100.557 367.600,100.800 367.753,100.800 367.939 C 100.800 368.126,101.565 368.616,102.500 369.028 C 103.435 369.441,104.290 369.893,104.400 370.034 C 104.510 370.175,106.040 371.035,107.800 371.945 C 109.560 372.855,111.185 373.750,111.412 373.933 C 111.638 374.116,112.673 374.591,113.712 374.987 C 114.750 375.384,115.600 375.828,115.600 375.974 C 115.600 376.120,116.275 376.478,117.100 376.771 C 117.925 377.063,119.717 377.819,121.083 378.451 C 122.449 379.083,123.844 379.600,124.183 379.600 C 124.522 379.600,124.800 379.752,124.800 379.937 C 124.800 380.122,125.880 380.600,127.200 381.000 C 128.520 381.400,129.600 381.857,129.600 382.016 C 129.600 382.175,130.445 382.518,131.477 382.778 C 132.510 383.038,134.085 383.573,134.977 383.966 C 135.870 384.360,137.500 384.916,138.600 385.203 C 139.700 385.490,140.780 385.852,141.000 386.007 C 141.220 386.163,142.750 386.610,144.400 387.000 C 146.050 387.390,147.580 387.848,147.800 388.017 C 148.020 388.186,149.820 388.638,151.800 389.021 C 153.780 389.405,155.580 389.851,155.800 390.014 C 156.020 390.176,158.090 390.610,160.400 390.977 C 162.710 391.345,164.960 391.809,165.400 392.008 C 166.312 392.421,175.816 393.600,178.236 393.600 C 179.118 393.600,180.065 393.825,180.340 394.100 C 181.067 394.827,218.933 394.827,219.660 394.100 C 219.935 393.825,220.882 393.600,221.764 393.600 C 224.184 393.600,233.688 392.421,234.600 392.008 C 235.040 391.809,237.290 391.345,239.600 390.977 C 241.910 390.610,243.980 390.176,244.200 390.014 C 244.420 389.851,246.220 389.405,248.200 389.021 C 250.180 388.638,251.980 388.186,252.200 388.017 C 252.420 387.848,253.950 387.390,255.600 387.000 C 257.250 386.610,258.780 386.163,259.000 386.007 C 259.220 385.852,260.300 385.490,261.400 385.203 C 262.500 384.916,264.130 384.360,265.023 383.966 C 265.915 383.573,267.490 383.038,268.523 382.778 C 269.555 382.518,270.400 382.175,270.400 382.016 C 270.400 381.857,271.480 381.400,272.800 381.000 C 274.120 380.600,275.200 380.122,275.200 379.937 C 275.200 379.752,275.478 379.600,275.817 379.600 C 276.156 379.600,277.551 379.083,278.917 378.451 C 280.283 377.819,282.075 377.063,282.900 376.771 C 283.725 376.478,284.400 376.120,284.400 375.974 C 284.400 375.828,285.250 375.384,286.288 374.987 C 287.327 374.591,288.362 374.116,288.588 373.933 C 288.815 373.750,290.440 372.855,292.200 371.945 C 293.960 371.035,295.490 370.175,295.600 370.034 C 295.710 369.893,296.565 369.441,297.500 369.028 C 298.435 368.616,299.200 368.126,299.200 367.939 C 299.200 367.753,299.443 367.600,299.740 367.600 C 300.037 367.600,301.025 367.060,301.937 366.400 C 302.848 365.740,303.741 365.200,303.921 365.200 C 304.102 365.200,304.603 364.885,305.037 364.500 C 305.470 364.115,306.449 363.454,307.212 363.030 C 307.975 362.607,308.690 362.153,308.800 362.021 C 308.910 361.889,309.535 361.440,310.190 361.023 C 310.844 360.606,311.564 360.117,311.790 359.937 C 313.657 358.450,316.076 356.800,316.389 356.800 C 316.600 356.800,316.965 356.440,317.200 356.000 C 317.435 355.560,317.890 355.200,318.211 355.200 C 318.531 355.200,319.018 354.840,319.293 354.400 C 319.568 353.960,319.974 353.597,320.196 353.594 C 320.418 353.590,321.230 353.048,322.000 352.389 C 322.770 351.731,323.992 350.698,324.716 350.096 C 328.133 347.249,330.683 344.838,337.761 337.761 C 344.838 330.683,347.249 328.133,350.096 324.716 C 350.698 323.992,351.731 322.770,352.389 322.000 C 353.048 321.230,353.590 320.418,353.594 320.196 C 353.597 319.974,353.960 319.568,354.400 319.293 C 354.840 319.018,355.200 318.531,355.200 318.211 C 355.200 317.890,355.560 317.435,356.000 317.200 C 356.440 316.965,356.800 316.600,356.800 316.389 C 356.800 316.076,358.450 313.657,359.937 311.790 C 360.117 311.564,360.606 310.844,361.023 310.190 C 361.440 309.535,361.889 308.910,362.021 308.800 C 362.153 308.690,362.607 307.975,363.030 307.212 C 363.454 306.449,364.115 305.470,364.500 305.037 C 364.885 304.603,365.200 304.102,365.200 303.921 C 365.200 303.741,365.740 302.848,366.400 301.937 C 367.060 301.025,367.600 300.037,367.600 299.740 C 367.600 299.443,367.753 299.200,367.939 299.200 C 368.126 299.200,368.616 298.435,369.028 297.500 C 369.441 296.565,369.893 295.710,370.034 295.600 C 370.175 295.490,371.035 293.960,371.945 292.200 C 372.855 290.440,373.750 288.815,373.933 288.588 C 374.116 288.362,374.591 287.327,374.987 286.288 C 375.384 285.250,375.828 284.400,375.974 284.400 C 376.120 284.400,376.478 283.725,376.771 282.900 C 377.063 282.075,377.819 280.283,378.451 278.917 C 379.083 277.551,379.600 276.156,379.600 275.817 C 379.600 275.478,379.752 275.200,379.937 275.200 C 380.122 275.200,380.600 274.120,381.000 272.800 C 381.400 271.480,381.857 270.400,382.016 270.400 C 382.175 270.400,382.518 269.555,382.778 268.523 C 383.038 267.490,383.573 265.915,383.966 265.023 C 384.360 264.130,384.916 262.500,385.203 261.400 C 385.490 260.300,385.852 259.220,386.007 259.000 C 386.163 258.780,386.610 257.250,387.000 255.600 C 387.390 253.950,387.848 252.420,388.017 252.200 C 388.186 251.980,388.638 250.180,389.021 248.200 C 389.405 246.220,389.851 244.420,390.014 244.200 C 390.176 243.980,390.610 241.910,390.977 239.600 C 391.345 237.290,391.809 235.040,392.008 234.600 C 392.421 233.688,393.600 224.184,393.600 221.764 C 393.600 220.882,393.825 219.935,394.100 219.660 C 394.486 219.274,394.600 214.795,394.600 200.000 C 394.600 185.205,394.486 180.726,394.100 180.340 C 393.825 180.065,393.600 179.118,393.600 178.236 C 393.600 175.816,392.421 166.312,392.008 165.400 C 391.809 164.960,391.345 162.710,390.977 160.400 C 390.610 158.090,390.176 156.020,390.014 155.800 C 389.851 155.580,389.405 153.780,389.021 151.800 C 388.638 149.820,388.186 148.020,388.017 147.800 C 387.848 147.580,387.390 146.050,387.000 144.400 C 386.610 142.750,386.163 141.220,386.007 141.000 C 385.852 140.780,385.490 139.700,385.203 138.600 C 384.916 137.500,384.360 135.870,383.966 134.977 C 383.573 134.085,383.038 132.510,382.778 131.477 C 382.518 130.445,382.175 129.600,382.016 129.600 C 381.857 129.600,381.400 128.520,381.000 127.200 C 380.600 125.880,380.122 124.800,379.937 124.800 C 379.752 124.800,379.600 124.522,379.600 124.183 C 379.600 123.844,379.083 122.449,378.451 121.083 C 377.819 119.717,377.063 117.925,376.771 117.100 C 376.478 116.275,376.120 115.600,375.974 115.600 C 375.828 115.600,375.384 114.750,374.987 113.712 C 374.591 112.673,374.116 111.638,373.933 111.412 C 373.750 111.185,372.855 109.560,371.945 107.800 C 371.035 106.040,370.175 104.510,370.034 104.400 C 369.893 104.290,369.441 103.435,369.028 102.500 C 368.616 101.565,368.126 100.800,367.939 100.800 C 367.753 100.800,367.600 100.557,367.600 100.260 C 367.600 99.963,367.060 98.975,366.400 98.063 C 365.740 97.152,365.200 96.259,365.200 96.079 C 365.200 95.898,364.885 95.397,364.500 94.963 C 364.115 94.530,363.454 93.551,363.030 92.788 C 362.607 92.025,362.153 91.310,362.021 91.200 C 361.889 91.090,361.440 90.465,361.023 89.810 C 360.606 89.156,360.117 88.436,359.937 88.210 C 358.450 86.343,356.800 83.924,356.800 83.611 C 356.800 83.400,356.440 83.035,356.000 82.800 C 355.560 82.565,355.200 82.110,355.200 81.789 C 355.200 81.469,354.840 80.982,354.400 80.707 C 353.960 80.432,353.597 80.026,353.594 79.804 C 353.590 79.582,353.048 78.770,352.389 78.000 C 351.731 77.230,350.698 76.008,350.096 75.284 C 347.249 71.867,344.838 69.317,337.761 62.239 C 330.683 55.162,328.133 52.751,324.716 49.904 C 323.992 49.302,322.770 48.269,322.000 47.611 C 321.230 46.952,320.418 46.410,320.196 46.406 C 319.974 46.403,319.568 46.040,319.293 45.600 C 319.018 45.160,318.531 44.800,318.211 44.800 C 317.890 44.800,317.435 44.440,317.200 44.000 C 316.965 43.560,316.600 43.200,316.389 43.200 C 316.076 43.200,313.657 41.550,311.790 40.063 C 311.564 39.883,310.844 39.394,310.190 38.977 C 309.535 38.560,308.910 38.111,308.800 37.979 C 308.690 37.847,307.975 37.393,307.212 36.970 C 306.449 36.546,305.470 35.885,305.037 35.500 C 304.603 35.115,304.102 34.800,303.921 34.800 C 303.741 34.800,302.848 34.260,301.937 33.600 C 301.025 32.940,300.037 32.400,299.740 32.400 C 299.443 32.400,299.200 32.247,299.200 32.061 C 299.200 31.874,298.435 31.384,297.500 30.972 C 296.565 30.559,295.710 30.107,295.600 29.966 C 295.490 29.825,293.960 28.965,292.200 28.055 C 290.440 27.145,288.815 26.250,288.588 26.067 C 288.362 25.884,287.327 25.409,286.288 25.013 C 285.250 24.616,284.400 24.172,284.400 24.026 C 284.400 23.880,283.725 23.522,282.900 23.229 C 282.075 22.937,280.283 22.181,278.917 21.549 C 277.551 20.917,276.156 20.400,275.817 20.400 C 275.478 20.400,275.200 20.248,275.200 20.063 C 275.200 19.878,274.120 19.400,272.800 19.000 C 271.480 18.600,270.400 18.143,270.400 17.984 C 270.400 17.825,269.555 17.482,268.523 17.222 C 267.490 16.962,265.915 16.427,265.023 16.034 C 264.130 15.640,262.500 15.084,261.400 14.797 C 260.300 14.510,259.220 14.148,259.000 13.993 C 258.780 13.837,257.250 13.390,255.600 13.000 C 253.950 12.610,252.420 12.152,252.200 11.983 C 251.980 11.814,250.180 11.362,248.200 10.979 C 246.220 10.595,244.420 10.149,244.200 9.986 C 243.980 9.824,241.910 9.390,239.600 9.023 C 237.290 8.655,235.040 8.191,234.600 7.992 C 233.688 7.579,224.184 6.400,221.764 6.400 C 220.882 6.400,219.941 6.181,219.672 5.912 C 219.187 5.427,190.145 5.076,183.400 5.475 M69.416 165.007 C 79.446 167.562,85.747 176.339,86.096 188.244 L 86.200 191.800 65.400 192.000 L 44.600 192.200 44.731 194.400 C 45.561 208.340,55.197 216.370,68.210 213.964 C 74.382 212.823,80.218 207.011,81.468 200.761 C 81.767 199.264,85.600 198.912,85.600 200.382 C 85.600 206.105,79.185 214.087,72.551 216.618 C 58.719 221.897,44.801 214.356,41.507 199.800 C 36.663 178.394,51.136 160.352,69.416 165.007 M167.816 165.003 C 182.649 168.758,189.841 187.800,182.939 205.042 C 176.856 220.237,152.548 223.017,144.762 209.408 L 143.614 207.400 143.507 221.400 L 143.400 235.400 141.500 235.522 L 139.600 235.644 139.600 200.622 L 139.600 165.600 141.600 165.600 L 143.600 165.600 143.607 171.100 L 143.614 176.600 144.825 174.400 C 149.086 166.652,158.740 162.706,167.816 165.003 M247.429 165.207 C 257.023 167.661,263.600 177.046,263.600 188.283 L 263.600 192.000 242.780 192.000 L 221.960 192.000 222.214 194.500 C 223.521 207.397,230.115 214.231,241.200 214.175 C 250.203 214.129,255.238 210.714,258.285 202.584 L 259.400 199.609 261.300 199.604 C 263.549 199.599,263.554 199.620,262.213 203.562 C 258.843 213.469,252.298 217.816,240.800 217.783 C 226.251 217.742,218.207 208.316,218.283 191.400 C 218.367 172.564,231.178 161.051,247.429 165.207 M299.115 165.539 C 305.534 167.572,309.670 172.609,309.761 178.501 C 309.823 182.475,306.299 182.617,305.891 178.658 C 304.486 165.044,276.486 164.150,276.412 177.716 C 276.380 183.820,279.354 185.773,293.480 188.924 C 307.437 192.038,311.600 195.455,311.600 203.800 C 311.600 212.807,304.558 217.784,291.800 217.795 C 278.987 217.806,270.400 210.961,270.400 200.736 C 270.400 199.068,274.263 199.743,274.586 201.467 C 276.082 209.443,282.527 214.420,291.320 214.392 C 301.867 214.358,307.925 210.158,307.529 203.152 C 307.195 197.239,301.914 193.917,289.800 192.000 C 275.958 189.810,269.413 182.331,273.191 173.021 C 276.049 165.980,288.847 162.286,299.115 165.539 M347.115 165.539 C 353.534 167.572,357.670 172.609,357.761 178.501 C 357.823 182.475,354.299 182.617,353.891 178.658 C 352.482 165.012,324.400 164.183,324.400 177.787 C 324.400 183.850,327.405 185.798,341.657 188.969 C 355.419 192.032,359.600 195.488,359.600 203.800 C 359.600 212.807,352.558 217.784,339.800 217.795 C 327.090 217.806,320.068 212.547,318.575 201.900 L 318.309 200.000 320.310 200.000 C 322.298 200.000,322.313 200.010,322.586 201.467 C 324.082 209.443,330.527 214.420,339.320 214.392 C 349.867 214.358,355.925 210.158,355.529 203.152 C 355.195 197.239,349.914 193.917,337.800 192.000 C 323.959 189.810,317.246 182.081,321.200 172.888 C 324.188 165.942,336.958 162.321,347.115 165.539 M102.503 175.977 C 106.736 181.684,110.400 186.364,110.644 186.377 C 111.069 186.399,113.614 183.133,122.532 171.120 L 126.600 165.640 129.100 165.620 C 131.810 165.598,131.977 165.727,130.862 166.974 C 130.456 167.428,127.809 170.860,124.979 174.600 C 122.150 178.340,118.432 183.253,116.718 185.519 C 115.003 187.784,113.600 189.797,113.600 189.991 C 113.600 190.186,118.010 196.225,123.400 203.412 C 128.789 210.598,133.099 216.640,132.976 216.839 C 132.853 217.038,131.781 217.200,130.593 217.200 C 128.049 217.200,128.890 218.107,120.000 205.774 C 113.415 196.639,110.696 193.146,110.410 193.455 C 110.235 193.645,106.357 198.840,101.794 205.000 C 92.341 217.761,92.867 217.200,90.347 217.200 C 87.597 217.200,87.592 217.215,93.167 209.792 C 95.972 206.056,100.454 200.061,103.127 196.469 L 107.988 189.938 104.382 185.269 C 102.399 182.701,99.127 178.440,97.112 175.800 C 95.096 173.160,92.581 169.923,91.523 168.606 C 89.094 165.582,89.090 165.600,92.203 165.600 L 94.805 165.600 102.503 175.977 M198.000 171.062 L 198.000 176.524 199.545 174.134 C 202.890 168.958,209.386 165.600,216.055 165.600 L 218.000 165.600 218.000 167.545 C 218.000 169.387,217.949 169.479,217.029 169.303 C 213.805 168.687,207.237 171.066,204.269 173.925 C 198.491 179.491,198.267 180.441,198.012 200.400 L 197.800 217.000 196.000 217.000 L 194.200 217.000 194.097 191.300 L 193.994 165.600 195.997 165.600 L 198.000 165.600 198.000 171.062 M60.101 168.396 C 52.044 170.111,44.837 179.205,44.803 187.700 C 44.800 188.357,45.957 188.400,63.528 188.400 L 82.255 188.400 81.919 185.587 C 80.512 173.804,70.768 166.126,60.101 168.396 M158.195 168.380 C 147.235 170.741,141.408 183.374,144.164 198.800 C 147.929 219.872,175.807 219.910,180.566 198.849 C 184.725 180.446,173.453 165.094,158.195 168.380 M236.906 168.617 C 229.056 170.731,222.400 179.278,222.400 187.245 L 222.400 188.400 241.058 188.400 L 259.716 188.400 259.474 185.900 C 258.295 173.695,247.824 165.676,236.906 168.617 " stroke="none" fill="#343434" fill-rule="evenodd"></path></g></svg>