<svg id="visual" viewBox="0 0 900 600" width="900" height="600" xmlns="http://www.w3.org/2000/svg" xmlns:xlink="http://www.w3.org/1999/xlink" version="1.1"><rect x="0" y="0" width="900" height="600" fill="#36393f"></rect><path d="M0 119L18.8 124.7C37.7 130.3 75.3 141.7 112.8 141.2C150.3 140.7 187.7 128.3 225.2 147.2C262.7 166 300.3 216 337.8 212.3C375.3 208.7 412.7 151.3 450.2 129C487.7 106.7 525.3 119.3 562.8 141.2C600.3 163 637.7 194 675.2 213.3C712.7 232.7 750.3 240.3 787.8 230.7C825.3 221 862.7 194 881.3 180.5L900 167L900 0L881.3 0C862.7 0 825.3 0 787.8 0C750.3 0 712.7 0 675.2 0C637.7 0 600.3 0 562.8 0C525.3 0 487.7 0 450.2 0C412.7 0 375.3 0 337.8 0C300.3 0 262.7 0 225.2 0C187.7 0 150.3 0 112.8 0C75.3 0 37.7 0 18.8 0L0 0Z" fill="#2f3136" stroke-linecap="round" stroke-linejoin="miter"></path></svg>