<?xml version="1.0" standalone="no"?><svg xmlns:xlink="http://www.w3.org/1999/xlink" xmlns="http://www.w3.org/2000/svg" viewBox="0 0 1000 642.8605850320466" preserveAspectRatio="xMaxYMax slice"><g transform="scale(0.9638089730615392)"><rect x="0" y="0" width="1037.5555555555557" height="667" fill="#2f3136"/><path d="M 74.11 0 A 74.11 74.11 0 0 1  148.22 74.11 L 74.11 0 A 74.11 74.11 0 0 0 148.22 74.11" fill="#0e87b8"/><rect x="444.6666666666667" y="0" width="74.11111111111111" height="74.11111111111111" fill="#2f3136"/><path d="M 444.67 37.06 A 37.06 37.06 0 0 1  481.73 74.12 L 444.67 37.06 A 37.06 37.06 0 0 0 481.73 74.12" fill="#196a8c"/><path d="M 481.72 37.06 A 37.06 37.06 0 0 1  518.78 74.12 L 481.72 37.06 A 37.06 37.06 0 0 0 518.78 74.12" fill="#6c2343"/><rect x="592.8888888888889" y="0" width="74.11111111111111" height="74.11111111111111" fill="#2f3136"/><path d="M 629.94 74.12 A 37.06 37.06 0 0 1  667 37.06 L 629.94 74.12 A 37.06 37.06 0 0 0 667 37.06" fill="#333037"/><path d="M 667 74.11 A 74.11 74.11 0 0 1  741.11 0 L 667 74.11 A 74.11 74.11 0 0 0 741.11 0" fill="#0d89ba"/><path d="M 815.22 74.11 A 74.11 74.11 0 0 1  889.33 0 L 815.22 74.11 A 74.11 74.11 0 0 0 889.33 0" fill="#205972"/><rect x="963.4444444444445" y="0" width="74.11111111111111" height="74.11111111111111" fill="#2f3136"/><path d="M 1000.5 0 A 37.06 37.06 0 0 1  1037.56 37.06 L 1000.5 0 A 37.06 37.06 0 0 0 1037.56 37.06" fill="#1080ae"/><path d="M 963.44 74.12 A 37.06 37.06 0 0 1  1000.5 37.06 L 963.44 74.12 A 37.06 37.06 0 0 0 1000.5 37.06" fill="#662441"/><rect x="0" y="74.11111111111111" width="74.11111111111111" height="74.11111111111111" fill="#2f3136"/><path d="M 37.06 74.11 A 37.06 37.06 0 0 1  74.12 111.17 L 37.06 74.11 A 37.06 37.06 0 0 0 74.12 111.17" fill="#712144"/><path d="M 37.06 111.17 A 37.06 37.06 0 0 1  74.12 148.23000000000002 L 37.06 111.17 A 37.06 37.06 0 0 0 74.12 148.23000000000002" fill="#56283e"/><path d="M 370.56 74.11 A 74.11 74.11 0 0 1  444.67 148.22 L 370.56 74.11 A 74.11 74.11 0 0 0 444.67 148.22" fill="#1478a0"/><path d="M 444.67 148.22 A 74.11 74.11 0 0 1  518.78 74.11 L 444.67 148.22 A 74.11 74.11 0 0 0 518.78 74.11" fill="#861c48"/><rect x="518.7777777777778" y="74.11111111111111" width="74.11111111111111" height="74.11111111111111" fill="#2f3136"/><path d="M 555.83 74.11 A 37.06 37.06 0 0 1  592.8900000000001 111.17 L 555.83 74.11 A 37.06 37.06 0 0 0 592.8900000000001 111.17" fill="#811e47"/><path d="M 592.89 148.22 A 74.11 74.11 0 0 1  667 74.11 L 592.89 148.22 A 74.11 74.11 0 0 0 667 74.11" fill="#93194b"/><path d="M 667 74.11 A 74.11 74.11 0 0 1  741.11 148.22 L 667 74.11 A 74.11 74.11 0 0 0 741.11 148.22" fill="#791f46"/><rect x="815.2222222222223" y="74.11111111111111" width="74.11111111111111" height="74.11111111111111" fill="#2f3136"/><path d="M 852.28 148.23000000000002 A 37.06 37.06 0 0 1  889.3399999999999 111.17 L 852.28 148.23000000000002 A 37.06 37.06 0 0 0 889.3399999999999 111.17" fill="#9a184c"/><path d="M 0 148.22 A 74.11 74.11 0 0 1  74.11 222.32999999999998 L 0 148.22 A 74.11 74.11 0 0 0 74.11 222.32999999999998" fill="#6f2243"/><path d="M 148.22 222.32999999999998 A 74.11 74.11 0 0 1  222.32999999999998 148.22 L 148.22 222.32999999999998 A 74.11 74.11 0 0 0 222.32999999999998 148.22" fill="#95194b"/><path d="M 222.33 148.22 A 74.11 74.11 0 0 1  296.44 222.32999999999998 L 222.33 148.22 A 74.11 74.11 0 0 0 296.44 222.32999999999998" fill="#3d2e39"/><rect x="296.44444444444446" y="148.22222222222223" width="74.11111111111111" height="74.11111111111111" fill="#2f3136"/><rect x="370.55555555555554" y="148.22222222222223" width="74.11111111111111" height="74.11111111111111" fill="#2f3136"/><rect x="444.6666666666667" y="148.22222222222223" width="74.11111111111111" height="74.11111111111111" fill="#2f3136"/><path d="M 518.78 222.32999999999998 A 74.11 74.11 0 0 1  592.89 148.22 L 518.78 222.32999999999998 A 74.11 74.11 0 0 0 592.89 148.22" fill="#1e5c77"/><rect x="815.2222222222223" y="148.22222222222223" width="74.11111111111111" height="74.11111111111111" fill="#2f3136"/><path d="M 815.22 222.34 A 37.06 37.06 0 0 1  852.28 185.28 L 815.22 222.34 A 37.06 37.06 0 0 0 852.28 185.28" fill="#343037"/><rect x="0" y="222.33333333333334" width="74.11111111111111" height="74.11111111111111" fill="#2f3136"/><path d="M 37.06 259.39 A 37.06 37.06 0 0 1  74.12 222.33 L 37.06 259.39 A 37.06 37.06 0 0 0 74.12 222.33" fill="#362f38"/><rect x="148.22222222222223" y="222.33333333333334" width="74.11111111111111" height="74.11111111111111" fill="#2f3136"/><path d="M 148.22 222.33 A 37.06 37.06 0 0 1  185.28 259.39 L 148.22 222.33 A 37.06 37.06 0 0 0 185.28 259.39" fill="#801e47"/><path d="M 148.22 259.39 A 37.06 37.06 0 0 1  185.28 296.45 L 148.22 259.39 A 37.06 37.06 0 0 0 185.28 296.45" fill="#21566e"/><path d="M 185.28 296.45 A 37.06 37.06 0 0 1  222.34 259.39 L 185.28 296.45 A 37.06 37.06 0 0 0 222.34 259.39" fill="#8c1b49"/><path d="M 222.33 296.44 A 74.11 74.11 0 0 1  296.44 222.33 L 222.33 296.44 A 74.11 74.11 0 0 0 296.44 222.33" fill="#254a5c"/><path d="M 444.67 222.33 A 74.11 74.11 0 0 1  518.78 296.44 L 444.67 222.33 A 74.11 74.11 0 0 0 518.78 296.44" fill="#8a1c49"/><path d="M 667 222.33 A 74.11 74.11 0 0 1  741.11 296.44 L 667 222.33 A 74.11 74.11 0 0 0 741.11 296.44" fill="#5b273f"/><rect x="963.4444444444445" y="222.33333333333334" width="74.11111111111111" height="74.11111111111111" fill="#2f3136"/><path d="M 1000.5 259.39 A 37.06 37.06 0 0 1  1037.56 296.45 L 1000.5 259.39 A 37.06 37.06 0 0 0 1037.56 296.45" fill="#4d2a3c"/><rect x="74.11111111111111" y="296.44444444444446" width="74.11111111111111" height="74.11111111111111" fill="#2f3136"/><path d="M 74.11 333.5 A 37.06 37.06 0 0 1  111.17 370.56 L 74.11 333.5 A 37.06 37.06 0 0 0 111.17 370.56" fill="#891c49"/><path d="M 111.17 370.56 A 37.06 37.06 0 0 1  148.23000000000002 333.5 L 111.17 370.56 A 37.06 37.06 0 0 0 148.23000000000002 333.5" fill="#323037"/><path d="M 148.22 370.55 A 74.11 74.11 0 0 1  222.32999999999998 296.44 L 148.22 370.55 A 74.11 74.11 0 0 0 222.32999999999998 296.44" fill="#8d1b4a"/><rect x="222.33333333333334" y="296.44444444444446" width="74.11111111111111" height="74.11111111111111" fill="#2f3136"/><path d="M 222.33 296.44 A 37.06 37.06 0 0 1  259.39 333.5 L 222.33 296.44 A 37.06 37.06 0 0 0 259.39 333.5" fill="#392f38"/><rect x="296.44444444444446" y="296.44444444444446" width="74.11111111111111" height="74.11111111111111" fill="#2f3136"/><path d="M 333.5 333.5 A 37.06 37.06 0 0 1  370.56 370.56 L 333.5 333.5 A 37.06 37.06 0 0 0 370.56 370.56" fill="#323037"/><rect x="370.55555555555554" y="296.44444444444446" width="74.11111111111111" height="74.11111111111111" fill="#2f3136"/><path d="M 407.61 296.44 A 37.06 37.06 0 0 1  444.67 333.5 L 407.61 296.44 A 37.06 37.06 0 0 0 444.67 333.5" fill="#492b3b"/><rect x="815.2222222222223" y="296.44444444444446" width="74.11111111111111" height="74.11111111111111" fill="#2f3136"/><path d="M 815.22 333.5 A 37.06 37.06 0 0 1  852.28 296.44 L 815.22 333.5 A 37.06 37.06 0 0 0 852.28 296.44" fill="#0e87b8"/><path d="M 815.22 333.5 A 37.06 37.06 0 0 1  852.28 370.56 L 815.22 333.5 A 37.06 37.06 0 0 0 852.28 370.56" fill="#53283e"/><path d="M 852.28 333.5 A 37.06 37.06 0 0 1  889.3399999999999 370.56 L 852.28 333.5 A 37.06 37.06 0 0 0 889.3399999999999 370.56" fill="#50293d"/><path d="M 963.44 370.55 A 74.11 74.11 0 0 1  1037.55 296.44 L 963.44 370.55 A 74.11 74.11 0 0 0 1037.55 296.44" fill="#196b8e"/><rect x="0" y="370.55555555555554" width="74.11111111111111" height="74.11111111111111" fill="#2f3136"/><path d="M 370.56 444.67 A 74.11 74.11 0 0 1  444.67 370.56 L 370.56 444.67 A 74.11 74.11 0 0 0 444.67 370.56" fill="#3e2d39"/><path d="M 889.33 370.56 A 74.11 74.11 0 0 1  963.44 444.67 L 889.33 370.56 A 74.11 74.11 0 0 0 963.44 444.67" fill="#21576e"/><path d="M 667 518.78 A 74.11 74.11 0 0 1  741.11 444.67 L 667 518.78 A 74.11 74.11 0 0 0 741.11 444.67" fill="#2e3338"/><rect x="963.4444444444445" y="444.6666666666667" width="74.11111111111111" height="74.11111111111111" fill="#2f3136"/><path d="M 963.44 481.73 A 37.06 37.06 0 0 1  1000.5 444.67 L 963.44 481.73 A 37.06 37.06 0 0 0 1000.5 444.67" fill="#9a184c"/><path d="M 963.44 518.78 A 37.06 37.06 0 0 1  1000.5 481.72 L 963.44 518.78 A 37.06 37.06 0 0 0 1000.5 481.72" fill="#98184c"/><path d="M 0 592.89 A 74.11 74.11 0 0 1  74.11 518.78 L 0 592.89 A 74.11 74.11 0 0 0 74.11 518.78" fill="#284453"/><path d="M 74.11 592.89 A 74.11 74.11 0 0 1  148.22 518.78 L 74.11 592.89 A 74.11 74.11 0 0 0 148.22 518.78" fill="#4f2a3d"/><rect x="222.33333333333334" y="518.7777777777778" width="74.11111111111111" height="74.11111111111111" fill="#2f3136"/><path d="M 259.39 555.83 A 37.06 37.06 0 0 1  296.45 592.8900000000001 L 259.39 555.83 A 37.06 37.06 0 0 0 296.45 592.8900000000001" fill="#8a1b49"/><rect x="296.44444444444446" y="518.7777777777778" width="74.11111111111111" height="74.11111111111111" fill="#2f3136"/><path d="M 333.5 555.8399999999999 A 37.06 37.06 0 0 1  370.56 518.78 L 333.5 555.8399999999999 A 37.06 37.06 0 0 0 370.56 518.78" fill="#1d5f7b"/><path d="M 444.67 592.89 A 74.11 74.11 0 0 1  518.78 518.78 L 444.67 592.89 A 74.11 74.11 0 0 0 518.78 518.78" fill="#15759c"/><path d="M 518.78 518.78 A 74.11 74.11 0 0 1  592.89 592.89 L 518.78 518.78 A 74.11 74.11 0 0 0 592.89 592.89" fill="#362f38"/><path d="M 592.89 518.78 A 74.11 74.11 0 0 1  667 592.89 L 592.89 518.78 A 74.11 74.11 0 0 0 667 592.89" fill="#412d3a"/><rect x="74.11111111111111" y="592.8888888888889" width="74.11111111111111" height="74.11111111111111" fill="#2f3136"/><path d="M 111.17 592.89 A 37.06 37.06 0 0 1  148.23000000000002 629.95 L 111.17 592.89 A 37.06 37.06 0 0 0 148.23000000000002 629.95" fill="#382f38"/><path d="M 111.17 667 A 37.06 37.06 0 0 1  148.23000000000002 629.94 L 111.17 667 A 37.06 37.06 0 0 0 148.23000000000002 629.94" fill="#1081ae"/><path d="M 148.22 667 A 74.11 74.11 0 0 1  222.32999999999998 592.89 L 148.22 667 A 74.11 74.11 0 0 0 222.32999999999998 592.89" fill="#244d60"/><path d="M 296.44 667 A 74.11 74.11 0 0 1  370.55 592.89 L 296.44 667 A 74.11 74.11 0 0 0 370.55 592.89" fill="#323037"/><rect x="370.55555555555554" y="592.8888888888889" width="74.11111111111111" height="74.11111111111111" fill="#2f3136"/><path d="M 407.61 592.89 A 37.06 37.06 0 0 1  444.67 629.95 L 407.61 592.89 A 37.06 37.06 0 0 0 444.67 629.95" fill="#1b6584"/><path d="M 370.56 629.94 A 37.06 37.06 0 0 1  407.62 667 L 370.56 629.94 A 37.06 37.06 0 0 0 407.62 667" fill="#99184c"/><path d="M 444.67 592.89 A 74.11 74.11 0 0 1  518.78 667 L 444.67 592.89 A 74.11 74.11 0 0 0 518.78 667" fill="#1c6381"/><rect x="592.8888888888889" y="592.8888888888889" width="74.11111111111111" height="74.11111111111111" fill="#2f3136"/><path d="M 592.89 629.94 A 37.06 37.06 0 0 1  629.95 667 L 592.89 629.94 A 37.06 37.06 0 0 0 629.95 667" fill="#452c3b"/><path d="M 741.11 667 A 74.11 74.11 0 0 1  815.22 592.89 L 741.11 667 A 74.11 74.11 0 0 0 815.22 592.89" fill="#722144"/><path d="M 815.22 592.89 A 74.11 74.11 0 0 1  889.33 667 L 815.22 592.89 A 74.11 74.11 0 0 0 889.33 667" fill="#1e5d79"/><rect x="963.4444444444445" y="592.8888888888889" width="74.11111111111111" height="74.11111111111111" fill="#2f3136"/></g></svg>