<?xml version="1.0" standalone="no"?><svg xmlns:xlink="http://www.w3.org/1999/xlink" xmlns="http://www.w3.org/2000/svg" viewBox="0 0 1000 466.6685324079256" preserveAspectRatio="xMaxYMax slice"><g transform="scale(0.6996529721258256)"><rect x="0" y="0" width="1429.2857142857144" height="667" fill="#2f3136"/><g transform="translate(571.71,0) scale(4.7645) rotate(0)"><rect width="20" height="2" fill="#15759d"/><rect y="4" width="20" height="2" fill="#15759d"/><rect y="8" width="20" height="2" fill="#15759d"/><rect y="12" width="20" height="2" fill="#15759d"/><rect y="16" width="20" height="2" fill="#15759d"/></g><g transform="translate(1143.43,0) scale(4.7645) rotate(0)"><rect width="20" height="2" fill="#8d1b4a"/><rect y="4" width="20" height="2" fill="#8d1b4a"/><rect y="8" width="20" height="2" fill="#8d1b4a"/><rect y="12" width="20" height="2" fill="#8d1b4a"/><rect y="16" width="20" height="2" fill="#8d1b4a"/></g><g transform="translate(0,95.29) scale(4.7645) rotate(0)"><rect width="20" height="2" fill="#772045"/><rect y="4" width="20" height="2" fill="#772045"/><rect y="8" width="20" height="2" fill="#772045"/><rect y="12" width="20" height="2" fill="#772045"/><rect y="16" width="20" height="2" fill="#772045"/></g><g transform="translate(381.14,95.29) scale(4.7645) rotate(0)"><rect width="2" height="20" fill="#254c5f"/><rect x="4" width="2" height="20" fill="#254c5f"/><rect x="8" width="2" height="20" fill="#254c5f"/><rect x="12" width="2" height="20" fill="#254c5f"/><rect x="16" width="2" height="20" fill="#254c5f"/></g><g transform="translate(667,95.29) scale(4.7645) rotate(0)"><rect width="20" height="2" fill="#1379a3"/><rect y="4" width="20" height="2" fill="#1379a3"/><rect y="8" width="20" height="2" fill="#1379a3"/><rect y="12" width="20" height="2" fill="#1379a3"/><rect y="16" width="20" height="2" fill="#1379a3"/></g><g transform="translate(857.57,95.29) scale(4.7645) rotate(0)"><rect width="20" height="2" fill="#8d1b4a"/><rect y="4" width="20" height="2" fill="#8d1b4a"/><rect y="8" width="20" height="2" fill="#8d1b4a"/><rect y="12" width="20" height="2" fill="#8d1b4a"/><rect y="16" width="20" height="2" fill="#8d1b4a"/></g><rect x="1238.7142857142858" y="95.28571428571429" width="95.28571428571429" height="95.28571428571429" fill="#2f3136"/><g transform="translate(0,190.57) scale(4.7645) rotate(0)"><rect width="20" height="2" fill="#29414e"/><rect y="4" width="20" height="2" fill="#29414e"/><rect y="8" width="20" height="2" fill="#29414e"/><rect y="12" width="20" height="2" fill="#29414e"/><rect y="16" width="20" height="2" fill="#29414e"/></g><g transform="translate(95.29,190.57) scale(4.7645) rotate(0)"><rect width="20" height="2" fill="#1f5a74"/><rect y="4" width="20" height="2" fill="#1f5a74"/><rect y="8" width="20" height="2" fill="#1f5a74"/><rect y="12" width="20" height="2" fill="#1f5a74"/><rect y="16" width="20" height="2" fill="#1f5a74"/></g><rect x="285.8571428571429" y="190.57142857142858" width="95.28571428571429" height="95.28571428571429" fill="#2f3136"/><g transform="translate(285.86,238.21) scale(2.382) rotate(0)"><rect width="2" height="20" fill="#772045"/><rect x="4" width="2" height="20" fill="#772045"/><rect x="8" width="2" height="20" fill="#772045"/><rect x="12" width="2" height="20" fill="#772045"/><rect x="16" width="2" height="20" fill="#772045"/></g><rect x="381.14285714285717" y="190.57142857142858" width="95.28571428571429" height="95.28571428571429" fill="#2f3136"/><g transform="translate(381.14,238.21) scale(2.382) rotate(0)"><rect width="2" height="20" fill="#1c6482"/><rect x="4" width="2" height="20" fill="#1c6482"/><rect x="8" width="2" height="20" fill="#1c6482"/><rect x="12" width="2" height="20" fill="#1c6482"/><rect x="16" width="2" height="20" fill="#1c6482"/></g><rect x="476.42857142857144" y="190.57142857142858" width="95.28571428571429" height="95.28571428571429" fill="#2f3136"/><g transform="translate(762.29,190.57) scale(4.7645) rotate(0)"><rect width="2" height="20" fill="#205871"/><rect x="4" width="2" height="20" fill="#205871"/><rect x="8" width="2" height="20" fill="#205871"/><rect x="12" width="2" height="20" fill="#205871"/><rect x="16" width="2" height="20" fill="#205871"/></g><g transform="translate(1048.14,190.57) scale(4.7645) rotate(0)"><rect width="2" height="20" fill="#372f38"/><rect x="4" width="2" height="20" fill="#372f38"/><rect x="8" width="2" height="20" fill="#372f38"/><rect x="12" width="2" height="20" fill="#372f38"/><rect x="16" width="2" height="20" fill="#372f38"/></g><rect x="381.14285714285717" y="285.8571428571429" width="95.28571428571429" height="95.28571428571429" fill="#2f3136"/><g transform="translate(428.79,285.86) scale(2.382) rotate(0)"><rect width="20" height="2" fill="#8a1c49"/><rect y="4" width="20" height="2" fill="#8a1c49"/><rect y="8" width="20" height="2" fill="#8a1c49"/><rect y="12" width="20" height="2" fill="#8a1c49"/><rect y="16" width="20" height="2" fill="#8a1c49"/></g><g transform="translate(762.29,285.86) scale(4.7645) rotate(0)"><rect width="2" height="20" fill="#167196"/><rect x="4" width="2" height="20" fill="#167196"/><rect x="8" width="2" height="20" fill="#167196"/><rect x="12" width="2" height="20" fill="#167196"/><rect x="16" width="2" height="20" fill="#167196"/></g><g transform="translate(1048.14,285.86) scale(4.7645) rotate(0)"><rect width="2" height="20" fill="#7d1e46"/><rect x="4" width="2" height="20" fill="#7d1e46"/><rect x="8" width="2" height="20" fill="#7d1e46"/><rect x="12" width="2" height="20" fill="#7d1e46"/><rect x="16" width="2" height="20" fill="#7d1e46"/></g><g transform="translate(1143.43,285.86) scale(4.7645) rotate(0)"><rect width="20" height="2" fill="#1478a1"/><rect y="4" width="20" height="2" fill="#1478a1"/><rect y="8" width="20" height="2" fill="#1478a1"/><rect y="12" width="20" height="2" fill="#1478a1"/><rect y="16" width="20" height="2" fill="#1478a1"/></g><g transform="translate(1238.71,285.86) scale(4.7645) rotate(0)"><rect width="2" height="20" fill="#235065"/><rect x="4" width="2" height="20" fill="#235065"/><rect x="8" width="2" height="20" fill="#235065"/><rect x="12" width="2" height="20" fill="#235065"/><rect x="16" width="2" height="20" fill="#235065"/></g><g transform="translate(0,381.14) scale(4.7645) rotate(0)"><rect width="20" height="2" fill="#472b3b"/><rect y="4" width="20" height="2" fill="#472b3b"/><rect y="8" width="20" height="2" fill="#472b3b"/><rect y="12" width="20" height="2" fill="#472b3b"/><rect y="16" width="20" height="2" fill="#472b3b"/></g><rect x="381.14285714285717" y="381.14285714285717" width="95.28571428571429" height="95.28571428571429" fill="#2f3136"/><g transform="translate(381.14,381.14) scale(2.382) rotate(0)"><rect width="20" height="2" fill="#98184c"/><rect y="4" width="20" height="2" fill="#98184c"/><rect y="8" width="20" height="2" fill="#98184c"/><rect y="12" width="20" height="2" fill="#98184c"/><rect y="16" width="20" height="2" fill="#98184c"/></g><g transform="translate(428.79,381.14) scale(2.382) rotate(0)"><rect width="20" height="2" fill="#3a2e38"/><rect y="4" width="20" height="2" fill="#3a2e38"/><rect y="8" width="20" height="2" fill="#3a2e38"/><rect y="12" width="20" height="2" fill="#3a2e38"/><rect y="16" width="20" height="2" fill="#3a2e38"/></g><g transform="translate(381.14,428.79) scale(2.382) rotate(0)"><rect width="20" height="2" fill="#1180ad"/><rect y="4" width="20" height="2" fill="#1180ad"/><rect y="8" width="20" height="2" fill="#1180ad"/><rect y="12" width="20" height="2" fill="#1180ad"/><rect y="16" width="20" height="2" fill="#1180ad"/></g><g transform="translate(428.79,428.79) scale(2.382) rotate(0)"><rect width="2" height="20" fill="#1180ad"/><rect x="4" width="2" height="20" fill="#1180ad"/><rect x="8" width="2" height="20" fill="#1180ad"/><rect x="12" width="2" height="20" fill="#1180ad"/><rect x="16" width="2" height="20" fill="#1180ad"/></g><rect x="476.42857142857144" y="381.14285714285717" width="95.28571428571429" height="95.28571428571429" fill="#2f3136"/><g transform="translate(476.43,428.79) scale(2.382) rotate(0)"><rect width="2" height="20" fill="#127ca7"/><rect x="4" width="2" height="20" fill="#127ca7"/><rect x="8" width="2" height="20" fill="#127ca7"/><rect x="12" width="2" height="20" fill="#127ca7"/><rect x="16" width="2" height="20" fill="#127ca7"/></g><g transform="translate(1048.14,381.14) scale(4.7645) rotate(0)"><rect width="2" height="20" fill="#94194b"/><rect x="4" width="2" height="20" fill="#94194b"/><rect x="8" width="2" height="20" fill="#94194b"/><rect x="12" width="2" height="20" fill="#94194b"/><rect x="16" width="2" height="20" fill="#94194b"/></g><g transform="translate(1143.43,381.14) scale(4.7645) rotate(0)"><rect width="2" height="20" fill="#7c1f46"/><rect x="4" width="2" height="20" fill="#7c1f46"/><rect x="8" width="2" height="20" fill="#7c1f46"/><rect x="12" width="2" height="20" fill="#7c1f46"/><rect x="16" width="2" height="20" fill="#7c1f46"/></g><g transform="translate(0,476.43) scale(4.7645) rotate(0)"><rect width="2" height="20" fill="#632541"/><rect x="4" width="2" height="20" fill="#632541"/><rect x="8" width="2" height="20" fill="#632541"/><rect x="12" width="2" height="20" fill="#632541"/><rect x="16" width="2" height="20" fill="#632541"/></g><g transform="translate(95.29,476.43) scale(4.7645) rotate(0)"><rect width="20" height="2" fill="#9a184c"/><rect y="4" width="20" height="2" fill="#9a184c"/><rect y="8" width="20" height="2" fill="#9a184c"/><rect y="12" width="20" height="2" fill="#9a184c"/><rect y="16" width="20" height="2" fill="#9a184c"/></g><g transform="translate(285.86,476.43) scale(4.7645) rotate(0)"><rect width="2" height="20" fill="#7e1e46"/><rect x="4" width="2" height="20" fill="#7e1e46"/><rect x="8" width="2" height="20" fill="#7e1e46"/><rect x="12" width="2" height="20" fill="#7e1e46"/><rect x="16" width="2" height="20" fill="#7e1e46"/></g><g transform="translate(762.29,476.43) scale(4.7645) rotate(0)"><rect width="2" height="20" fill="#186e92"/><rect x="4" width="2" height="20" fill="#186e92"/><rect x="8" width="2" height="20" fill="#186e92"/><rect x="12" width="2" height="20" fill="#186e92"/><rect x="16" width="2" height="20" fill="#186e92"/></g><g transform="translate(857.57,476.43) scale(4.7645) rotate(0)"><rect width="20" height="2" fill="#2d373e"/><rect y="4" width="20" height="2" fill="#2d373e"/><rect y="8" width="20" height="2" fill="#2d373e"/><rect y="12" width="20" height="2" fill="#2d373e"/><rect y="16" width="20" height="2" fill="#2d373e"/></g><g transform="translate(1238.71,476.43) scale(4.7645) rotate(0)"><rect width="2" height="20" fill="#53293d"/><rect x="4" width="2" height="20" fill="#53293d"/><rect x="8" width="2" height="20" fill="#53293d"/><rect x="12" width="2" height="20" fill="#53293d"/><rect x="16" width="2" height="20" fill="#53293d"/></g><g transform="translate(1334,476.43) scale(4.7645) rotate(0)"><rect width="2" height="20" fill="#0e87b8"/><rect x="4" width="2" height="20" fill="#0e87b8"/><rect x="8" width="2" height="20" fill="#0e87b8"/><rect x="12" width="2" height="20" fill="#0e87b8"/><rect x="16" width="2" height="20" fill="#0e87b8"/></g><g transform="translate(285.86,571.71) scale(4.7645) rotate(0)"><rect width="2" height="20" fill="#2a3d48"/><rect x="4" width="2" height="20" fill="#2a3d48"/><rect x="8" width="2" height="20" fill="#2a3d48"/><rect x="12" width="2" height="20" fill="#2a3d48"/><rect x="16" width="2" height="20" fill="#2a3d48"/></g><rect x="381.14285714285717" y="571.7142857142858" width="95.28571428571429" height="95.28571428571429" fill="#2f3136"/><g transform="translate(428.79,571.71) scale(2.382) rotate(0)"><rect width="20" height="2" fill="#1f5a74"/><rect y="4" width="20" height="2" fill="#1f5a74"/><rect y="8" width="20" height="2" fill="#1f5a74"/><rect y="12" width="20" height="2" fill="#1f5a74"/><rect y="16" width="20" height="2" fill="#1f5a74"/></g><g transform="translate(952.86,571.71) scale(4.7645) rotate(0)"><rect width="20" height="2" fill="#8c1b49"/><rect y="4" width="20" height="2" fill="#8c1b49"/><rect y="8" width="20" height="2" fill="#8c1b49"/><rect y="12" width="20" height="2" fill="#8c1b49"/><rect y="16" width="20" height="2" fill="#8c1b49"/></g><g transform="translate(1048.14,571.71) scale(4.7645) rotate(0)"><rect width="2" height="20" fill="#482b3b"/><rect x="4" width="2" height="20" fill="#482b3b"/><rect x="8" width="2" height="20" fill="#482b3b"/><rect x="12" width="2" height="20" fill="#482b3b"/><rect x="16" width="2" height="20" fill="#482b3b"/></g></g></svg>