<svg id="visual" viewBox="0 0 900 600" width="900" height="600" xmlns="http://www.w3.org/2000/svg" xmlns:xlink="http://www.w3.org/1999/xlink" version="1.1"><rect x="0" y="0" width="900" height="600" fill="#36393f"></rect><path d="M0 355L129 355L129 349L257 349L257 417L386 417L386 364L514 364L514 352L643 352L643 363L771 363L771 405L900 405L900 382L900 601L900 601L771 601L771 601L643 601L643 601L514 601L514 601L386 601L386 601L257 601L257 601L129 601L129 601L0 601Z" fill="#4f545c"></path><path d="M0 441L129 441L129 386L257 386L257 425L386 425L386 421L514 421L514 411L643 411L643 450L771 450L771 429L900 429L900 398L900 601L900 601L771 601L771 601L643 601L643 601L514 601L514 601L386 601L386 601L257 601L257 601L129 601L129 601L0 601Z" fill="#474b52"></path><path d="M0 433L129 433L129 472L257 472L257 453L386 453L386 465L514 465L514 458L643 458L643 435L771 435L771 462L900 462L900 468L900 601L900 601L771 601L771 601L643 601L643 601L514 601L514 601L386 601L386 601L257 601L257 601L129 601L129 601L0 601Z" fill="#3f4249"></path><path d="M0 482L129 482L129 500L257 500L257 515L386 515L386 525L514 525L514 517L643 517L643 500L771 500L771 495L900 495L900 529L900 601L900 601L771 601L771 601L643 601L643 601L514 601L514 601L386 601L386 601L257 601L257 601L129 601L129 601L0 601Z" fill="#37393f"></path><path d="M0 563L129 563L129 547L257 547L257 565L386 565L386 562L514 562L514 548L643 548L643 565L771 565L771 524L900 524L900 551L900 601L900 601L771 601L771 601L643 601L643 601L514 601L514 601L386 601L386 601L257 601L257 601L129 601L129 601L0 601Z" fill="#2f3136"></path></svg>