<svg id="visual" viewBox="0 0 900 600" width="900" height="600" xmlns="http://www.w3.org/2000/svg" xmlns:xlink="http://www.w3.org/1999/xlink" version="1.1"><rect x="0" y="0" width="900" height="600" fill="#36393f"></rect><path d="M0 274L6.3 266C12.7 258 25.3 242 37.8 239.3C50.3 236.7 62.7 247.3 75.2 262.8C87.7 278.3 100.3 298.7 112.8 311.5C125.3 324.3 137.7 329.7 150.2 339.3C162.7 349 175.3 363 187.8 357.2C200.3 351.3 212.7 325.7 225.2 304.5C237.7 283.3 250.3 266.7 262.8 284.7C275.3 302.7 287.7 355.3 300.2 382.2C312.7 409 325.3 410 337.8 380.3C350.3 350.7 362.7 290.3 375.2 264.2C387.7 238 400.3 246 412.8 275.5C425.3 305 437.7 356 450 384.8C462.3 413.7 474.7 420.3 487.2 403.3C499.7 386.3 512.3 345.7 525 312.3C537.7 279 550.3 253 562.8 256.8C575.3 260.7 587.7 294.3 600.2 324C612.7 353.7 625.3 379.3 637.8 371.7C650.3 364 662.7 323 675.2 299.5C687.7 276 700.3 270 712.8 279.8C725.3 289.7 737.7 315.3 750.2 309.8C762.7 304.3 775.3 267.7 787.8 283C800.3 298.3 812.7 365.7 825.2 377.2C837.7 388.7 850.3 344.3 862.8 314.3C875.3 284.3 887.7 268.7 893.8 260.8L900 253L900 601L893.8 601C887.7 601 875.3 601 862.8 601C850.3 601 837.7 601 825.2 601C812.7 601 800.3 601 787.8 601C775.3 601 762.7 601 750.2 601C737.7 601 725.3 601 712.8 601C700.3 601 687.7 601 675.2 601C662.7 601 650.3 601 637.8 601C625.3 601 612.7 601 600.2 601C587.7 601 575.3 601 562.8 601C550.3 601 537.7 601 525 601C512.3 601 499.7 601 487.2 601C474.7 601 462.3 601 450 601C437.7 601 425.3 601 412.8 601C400.3 601 387.7 601 375.2 601C362.7 601 350.3 601 337.8 601C325.3 601 312.7 601 300.2 601C287.7 601 275.3 601 262.8 601C250.3 601 237.7 601 225.2 601C212.7 601 200.3 601 187.8 601C175.3 601 162.7 601 150.2 601C137.7 601 125.3 601 112.8 601C100.3 601 87.7 601 75.2 601C62.7 601 50.3 601 37.8 601C25.3 601 12.7 601 6.3 601L0 601Z" fill="#4f545c" stroke-linecap="round" stroke-linejoin="miter"></path></svg>