<?xml version="1.0" standalone="no"?>
<!DOCTYPE svg PUBLIC "-//W3C//DTD SVG 20010904//EN"
 "http://www.w3.org/TR/2001/REC-SVG-20010904/DTD/svg10.dtd">
<svg version="1.0" xmlns="http://www.w3.org/2000/svg"
 width="1200.000000pt" height="1200.000000pt" viewBox="0 0 1200.000000 1200.000000"
 preserveAspectRatio="xMidYMid meet">
<metadata>
Created by potrace 1.14, written by Peter Selinger 2001-2017
</metadata>
<g transform="translate(0.000000,1200.000000) scale(0.100000,-0.100000)"
fill="#000000" stroke="none">
<path d="M1087 11916 c-6 -15 -10 -16 -22 -6 -8 7 -15 8 -15 3 0 -5 -19 -9
-42 -10 -62 -2 -102 -7 -108 -14 -11 -14 -50 -20 -50 -9 0 7 -8 4 -17 -7 -10
-10 -14 -13 -10 -7 6 9 2 11 -13 7 -14 -4 -19 -11 -15 -22 5 -12 3 -13 -5 -5
-13 13 -53 7 -44 -7 3 -5 -2 -6 -10 -3 -9 3 -16 2 -16 -4 0 -6 -9 -8 -20 -5
-11 3 -20 0 -20 -6 0 -5 -7 -8 -15 -5 -11 5 -13 2 -8 -12 4 -11 3 -15 -4 -11
-18 11 -65 -11 -57 -25 6 -10 5 -10 -7 -1 -12 10 -21 6 -50 -21 -20 -17 -40
-31 -45 -29 -6 2 -23 -11 -39 -28 -17 -18 -24 -28 -16 -24 9 5 12 4 7 -3 -4
-6 -14 -8 -23 -5 -11 4 -14 3 -9 -5 4 -7 2 -12 -4 -12 -16 0 -40 -26 -32 -35
4 -4 2 -6 -3 -5 -19 4 -38 0 -32 -7 4 -3 -2 -13 -13 -20 -11 -8 -18 -19 -15
-24 4 -5 -1 -9 -9 -9 -15 0 -21 -12 -17 -33 1 -5 -3 -6 -7 -3 -13 8 -40 -24
-53 -62 -6 -18 -15 -29 -20 -26 -5 3 -9 0 -9 -7 0 -6 -8 -18 -17 -26 -10 -8
-13 -12 -6 -9 6 4 15 2 18 -4 4 -6 3 -10 -2 -9 -22 4 -31 -3 -38 -28 -4 -16
-5 -29 -3 -30 2 -1 -6 -9 -17 -18 -11 -9 -14 -14 -8 -10 9 4 11 1 7 -9 -3 -9
-11 -13 -18 -9 -6 3 -8 3 -4 -2 4 -4 3 -14 -4 -22 -9 -11 -7 -12 8 -8 12 4 11
1 -5 -8 -15 -9 -20 -17 -12 -21 6 -4 11 -13 11 -19 0 -7 -4 -6 -10 3 -9 14
-14 7 -11 -14 1 -4 -4 -15 -11 -24 -11 -13 -11 -14 1 -8 8 6 7 0 -4 -18 -10
-14 -14 -26 -9 -26 4 0 3 -5 -4 -12 -16 -16 -15 -31 1 -22 8 6 8 3 -2 -9 -7
-9 -11 -24 -7 -32 4 -11 2 -14 -6 -9 -7 5 -9 2 -5 -8 3 -9 0 -21 -6 -28 -9
-10 -9 -11 1 -6 6 4 12 3 12 -3 0 -5 -6 -12 -12 -14 -10 -4 -9 -8 2 -16 12 -9
13 -11 1 -11 -8 0 -11 -3 -8 -6 3 -4 2 -16 -4 -27 -9 -15 -8 -18 3 -11 10 6
11 5 1 -8 -7 -8 -10 -18 -6 -22 14 -13 10 -44 -5 -39 -12 5 -12 3 -1 -15 11
-17 11 -24 1 -34 -9 -9 -8 -15 4 -29 9 -10 11 -19 6 -23 -6 -3 -8 -16 -4 -28
4 -15 2 -19 -7 -13 -8 4 -6 -3 4 -18 12 -19 13 -27 4 -33 -8 -5 -9 -3 -4 6 6
9 4 11 -4 5 -9 -5 -6 -14 11 -33 13 -15 16 -21 7 -15 -13 11 -15 7 -15 -25 1
-20 5 -43 10 -51 6 -10 6 -12 -2 -7 -7 4 -12 1 -12 -9 0 -10 5 -13 12 -9 7 5
8 3 2 -7 -5 -8 -7 -22 -5 -33 2 -12 -1 -16 -9 -11 -7 4 -5 -4 5 -18 12 -19 13
-27 4 -33 -8 -5 -9 -3 -4 6 6 9 4 11 -4 5 -9 -5 -6 -14 11 -33 13 -15 16 -21
7 -15 -13 11 -15 7 -15 -25 1 -20 5 -43 10 -51 6 -10 6 -12 -2 -7 -7 4 -12 1
-12 -9 0 -10 5 -13 12 -9 7 5 8 3 2 -7 -5 -8 -7 -22 -5 -33 2 -12 -1 -16 -9
-11 -7 4 -5 -4 5 -18 12 -19 13 -27 4 -33 -8 -5 -9 -3 -4 6 6 9 4 11 -4 5 -9
-5 -6 -14 11 -33 13 -15 16 -21 7 -15 -13 11 -15 7 -15 -25 1 -20 5 -43 10
-51 6 -10 6 -12 -2 -7 -7 4 -12 1 -12 -9 0 -10 5 -13 12 -9 7 5 8 3 2 -7 -5
-8 -7 -22 -5 -33 2 -12 -1 -16 -9 -11 -7 4 -5 -4 5 -18 12 -19 13 -27 4 -33
-8 -5 -9 -3 -4 6 6 9 4 11 -4 5 -9 -5 -6 -14 11 -33 13 -15 16 -21 7 -15 -13
11 -15 7 -15 -25 1 -20 5 -43 10 -51 6 -10 6 -12 -2 -7 -7 4 -12 1 -12 -9 0
-10 5 -13 12 -9 7 5 8 3 2 -7 -5 -8 -7 -22 -5 -33 2 -12 -1 -16 -9 -11 -7 4
-5 -4 5 -18 12 -19 13 -27 4 -33 -8 -5 -9 -3 -4 6 6 9 4 11 -4 5 -9 -5 -6 -14
11 -33 13 -15 16 -21 7 -15 -13 11 -15 7 -15 -25 1 -20 5 -43 10 -51 6 -10 6
-12 -2 -7 -7 4 -12 1 -12 -9 0 -10 5 -13 12 -9 7 5 8 3 2 -7 -5 -8 -7 -22 -5
-33 2 -12 -1 -16 -9 -11 -7 4 -5 -4 5 -18 12 -19 13 -27 4 -33 -8 -5 -9 -3 -4
6 6 9 4 11 -4 5 -9 -5 -6 -14 11 -33 13 -15 16 -21 7 -15 -13 11 -15 7 -15
-25 1 -20 5 -43 10 -51 6 -10 6 -12 -2 -7 -7 4 -12 1 -12 -9 0 -10 5 -13 12
-9 7 5 8 3 2 -7 -5 -8 -7 -22 -5 -33 2 -12 -1 -16 -9 -11 -7 4 -5 -4 5 -18 12
-19 13 -27 4 -33 -8 -5 -9 -3 -4 6 6 9 4 11 -4 5 -9 -5 -6 -14 11 -33 13 -15
16 -21 7 -15 -13 11 -15 7 -15 -25 1 -20 5 -43 10 -51 6 -10 6 -12 -2 -7 -7 4
-12 1 -12 -9 0 -10 5 -13 12 -9 7 5 8 3 2 -7 -5 -8 -7 -22 -5 -33 2 -12 -1
-16 -9 -11 -7 4 -5 -4 5 -18 12 -19 13 -27 4 -33 -8 -5 -9 -3 -4 6 6 9 4 11
-4 5 -9 -5 -6 -14 11 -33 13 -15 16 -21 7 -15 -13 11 -15 7 -15 -25 1 -20 5
-43 10 -51 6 -10 6 -12 -2 -7 -7 4 -12 1 -12 -9 0 -10 5 -13 12 -9 7 5 8 3 2
-7 -5 -8 -7 -22 -5 -33 2 -12 -1 -16 -9 -11 -7 4 -5 -4 5 -18 12 -19 13 -27 4
-33 -8 -5 -9 -3 -4 6 6 9 4 11 -4 5 -9 -5 -6 -14 11 -33 13 -15 16 -21 7 -15
-13 11 -15 7 -15 -25 1 -20 5 -43 10 -51 6 -10 6 -12 -2 -7 -7 4 -12 1 -12 -9
0 -10 5 -13 12 -9 7 5 8 3 2 -7 -5 -8 -7 -22 -5 -33 2 -12 -1 -16 -9 -11 -7 4
-5 -4 5 -18 12 -19 13 -27 4 -33 -8 -5 -9 -3 -4 6 6 9 4 11 -4 5 -9 -5 -6 -14
11 -33 13 -15 16 -21 7 -15 -13 11 -15 7 -15 -25 1 -20 5 -43 10 -51 6 -10 6
-12 -2 -7 -7 4 -12 1 -12 -9 0 -10 5 -13 12 -9 7 5 8 3 2 -7 -5 -8 -7 -22 -5
-33 2 -12 -1 -16 -9 -11 -7 4 -5 -4 5 -18 12 -19 13 -27 4 -33 -8 -5 -9 -3 -4
6 6 9 4 11 -4 5 -9 -5 -6 -14 11 -33 13 -15 16 -21 7 -15 -13 11 -15 7 -15
-25 1 -20 5 -43 10 -51 6 -10 6 -12 -2 -7 -7 4 -12 1 -12 -9 0 -10 5 -13 12
-9 7 5 8 3 2 -7 -5 -8 -7 -22 -5 -33 2 -12 -1 -16 -9 -11 -7 4 -5 -4 5 -18 12
-19 13 -27 4 -33 -8 -5 -9 -3 -4 6 6 9 4 11 -4 5 -9 -5 -6 -14 11 -33 13 -15
16 -21 7 -15 -13 11 -15 7 -15 -25 1 -20 5 -43 10 -51 6 -10 6 -12 -2 -7 -7 4
-12 1 -12 -9 0 -10 5 -13 12 -9 7 5 8 3 2 -7 -5 -8 -7 -22 -5 -33 2 -12 -1
-16 -9 -11 -7 4 -5 -4 5 -18 12 -19 13 -27 4 -33 -8 -5 -9 -3 -4 6 6 9 4 11
-4 5 -9 -5 -6 -14 11 -33 13 -15 16 -21 7 -15 -13 11 -15 7 -15 -25 1 -20 5
-43 10 -51 6 -10 6 -12 -2 -7 -7 4 -12 1 -12 -9 0 -10 5 -13 12 -9 7 5 8 3 2
-7 -5 -8 -7 -22 -5 -33 2 -12 -1 -16 -9 -11 -7 4 -5 -4 5 -18 12 -19 13 -27 4
-33 -8 -5 -9 -3 -4 6 6 9 4 11 -4 5 -9 -5 -6 -14 11 -33 13 -15 16 -21 7 -15
-13 11 -15 7 -15 -25 1 -20 5 -43 10 -51 6 -10 6 -12 -2 -7 -7 4 -12 1 -12 -9
0 -10 5 -13 12 -9 7 5 8 3 2 -7 -5 -8 -7 -22 -5 -33 2 -12 -1 -16 -9 -11 -7 4
-5 -4 5 -18 12 -19 13 -27 4 -33 -8 -5 -9 -3 -4 6 6 9 4 11 -4 5 -9 -5 -6 -14
11 -33 13 -15 16 -21 7 -15 -13 11 -15 7 -15 -25 1 -20 5 -43 10 -51 6 -10 6
-12 -2 -7 -7 4 -12 1 -12 -9 0 -10 5 -13 12 -9 7 5 8 3 2 -7 -5 -8 -7 -22 -5
-33 2 -12 -1 -16 -9 -11 -7 4 -5 -4 5 -18 12 -19 13 -27 4 -33 -8 -5 -9 -3 -4
6 6 9 4 11 -4 5 -9 -5 -6 -14 11 -33 13 -15 16 -21 7 -15 -13 11 -15 7 -15
-25 1 -20 5 -43 10 -51 6 -10 6 -12 -2 -7 -7 4 -12 1 -12 -9 0 -10 5 -13 12
-9 7 5 8 3 2 -7 -5 -8 -7 -22 -5 -33 2 -12 -1 -16 -9 -11 -7 4 -5 -4 5 -18 12
-19 13 -27 4 -33 -8 -5 -9 -3 -4 6 6 9 4 11 -4 5 -9 -5 -6 -14 11 -33 13 -15
16 -21 7 -15 -13 11 -15 7 -15 -25 1 -20 5 -43 10 -51 6 -10 6 -12 -2 -7 -7 4
-12 1 -12 -9 0 -10 5 -13 12 -9 7 5 8 3 2 -7 -5 -8 -7 -22 -5 -33 2 -12 -1
-16 -9 -11 -7 4 -5 -4 5 -18 12 -19 13 -27 4 -33 -8 -5 -9 -3 -4 6 6 9 4 11
-4 5 -9 -5 -6 -14 11 -33 13 -15 16 -21 7 -15 -13 11 -15 7 -15 -25 1 -20 5
-43 10 -51 6 -10 6 -12 -2 -7 -7 4 -12 1 -12 -9 0 -10 5 -13 12 -9 7 5 8 3 2
-7 -5 -8 -7 -22 -5 -33 2 -12 -1 -16 -9 -11 -7 4 -5 -4 5 -18 12 -19 13 -27 4
-33 -8 -5 -9 -3 -4 6 6 9 4 11 -4 5 -9 -5 -6 -14 11 -33 13 -15 16 -21 7 -15
-13 11 -15 7 -15 -25 1 -20 5 -43 10 -51 6 -10 6 -12 -2 -7 -7 4 -12 1 -12 -9
0 -10 5 -13 12 -9 7 5 8 3 2 -7 -5 -8 -7 -22 -5 -33 2 -12 -1 -16 -9 -11 -7 4
-5 -4 5 -18 12 -19 13 -27 4 -33 -8 -5 -9 -3 -4 6 6 9 4 11 -4 5 -9 -5 -6 -14
11 -33 13 -15 16 -21 7 -15 -13 11 -15 7 -15 -25 1 -20 5 -43 10 -51 6 -10 6
-12 -2 -7 -7 4 -12 1 -12 -9 0 -10 5 -13 12 -9 7 5 8 3 2 -7 -5 -8 -7 -22 -5
-33 2 -12 -1 -16 -9 -11 -7 4 -5 -4 5 -18 12 -19 13 -27 4 -33 -8 -5 -9 -3 -4
6 6 9 4 11 -4 5 -9 -5 -6 -14 11 -33 13 -15 16 -21 7 -15 -13 11 -15 7 -15
-25 1 -20 5 -43 10 -51 6 -10 6 -12 -2 -7 -7 4 -12 1 -12 -9 0 -10 5 -13 12
-9 7 5 8 3 2 -7 -5 -8 -7 -22 -5 -33 2 -12 -1 -16 -9 -11 -7 4 -5 -4 5 -18 12
-19 13 -27 4 -33 -8 -5 -9 -3 -4 6 6 9 4 11 -4 5 -9 -5 -6 -14 11 -33 13 -15
16 -21 7 -15 -13 11 -15 7 -15 -25 1 -20 5 -43 10 -51 6 -10 6 -12 -2 -7 -7 4
-12 1 -12 -9 0 -10 5 -13 12 -9 7 5 8 3 2 -7 -5 -8 -7 -22 -5 -33 2 -12 -1
-16 -9 -11 -7 4 -5 -4 5 -18 12 -19 13 -27 4 -33 -8 -5 -9 -3 -4 6 6 9 4 11
-4 5 -9 -5 -6 -14 11 -33 13 -15 16 -21 7 -15 -13 11 -15 7 -15 -25 1 -20 5
-43 10 -51 6 -10 6 -12 -2 -7 -7 4 -12 1 -12 -9 0 -10 5 -13 12 -9 7 5 8 3 2
-7 -5 -8 -7 -22 -5 -33 2 -12 -1 -16 -9 -11 -7 4 -5 -4 5 -18 12 -19 13 -27 4
-33 -8 -5 -9 -3 -4 6 6 9 4 11 -4 5 -9 -5 -6 -14 11 -33 13 -15 16 -21 7 -15
-13 11 -15 7 -15 -25 1 -20 5 -43 10 -51 6 -10 6 -12 -2 -7 -7 4 -12 1 -12 -9
0 -10 5 -13 12 -9 7 5 8 3 2 -7 -5 -8 -7 -22 -5 -33 2 -12 -1 -16 -9 -11 -7 4
-5 -4 5 -18 12 -19 13 -27 4 -33 -8 -5 -9 -3 -4 6 6 9 4 11 -4 5 -9 -5 -6 -14
11 -33 13 -15 16 -21 7 -15 -13 11 -15 7 -15 -25 1 -20 5 -43 10 -51 6 -10 6
-12 -2 -7 -7 4 -12 1 -12 -9 0 -10 5 -13 12 -9 7 5 8 3 2 -7 -5 -8 -7 -22 -5
-33 2 -12 -1 -16 -9 -11 -7 4 -5 -4 5 -18 12 -19 13 -27 4 -33 -8 -5 -9 -3 -4
6 6 9 4 11 -4 5 -9 -5 -6 -14 11 -33 13 -15 16 -21 7 -15 -13 11 -15 7 -15
-25 1 -20 5 -43 10 -51 6 -10 6 -12 -2 -7 -7 4 -12 1 -12 -9 0 -10 5 -13 12
-9 7 5 8 3 2 -7 -5 -8 -7 -22 -5 -33 2 -12 -1 -16 -9 -11 -7 4 -5 -4 5 -18 12
-19 13 -27 4 -33 -8 -5 -9 -3 -4 6 6 9 4 11 -4 5 -9 -5 -6 -14 11 -33 13 -15
16 -21 7 -15 -13 11 -15 7 -15 -25 1 -20 5 -43 10 -51 6 -10 6 -12 -2 -7 -7 4
-12 1 -12 -9 0 -10 5 -13 12 -9 7 5 8 3 2 -7 -5 -8 -7 -22 -5 -33 2 -12 -1
-16 -9 -11 -7 4 -5 -4 5 -18 12 -19 13 -27 4 -33 -8 -5 -9 -3 -4 6 6 9 4 11
-4 5 -9 -5 -6 -14 11 -33 13 -15 16 -21 7 -15 -13 11 -15 7 -15 -25 1 -20 5
-43 10 -51 6 -10 6 -12 -2 -7 -7 4 -12 1 -12 -9 0 -10 5 -13 12 -9 7 5 8 3 2
-7 -5 -8 -7 -22 -5 -33 2 -12 -1 -16 -9 -11 -7 4 -5 -4 5 -18 12 -19 13 -27 4
-33 -8 -5 -9 -3 -4 6 6 9 4 11 -4 5 -9 -5 -6 -14 11 -33 13 -15 16 -21 7 -15
-13 11 -15 7 -15 -25 1 -20 5 -43 10 -51 6 -10 6 -12 -2 -7 -7 4 -12 1 -12 -9
0 -10 5 -13 12 -9 7 5 8 3 2 -7 -5 -8 -7 -22 -5 -33 2 -12 -1 -16 -9 -11 -7 4
-5 -4 5 -18 12 -19 13 -27 4 -33 -8 -5 -9 -3 -4 6 6 9 4 11 -4 5 -9 -5 -6 -14
11 -33 13 -15 16 -21 7 -15 -13 11 -15 7 -15 -25 1 -20 5 -43 10 -51 6 -10 6
-12 -2 -7 -7 4 -12 1 -12 -9 0 -10 5 -13 12 -9 7 5 8 3 2 -7 -5 -8 -7 -22 -5
-33 2 -12 -1 -16 -9 -11 -7 4 -5 -4 5 -18 12 -19 13 -27 4 -33 -8 -5 -9 -3 -4
6 6 9 4 11 -4 5 -9 -5 -6 -14 11 -33 13 -15 16 -21 7 -15 -13 11 -15 7 -15
-25 1 -20 5 -43 10 -51 6 -10 6 -12 -2 -7 -7 4 -12 1 -12 -9 0 -10 5 -13 12
-9 7 5 8 3 2 -7 -5 -8 -7 -22 -5 -33 2 -12 -1 -16 -9 -11 -7 4 -5 -4 5 -18 12
-19 13 -27 4 -33 -8 -5 -9 -3 -4 6 6 9 4 11 -4 5 -9 -5 -6 -14 11 -33 13 -15
16 -21 7 -15 -13 11 -15 7 -15 -25 1 -20 5 -43 10 -51 6 -10 6 -12 -2 -7 -7 4
-12 1 -12 -9 0 -10 5 -13 12 -9 7 5 8 3 2 -7 -5 -8 -7 -22 -5 -33 2 -12 -1
-16 -9 -11 -7 4 -5 -4 5 -18 12 -19 13 -27 4 -33 -8 -5 -9 -3 -4 6 6 9 4 11
-4 5 -9 -5 -6 -14 11 -33 13 -15 16 -21 7 -15 -13 11 -15 7 -15 -25 1 -20 5
-43 10 -51 6 -10 6 -12 -2 -7 -7 4 -12 1 -12 -9 0 -10 5 -13 12 -9 7 5 8 3 2
-7 -5 -8 -7 -22 -5 -33 2 -12 -1 -16 -9 -11 -7 4 -5 -4 5 -18 12 -19 13 -27 4
-33 -8 -5 -9 -3 -4 6 6 9 4 11 -4 5 -9 -5 -6 -14 11 -33 13 -15 16 -21 7 -15
-13 11 -15 7 -15 -25 1 -20 5 -43 10 -51 6 -10 6 -12 -2 -7 -7 4 -12 1 -12 -9
0 -10 5 -13 12 -9 7 5 8 3 2 -7 -5 -8 -7 -22 -5 -33 2 -12 -1 -16 -9 -11 -7 4
-5 -4 5 -18 12 -19 13 -27 4 -33 -8 -5 -9 -3 -4 6 6 9 4 11 -4 5 -9 -5 -6 -14
11 -33 13 -15 16 -21 7 -15 -13 11 -15 7 -15 -25 1 -20 5 -43 10 -51 6 -10 6
-12 -2 -7 -7 4 -12 1 -12 -9 0 -10 5 -13 12 -9 7 5 8 3 2 -7 -5 -8 -7 -22 -5
-33 2 -12 -1 -16 -9 -11 -7 4 -5 -4 5 -18 12 -19 13 -27 4 -33 -8 -5 -9 -3 -4
6 6 9 4 11 -4 5 -9 -5 -6 -14 11 -33 13 -15 16 -21 7 -15 -13 11 -15 7 -15
-25 1 -20 5 -43 10 -51 6 -10 6 -12 -2 -7 -7 4 -12 1 -12 -9 0 -10 5 -13 12
-9 7 5 8 3 2 -7 -5 -8 -7 -22 -5 -33 2 -12 -1 -16 -9 -11 -7 4 -5 -4 5 -18 12
-19 13 -27 4 -33 -8 -5 -9 -3 -4 6 6 9 4 11 -4 5 -9 -5 -6 -14 11 -33 13 -15
16 -21 7 -15 -13 11 -15 7 -15 -25 1 -20 5 -43 10 -51 6 -10 6 -12 -2 -7 -7 4
-12 1 -12 -9 0 -10 5 -13 12 -9 7 5 8 3 2 -7 -5 -8 -7 -22 -5 -33 2 -12 -1
-16 -9 -11 -7 4 -5 -4 5 -18 12 -19 13 -27 4 -33 -8 -5 -9 -3 -4 6 6 9 4 11
-4 5 -9 -5 -6 -14 11 -33 13 -15 16 -21 7 -15 -13 11 -15 7 -15 -25 1 -20 5
-43 10 -51 6 -10 6 -12 -2 -7 -7 4 -12 1 -12 -9 0 -10 5 -13 12 -9 7 5 8 3 2
-7 -5 -8 -7 -22 -5 -33 2 -12 -1 -16 -9 -11 -7 4 -5 -4 5 -18 12 -19 13 -27 4
-33 -8 -5 -9 -3 -4 6 6 9 4 11 -4 5 -9 -5 -6 -14 11 -33 13 -15 16 -21 7 -15
-13 11 -15 7 -15 -25 1 -20 5 -43 10 -51 6 -10 6 -12 -2 -7 -7 4 -12 1 -12 -9
0 -10 5 -13 12 -9 7 5 8 3 2 -7 -5 -8 -7 -22 -5 -33 2 -12 -1 -16 -9 -11 -7 4
-5 -4 5 -18 12 -19 13 -27 4 -33 -8 -5 -9 -3 -4 6 6 9 4 11 -4 5 -9 -5 -6 -14
11 -33 13 -15 16 -21 7 -15 -13 11 -15 7 -15 -25 1 -20 5 -43 10 -51 6 -10 6
-12 -2 -7 -17 11 -15 -9 3 -24 12 -10 13 -16 4 -26 -9 -11 -8 -14 2 -14 9 0
10 -3 3 -8 -14 -9 -14 -42 0 -42 6 0 5 -4 -3 -9 -12 -8 -12 -12 -3 -24 7 -8
12 -19 11 -23 -4 -23 2 -35 13 -28 10 6 10 4 2 -7 -7 -8 -8 -23 -4 -34 4 -11
5 -26 2 -34 -3 -8 -1 -12 5 -8 6 4 16 0 23 -8 11 -13 10 -14 -6 -9 -18 7 -18
6 1 -16 11 -13 14 -20 8 -16 -9 5 -11 2 -7 -8 3 -9 10 -16 15 -16 4 0 6 -7 3
-15 -4 -8 1 -17 10 -21 9 -3 14 -10 11 -14 -3 -4 1 -13 9 -19 7 -6 12 -23 10
-37 -2 -18 2 -24 11 -20 10 3 12 -2 9 -18 -2 -15 3 -29 14 -37 15 -13 16 -12
4 3 -10 12 -10 18 -1 24 7 4 9 3 5 -4 -3 -6 -2 -13 4 -17 6 -4 8 -11 4 -16 -3
-6 4 -18 15 -28 23 -20 29 -37 9 -25 -9 5 -9 2 1 -9 7 -9 20 -17 28 -17 8 0
11 -4 8 -10 -3 -5 -2 -10 3 -10 5 0 12 -9 15 -20 3 -11 13 -20 22 -20 9 0 14
-4 10 -9 -3 -5 4 -16 16 -25 13 -9 18 -19 14 -27 -5 -8 -4 -10 3 -5 7 4 12 2
12 -3 0 -6 7 -11 15 -11 8 0 15 -4 15 -10 0 -5 6 -10 13 -10 7 0 17 -10 22
-22 6 -13 18 -22 27 -22 10 1 16 -1 14 -5 -2 -3 2 -12 10 -19 8 -7 14 -10 14
-6 0 4 9 -5 21 -20 18 -23 23 -25 37 -14 13 11 15 10 9 -4 -5 -14 2 -20 34
-30 23 -6 43 -18 46 -25 3 -7 13 -13 23 -13 10 0 21 -6 23 -12 4 -9 6 -9 6 1
1 11 5 10 15 -4 7 -10 26 -20 42 -22 16 -3 33 -8 39 -12 5 -4 19 -11 29 -15
17 -6 17 -4 5 11 -7 10 0 7 15 -7 16 -14 26 -20 23 -13 -8 13 18 12 30 -2 4
-4 1 -5 -7 0 -13 7 -13 6 -1 -6 10 -11 15 -11 18 -1 3 6 9 12 14 12 6 0 8 -4
4 -9 -3 -5 -1 -12 4 -15 5 -4 12 -2 16 4 9 15 25 12 25 -5 0 -21 20 -19 21 3
0 14 2 14 9 -3 5 -11 9 -15 9 -8 1 8 11 9 37 1 20 -5 38 -7 42 -4 3 3 12 0 20
-7 13 -9 14 -9 8 1 -4 6 -2 12 3 12 6 0 11 -4 11 -10 0 -5 4 -10 10 -10 5 0 7
8 4 18 -5 15 -4 15 5 1 6 -9 20 -15 33 -13 13 1 27 3 31 3 5 1 5 7 2 14 -4 6
0 4 8 -5 16 -20 32 -25 21 -6 -5 7 -3 8 7 3 20 -13 88 -13 86 -1 -1 6 4 10 12
8 7 -1 20 3 29 10 11 9 13 9 9 1 -9 -15 32 -14 52 1 11 8 13 8 8 0 -9 -15 43
-15 62 0 11 8 13 8 8 -1 -9 -15 35 -14 45 2 5 6 8 6 8 -2 0 -7 9 -13 20 -13
11 0 20 -6 20 -12 0 -9 4 -8 10 2 8 12 10 12 10 1 0 -11 3 -11 17 0 13 11 17
11 20 2 3 -7 9 -13 14 -13 6 0 8 4 5 8 -3 5 1 9 9 9 8 0 12 -3 10 -7 -2 -3 5
-6 15 -6 10 0 16 4 14 8 -3 4 -1 8 5 8 5 0 11 -6 14 -12 3 -10 7 -10 20 1 11
9 17 10 17 2 0 -13 22 -10 32 4 5 6 8 4 8 -5 0 -13 1 -13 10 0 6 10 10 11 10
3 0 -7 4 -13 10 -13 5 0 7 8 4 18 -5 14 -4 14 4 3 13 -18 52 -22 69 -9 9 7 13
7 13 -1 0 -6 5 -11 11 -11 5 0 7 5 3 12 -4 7 -3 8 4 4 19 -12 53 -16 47 -5 -4
5 -1 9 4 9 6 0 11 -5 11 -10 0 -12 22 -9 32 5 5 6 8 4 8 -5 0 -13 1 -13 10 0
6 10 10 11 10 3 0 -7 5 -13 11 -13 6 0 9 7 6 14 -4 10 -1 13 9 9 7 -3 14 -10
14 -17 0 -6 5 -4 10 4 6 10 10 11 10 3 0 -7 5 -13 11 -13 5 0 8 4 5 8 -3 5 1
9 9 9 8 0 12 -3 10 -7 -2 -3 5 -6 15 -6 10 0 16 4 14 8 -3 4 0 8 5 8 6 0 11
-4 11 -9 0 -7 44 -8 103 -2 5 1 5 7 2 13 -4 7 0 5 8 -4 14 -18 33 -25 23 -10
-2 4 4 8 14 8 10 0 17 -3 14 -7 -5 -9 17 -6 33 4 8 5 13 3 13 -4 0 -8 4 -8 15
1 8 7 15 8 15 3 0 -5 10 -9 23 -7 12 1 26 3 30 3 5 1 5 7 1 14 -5 7 -2 7 10
-2 15 -12 17 -12 14 0 -2 8 -7 17 -13 21 -6 5 -5 8 3 8 6 0 12 9 12 21 0 13
-4 18 -13 13 -9 -6 -9 -4 1 7 15 16 16 33 1 24 -6 -4 -5 3 3 14 11 18 11 23
-2 31 -10 6 -11 10 -3 10 9 0 12 13 10 39 -3 30 0 38 12 36 9 -1 21 1 26 5 15
11 45 8 38 -3 -4 -6 0 -8 10 -4 9 3 24 -2 34 -11 11 -9 13 -13 6 -9 -9 7 -10
1 -3 -25 12 -41 12 -41 0 -33 -6 3 -7 -1 -4 -9 3 -9 10 -16 14 -16 5 0 11 -8
13 -17 4 -16 5 -15 6 1 1 20 1 20 17 0 15 -19 16 -19 9 1 -5 15 -3 17 6 8 6
-6 18 -9 27 -6 11 5 13 3 7 -8 -8 -12 -6 -12 8 0 15 12 17 11 17 -6 0 -10 5
-24 11 -30 8 -8 8 -17 -1 -33 -10 -18 -9 -24 1 -31 7 -4 17 -5 21 -3 4 3 8 -1
8 -8 0 -10 2 -10 9 1 7 11 10 11 15 0 5 -11 7 -11 12 -1 5 10 9 10 22 0 12
-10 14 -10 8 0 -4 6 -2 12 3 12 6 0 11 -4 11 -10 0 -5 5 -10 11 -10 5 0 7 5 3
12 -4 7 -3 8 4 4 19 -12 53 -16 47 -5 -4 5 -1 9 4 9 6 0 11 -5 11 -10 0 -12
22 -9 32 5 5 6 8 4 8 -5 0 -13 1 -13 10 0 6 10 10 11 10 3 0 -7 5 -13 11 -13
6 0 9 7 6 14 -4 10 -1 13 9 9 7 -3 14 -10 14 -17 0 -6 5 -4 10 4 6 10 10 11
10 3 0 -7 5 -13 11 -13 5 0 8 4 5 8 -3 5 1 9 9 9 8 0 12 -3 10 -7 -2 -3 5 -6
15 -6 10 0 16 4 14 8 -3 4 -1 8 5 8 5 0 11 -6 14 -12 3 -10 7 -10 20 1 13 10
17 10 17 1 0 -9 4 -9 17 1 13 11 17 11 20 2 3 -7 9 -13 14 -13 6 0 8 4 5 8 -3
5 1 9 9 9 8 0 12 -3 10 -7 -2 -3 5 -6 15 -6 10 0 16 4 14 8 -3 4 -1 8 5 8 5 0
11 -6 14 -12 3 -10 7 -10 20 1 11 9 17 10 17 2 0 -13 22 -10 32 4 5 6 8 4 8
-5 0 -13 1 -13 10 0 6 10 10 11 10 3 0 -7 4 -13 10 -13 5 0 7 8 4 18 -5 14 -4
14 4 3 13 -18 52 -22 70 -9 8 7 12 7 12 -1 0 -6 5 -11 11 -11 5 0 7 5 3 12 -4
7 -3 8 4 4 19 -12 53 -16 47 -5 -4 5 -1 9 4 9 6 0 11 -4 11 -10 0 -5 5 -10 11
-10 5 0 8 4 5 9 -4 5 -1 11 4 13 12 4 14 30 6 73 -5 22 -4 26 4 15 7 -11 10
-11 10 -2 0 8 5 10 12 6 8 -5 9 -1 5 12 -6 17 -6 17 6 2 12 -15 14 -15 24 0
11 16 12 16 12 -1 1 -10 6 -15 11 -12 6 4 8 12 4 18 -3 7 1 4 9 -6 11 -13 16
-15 19 -5 4 10 9 10 23 -2 17 -14 18 -13 11 4 -7 20 -7 20 15 0 12 -10 19 -13
15 -6 -9 16 6 16 23 0 12 -11 13 -10 7 6 -7 20 -7 20 15 0 12 -10 19 -13 15
-7 -5 9 -2 11 7 7 8 -3 13 -13 10 -24 -3 -10 0 -21 6 -24 5 -4 8 -13 5 -21 -4
-8 -10 -12 -15 -9 -16 10 -9 -5 11 -24 18 -16 36 -19 93 -13 5 1 5 7 2 14 -4
6 0 4 8 -5 16 -20 32 -25 21 -6 -4 7 -3 8 4 4 19 -12 53 -16 47 -5 -4 5 -1 9
4 9 6 0 11 -4 11 -8 0 -5 7 -9 15 -9 8 0 15 5 15 11 0 6 5 4 10 -4 9 -13 10
-13 10 0 0 13 1 13 10 0 9 -13 10 -13 10 0 0 12 2 12 9 2 4 -8 12 -14 16 -14
4 0 12 6 16 14 7 10 9 10 9 -2 0 -13 1 -13 10 0 8 12 10 12 10 1 0 -11 3 -11
17 0 14 12 15 12 9 1 -7 -11 -4 -12 13 -3 16 9 21 9 21 0 0 -8 5 -7 17 2 13
11 17 11 20 2 3 -7 9 -13 14 -13 6 0 7 5 3 12 -4 7 -3 8 4 4 19 -12 53 -16 47
-5 -4 5 -1 9 4 9 6 0 11 -5 11 -10 0 -12 22 -9 32 5 5 6 8 4 8 -5 0 -13 1 -13
10 0 6 10 10 11 10 3 0 -7 4 -13 10 -13 5 0 7 8 4 18 -5 15 -4 15 5 1 6 -9 20
-15 33 -13 13 1 27 3 31 3 5 1 5 7 2 14 -4 6 0 4 8 -5 16 -20 32 -25 21 -7 -4
8 -1 8 12 2 11 -6 39 -9 64 -7 63 3 62 3 55 17 -4 6 0 4 8 -5 16 -20 32 -25
21 -6 -4 7 -3 8 4 4 19 -12 53 -16 47 -5 -4 5 -1 9 4 9 6 0 11 -5 11 -11 0 -8
6 -7 17 2 13 11 17 11 20 2 3 -7 9 -13 14 -13 6 0 8 4 5 8 -3 5 1 9 9 9 8 0
12 -3 10 -7 -2 -3 5 -6 15 -6 10 0 16 4 14 8 -3 4 -1 8 5 8 5 0 11 -6 14 -12
3 -10 7 -10 20 1 11 9 17 10 17 2 0 -13 22 -10 32 4 5 6 8 4 8 -5 0 -13 1 -13
10 0 6 10 10 11 10 3 0 -7 4 -13 10 -13 5 0 7 8 4 17 -5 15 -4 15 4 4 13 -18
52 -22 70 -9 8 7 12 7 12 -1 0 -6 5 -11 11 -11 5 0 7 5 3 12 -4 7 -3 8 4 4 19
-12 53 -16 47 -5 -4 5 -1 9 4 9 6 0 11 -5 11 -10 0 -12 22 -9 32 5 5 6 8 4 8
-5 0 -13 1 -13 10 0 6 10 10 11 10 3 0 -7 5 -13 11 -13 6 0 9 7 6 14 -4 10 -1
13 9 9 7 -3 14 -10 14 -17 0 -6 5 -4 10 4 6 10 10 11 10 3 0 -7 5 -13 11 -13
5 0 8 4 5 8 -3 5 1 9 9 9 8 0 12 -3 10 -7 -2 -3 5 -6 15 -6 10 0 16 4 14 8 -3
4 0 8 5 8 6 0 11 -4 11 -9 0 -7 44 -8 103 -2 5 1 5 7 2 14 -4 6 0 4 8 -5 16
-20 32 -25 21 -7 -4 8 -1 8 12 2 11 -6 39 -9 64 -7 63 3 62 3 55 17 -4 6 0 4
8 -5 16 -20 32 -25 21 -6 -4 7 -3 8 4 4 19 -12 53 -16 47 -5 -4 5 -1 9 4 9 6
0 11 -5 11 -10 0 -12 22 -9 32 5 5 6 8 4 8 -5 0 -13 1 -13 10 0 8 12 10 12 10
1 0 -11 3 -11 15 -1 12 10 15 10 15 0 0 -10 3 -10 15 0 12 10 15 10 15 0 0 -9
4 -9 17 1 13 11 17 11 20 2 3 -7 9 -13 14 -13 6 0 7 5 3 12 -4 7 -3 8 4 4 19
-12 53 -16 47 -5 -4 5 -1 9 4 9 6 0 11 -4 11 -8 0 -5 7 -9 15 -9 8 0 15 5 15
11 0 6 5 4 10 -4 9 -13 10 -13 10 0 0 13 1 13 10 0 9 -13 10 -13 10 0 0 12 2
12 9 2 4 -8 12 -14 16 -14 4 0 12 6 16 14 7 10 9 10 9 -2 0 -13 1 -13 10 0 8
12 10 12 10 1 0 -11 3 -11 17 0 14 12 15 12 9 1 -7 -11 -4 -12 13 -3 16 9 21
9 21 0 0 -8 5 -7 17 2 13 11 17 11 20 2 3 -7 9 -13 14 -13 6 0 8 4 5 8 -2 4 4
8 14 8 10 0 17 -3 14 -7 -5 -9 17 -6 34 4 7 5 12 3 12 -3 0 -7 6 -8 18 -1 13
7 23 6 32 -2 10 -9 11 -9 6 1 -4 7 -1 12 7 12 10 0 13 9 11 31 -3 22 0 28 9
23 7 -5 7 -1 -2 10 -8 9 -10 16 -5 15 16 -4 44 13 38 22 -3 5 0 9 5 9 6 0 11
-5 11 -12 0 -6 6 -4 13 7 11 14 16 15 22 5 6 -9 4 -11 -6 -5 -8 5 -11 4 -6 0
12 -14 48 -13 54 2 3 7 9 13 15 13 5 0 7 -4 4 -9 -3 -5 17 -9 44 -9 32 -1 56
-7 66 -16 8 -9 20 -16 25 -16 5 0 9 -5 9 -11 0 -5 -5 -7 -11 -3 -7 4 -10 1 -7
-7 3 -8 10 -13 15 -12 6 1 8 -8 6 -21 -6 -28 19 -41 48 -26 14 8 19 7 19 -1 0
-8 4 -8 15 1 8 7 15 8 15 3 0 -5 7 -10 15 -10 8 0 15 5 15 11 0 6 5 4 10 -4 9
-13 10 -13 10 0 0 9 3 11 8 5 11 -15 32 -17 48 -4 10 8 14 8 14 0 0 -6 5 -11
11 -11 5 0 8 4 5 8 -3 5 1 9 9 9 8 0 12 -3 10 -7 -2 -3 5 -6 15 -6 10 0 16 4
14 8 -3 4 -1 8 5 8 5 0 11 -6 14 -12 3 -10 7 -10 20 1 13 10 17 10 17 1 0 -9
4 -9 17 1 13 11 17 11 20 2 3 -7 9 -13 14 -13 6 0 8 4 5 8 -3 5 1 9 9 9 8 0
12 -3 10 -7 -2 -3 5 -6 15 -6 10 0 16 4 14 8 -3 4 -1 8 5 8 5 0 11 -6 14 -12
3 -10 7 -10 20 1 11 9 17 10 17 2 0 -13 22 -10 32 4 5 6 8 4 8 -5 0 -13 1 -13
10 0 6 10 10 11 10 3 0 -7 4 -13 10 -13 5 0 7 8 4 18 -5 14 -4 14 4 3 13 -18
52 -22 70 -9 8 7 12 7 12 -1 0 -6 5 -11 11 -11 5 0 8 4 5 8 -2 4 4 8 14 8 10
0 17 -3 14 -7 -5 -9 64 -4 73 4 3 4 13 1 21 -6 13 -9 14 -9 8 1 -4 7 -2 12 5
12 6 0 9 8 6 20 -3 11 -1 20 3 20 5 0 7 11 5 25 -2 19 1 23 10 15 9 -8 14 -5
18 11 5 20 8 21 23 8 12 -9 15 -10 10 -1 -4 6 -3 12 1 12 5 0 15 -6 22 -12 12
-11 13 -10 7 6 -7 20 -7 20 15 0 12 -10 20 -14 16 -8 -4 6 10 10 38 10 24 -1
41 -4 39 -7 -2 -4 5 -5 16 -2 11 3 18 9 15 12 -2 4 2 8 10 8 10 0 12 -4 5 -12
-7 -9 -5 -17 7 -26 15 -12 16 -12 9 1 -4 8 0 6 8 -5 9 -11 14 -25 12 -32 -3
-7 -1 -13 4 -13 5 0 7 -6 4 -14 -6 -15 5 -25 36 -31 11 -2 18 0 15 6 -4 5 -1
9 4 9 6 0 11 -5 11 -11 0 -8 6 -7 17 2 13 11 17 11 20 2 3 -7 9 -13 14 -13 6
0 7 5 3 12 -4 7 -3 8 4 4 19 -12 53 -16 47 -5 -4 5 -1 9 4 9 6 0 11 -5 11 -11
0 -8 6 -7 17 2 13 11 17 11 20 2 3 -7 9 -13 14 -13 6 0 8 4 5 8 -3 5 1 9 9 9
8 0 12 -3 10 -7 -2 -3 5 -6 15 -6 10 0 16 4 14 8 -3 4 -1 8 5 8 5 0 11 -6 14
-12 3 -10 7 -10 20 1 11 9 17 10 17 2 0 -13 22 -10 32 4 5 6 8 4 8 -5 0 -13 1
-13 10 0 6 10 10 11 10 3 0 -7 4 -13 10 -13 5 0 7 8 4 18 -5 14 -4 14 4 3 13
-18 52 -22 70 -9 8 7 12 7 12 -1 0 -6 5 -11 11 -11 5 0 7 5 3 12 -4 7 -3 8 4
4 19 -12 53 -16 47 -5 -4 5 -1 9 4 9 6 0 11 -4 11 -10 0 -12 22 -9 32 5 5 6 8
4 8 -5 0 -13 1 -13 10 0 6 10 10 11 10 3 0 -7 5 -13 11 -13 6 0 9 7 6 14 -4
10 -1 13 9 9 7 -3 14 -10 14 -17 0 -6 5 -4 10 4 6 10 10 11 10 3 0 -7 5 -13
11 -13 5 0 8 4 5 8 -3 5 1 9 9 9 8 0 12 -3 10 -7 -2 -3 5 -6 15 -6 10 0 16 4
14 8 -3 4 0 8 5 8 6 0 11 -4 11 -9 0 -7 44 -8 103 -2 5 1 5 7 2 14 -4 6 0 4 8
-6 16 -19 32 -24 21 -6 -4 8 -1 8 12 2 11 -6 39 -9 64 -7 63 3 62 3 55 17 -4
6 0 4 8 -5 16 -20 32 -25 21 -7 -4 8 -1 8 12 2 11 -6 39 -9 64 -7 63 3 62 3
55 17 -4 6 0 4 8 -5 16 -20 32 -25 21 -7 -4 8 -1 8 12 2 11 -6 39 -9 64 -7 63
3 62 3 55 17 -4 6 0 4 8 -5 16 -20 32 -25 21 -6 -4 7 -3 8 4 4 19 -12 53 -16
47 -5 -4 5 -1 9 4 9 6 0 11 -5 11 -11 0 -8 6 -7 17 2 13 11 17 11 20 2 3 -7 9
-13 14 -13 6 0 8 4 5 8 -3 5 1 9 9 9 8 0 12 -3 10 -7 -2 -3 5 -6 15 -6 10 0
16 4 14 8 -3 4 -1 8 5 8 5 0 11 -6 14 -12 3 -10 7 -10 20 1 11 9 17 10 17 2 0
-13 22 -10 32 4 5 6 8 4 8 -5 0 -13 1 -13 10 0 6 10 10 11 10 3 0 -7 4 -13 10
-13 5 0 7 8 4 18 -5 14 -4 14 4 3 13 -18 52 -22 70 -9 8 7 12 7 12 -1 0 -6 5
-11 11 -11 5 0 7 5 3 12 -4 7 -3 8 4 4 19 -12 53 -16 47 -5 -4 5 -1 9 4 9 6 0
11 -4 11 -10 0 -12 22 -9 32 5 5 6 8 4 8 -5 0 -13 1 -13 10 0 6 10 10 11 10 3
0 -7 5 -13 11 -13 6 0 9 7 6 14 -4 10 -1 13 9 9 7 -3 14 -10 14 -17 0 -6 5 -4
10 4 6 10 10 11 10 3 0 -7 5 -13 11 -13 5 0 8 4 5 8 -3 5 1 9 9 9 8 0 12 -3
10 -7 -2 -3 5 -6 15 -6 10 0 16 4 14 8 -3 4 0 8 5 8 6 0 11 -4 11 -9 0 -7 44
-8 103 -2 5 1 5 7 2 13 -4 7 0 5 8 -4 16 -20 32 -25 21 -7 -4 8 -1 8 12 2 11
-6 39 -9 64 -7 63 3 62 3 55 17 -4 6 0 4 8 -5 16 -20 32 -25 21 -7 -4 8 -1 8
12 2 11 -6 39 -9 64 -7 63 3 62 3 55 17 -4 6 0 4 8 -5 16 -20 32 -25 21 -7 -4
8 -1 8 12 2 11 -6 39 -9 64 -7 63 3 62 3 55 17 -4 6 0 4 8 -5 16 -20 32 -25
21 -6 -4 7 -3 8 4 4 19 -12 53 -16 47 -5 -4 5 -1 9 4 9 6 0 11 -5 11 -11 0 -8
6 -7 17 2 13 11 17 11 20 2 3 -7 9 -13 14 -13 6 0 8 4 5 8 -3 5 1 9 9 9 8 0
12 -3 10 -7 -2 -3 5 -6 15 -6 10 0 16 4 14 8 -3 4 -1 8 5 8 5 0 11 -6 14 -12
3 -10 7 -10 20 1 11 9 17 10 17 2 0 -13 22 -10 32 4 5 6 8 4 8 -5 0 -13 1 -13
10 0 6 10 10 11 10 3 0 -7 4 -13 10 -13 5 0 7 8 4 18 -5 14 -4 14 4 3 13 -18
52 -22 70 -9 8 7 12 7 12 -1 0 -6 5 -11 11 -11 5 0 8 4 5 9 -3 4 8 7 25 5 17
-2 27 0 24 5 -3 6 8 6 27 0 18 -5 34 -9 35 -9 2 0 3 8 4 18 0 10 3 12 6 5 7
-20 23 -15 17 5 -5 16 -5 16 6 0 10 -17 12 -17 38 0 14 9 23 12 20 7 -4 -6 2
-11 12 -11 10 0 17 4 14 7 -2 4 0 10 6 14 5 3 10 0 10 -7 0 -10 2 -10 9 0 4 8
11 13 15 12 16 -5 67 11 61 19 -3 5 0 13 6 17 8 4 9 3 5 -4 -4 -7 -1 -12 8
-12 8 0 18 4 21 10 3 5 17 10 31 10 13 0 24 5 24 10 0 6 9 10 20 10 10 0 29
10 41 22 12 13 19 17 14 10 -6 -11 -3 -11 13 -1 12 7 19 16 16 20 -2 5 5 6 16
4 11 -2 19 -1 16 3 -5 9 20 32 28 25 3 -4 6 -1 6 6 0 7 5 9 10 6 6 -3 13 0 16
8 3 8 20 23 39 33 19 10 31 22 28 27 -3 4 5 11 17 14 14 4 19 11 15 21 -4 12
-3 13 10 2 13 -11 17 -8 26 19 6 17 17 31 25 31 8 0 13 4 11 8 -1 4 11 20 26
35 16 14 26 30 23 36 -4 5 -1 13 5 17 8 5 9 3 4 -7 -8 -12 -6 -12 8 0 9 7 14
17 12 22 -3 4 3 17 15 29 11 11 20 22 20 25 0 3 9 16 20 27 11 12 19 27 17 32
-2 6 3 17 10 24 11 11 11 17 2 28 -10 12 -9 13 6 8 13 -5 16 -4 11 4 -4 7 -2
12 5 12 9 0 9 3 0 14 -9 11 -9 16 0 22 8 4 9 3 5 -4 -4 -7 -3 -12 1 -12 5 0
14 14 20 30 6 17 8 28 4 26 -4 -3 -8 1 -8 9 0 8 4 12 8 9 4 -2 10 0 14 6 3 5
0 10 -7 10 -9 0 -9 3 -2 8 16 11 37 75 21 65 -9 -5 -9 -3 0 9 7 8 14 27 15 42
1 14 7 26 13 26 5 0 4 4 -4 9 -9 6 -10 11 -2 15 6 4 11 12 11 18 0 6 -7 5 -18
-3 -14 -11 -14 -10 2 8 11 13 16 31 13 43 -3 11 0 20 5 20 6 0 4 8 -3 17 -8 9
-9 14 -3 10 7 -4 15 0 18 8 3 9 -1 18 -10 22 -12 4 -13 8 -3 14 10 6 10 11 -2
25 -8 10 -9 15 -3 11 7 -4 14 0 18 8 3 8 0 17 -6 21 -7 5 -8 2 -3 -6 5 -8 4
-11 -3 -6 -15 9 -3 38 12 29 6 -3 2 4 -9 17 -11 13 -14 20 -7 16 6 -4 12 -4
13 1 0 4 2 18 3 30 1 12 -1 20 -4 18 -4 -3 -8 6 -7 20 0 15 4 22 11 18 6 -3 6
0 -1 8 -15 16 -17 43 -3 34 7 -4 7 3 0 19 -5 14 -7 26 -4 26 4 0 0 8 -7 17 -8
9 -9 14 -3 10 7 -4 15 0 18 9 9 24 7 28 -7 15 -11 -8 -13 -5 -9 19 2 17 9 27
15 23 6 -4 7 -1 1 8 -13 22 -16 51 -3 43 8 -4 8 -1 1 13 -7 11 -7 25 -1 35 6
11 5 19 -2 24 -8 5 -9 3 -4 -6 5 -9 4 -11 -4 -6 -7 5 -9 12 -3 19 11 15 13 55
3 62 -5 2 -6 16 -4 30 3 15 10 22 17 18 6 -4 5 1 -3 10 -7 9 -10 17 -6 17 4 0
1 8 -6 17 -8 9 -9 14 -3 10 7 -4 15 0 18 9 9 24 7 28 -7 15 -11 -8 -13 -5 -9
19 3 19 8 27 16 23 6 -4 5 1 -3 10 -7 9 -10 17 -6 17 4 0 1 8 -6 17 -8 9 -9
14 -3 10 7 -4 15 0 18 9 9 24 7 28 -7 15 -11 -8 -13 -5 -9 19 3 19 8 27 16 23
8 -5 8 -3 0 8 -5 8 -11 29 -13 48 -2 26 0 31 11 25 10 -6 10 -4 -1 9 -7 9 -10
17 -6 17 4 0 1 8 -6 17 -8 9 -9 14 -3 10 7 -4 15 0 18 9 9 24 7 28 -7 15 -11
-8 -13 -5 -9 19 3 19 8 27 16 23 6 -4 5 1 -3 10 -7 9 -10 17 -6 17 4 0 1 8 -6
17 -8 9 -9 14 -3 10 7 -4 15 0 18 9 9 24 7 28 -7 15 -11 -8 -13 -5 -9 19 2 17
9 27 15 23 6 -4 7 -1 1 8 -14 23 -16 51 -2 43 7 -5 8 -3 3 7 -11 17 -11 51 0
68 6 10 4 12 -5 6 -10 -6 -12 -4 -7 7 3 9 0 21 -6 27 -9 10 -9 12 2 9 7 -2 15
5 16 15 3 15 1 16 -13 5 -13 -11 -14 -11 -7 2 5 8 10 29 10 46 1 17 5 36 10
44 6 9 4 11 -5 5 -10 -6 -12 -4 -7 7 3 9 0 21 -6 27 -9 10 -9 12 2 9 7 -2 15
5 16 15 3 15 1 16 -12 5 -15 -12 -15 -11 -4 10 7 13 10 26 7 29 -3 3 -1 14 4
24 7 12 6 20 -2 25 -7 5 -8 3 -3 -6 5 -9 4 -11 -4 -6 -7 5 -9 12 -3 19 11 15
13 55 3 62 -5 2 -6 16 -4 30 3 14 10 22 16 18 6 -4 7 -1 1 8 -14 23 -16 51 -2
43 7 -5 8 -3 3 7 -5 7 -9 23 -9 34 0 11 4 27 9 34 6 10 4 12 -5 6 -10 -6 -12
-4 -7 7 3 9 0 21 -6 28 -9 9 -9 11 -1 7 7 -4 15 0 18 9 9 24 7 28 -7 15 -11
-8 -13 -5 -9 19 2 17 9 27 15 23 6 -4 7 -1 1 8 -13 22 -16 51 -3 43 8 -4 8 -1
1 13 -7 11 -7 25 -1 35 6 11 5 19 -2 24 -8 5 -9 3 -4 -6 5 -9 4 -11 -4 -6 -7
5 -9 12 -3 19 12 16 13 55 1 62 -5 4 -6 12 -2 18 5 7 8 23 9 37 0 14 4 32 9
39 6 10 4 12 -5 6 -10 -6 -12 -4 -7 7 3 9 0 21 -6 27 -9 10 -9 12 2 9 7 -2 15
5 16 15 3 15 1 16 -13 5 -13 -11 -14 -11 -7 2 5 8 10 29 10 46 1 17 5 36 10
44 6 9 4 11 -5 5 -10 -6 -12 -4 -7 7 3 9 0 21 -6 27 -9 10 -9 12 2 9 7 -2 15
5 16 15 3 13 0 15 -9 8 -10 -8 -11 -4 -8 19 3 19 8 27 16 23 6 -4 5 1 -3 10
-7 9 -10 17 -6 17 4 0 1 8 -6 17 -8 9 -9 14 -3 10 7 -4 15 0 18 9 9 24 7 28
-7 15 -11 -8 -13 -5 -9 19 3 19 8 27 16 23 6 -4 5 1 -3 10 -7 9 -10 17 -6 17
4 0 1 8 -6 17 -8 9 -9 14 -3 10 7 -4 15 0 18 9 9 24 7 28 -7 15 -11 -8 -13 -5
-9 19 3 19 8 27 16 23 8 -5 8 -3 0 8 -5 8 -11 29 -13 48 -2 26 0 31 11 25 10
-6 10 -4 -1 9 -7 9 -10 17 -6 17 4 0 1 8 -6 17 -8 9 -9 14 -3 10 7 -4 15 0 18
9 9 24 7 28 -7 15 -11 -8 -13 -5 -9 19 3 19 8 27 16 23 6 -4 5 1 -3 10 -7 9
-10 17 -6 17 4 0 1 8 -6 17 -8 9 -9 14 -3 10 7 -4 15 0 18 9 9 24 7 28 -7 15
-11 -8 -13 -5 -9 19 3 19 8 27 16 23 8 -5 8 -3 0 8 -5 8 -11 29 -13 48 -2 26
0 31 11 25 10 -6 10 -4 -1 9 -7 9 -10 17 -6 17 4 0 1 8 -6 17 -8 9 -9 14 -3
10 7 -4 15 0 18 9 9 24 7 28 -7 15 -11 -8 -13 -5 -9 19 3 19 8 27 16 23 6 -4
5 1 -3 10 -7 9 -10 17 -6 17 4 0 1 8 -6 17 -8 9 -9 14 -3 10 7 -4 15 0 18 9 9
24 7 28 -7 15 -11 -8 -13 -5 -9 19 3 19 8 27 16 23 8 -5 8 -3 0 8 -5 8 -11 29
-13 48 -2 26 0 31 11 25 10 -6 10 -4 -1 9 -7 9 -10 17 -6 17 4 0 1 8 -6 17 -8
9 -9 14 -3 10 7 -4 15 0 18 9 9 24 7 28 -7 15 -11 -8 -13 -5 -9 19 3 19 8 27
16 23 6 -4 5 1 -3 10 -7 9 -10 17 -6 17 4 0 1 8 -6 17 -8 9 -9 14 -3 10 7 -4
15 0 18 9 9 24 7 28 -7 15 -11 -8 -13 -5 -9 19 2 17 9 27 15 23 6 -4 7 -1 1 8
-14 23 -16 51 -2 43 7 -5 8 -3 3 7 -11 17 -11 51 0 68 6 10 4 12 -5 6 -10 -6
-12 -4 -7 7 3 9 0 21 -6 27 -9 10 -9 12 2 9 7 -2 15 5 16 15 3 15 1 16 -13 5
-13 -11 -14 -11 -7 2 5 8 10 29 10 46 1 17 5 36 10 44 6 9 4 11 -5 5 -10 -6
-12 -4 -7 7 3 9 0 21 -6 27 -9 10 -9 12 2 9 7 -2 15 5 16 15 3 15 1 16 -12 5
-15 -12 -15 -11 -4 10 7 13 10 26 7 29 -3 3 -1 14 4 24 7 12 6 20 -2 25 -7 5
-8 3 -3 -6 5 -9 4 -11 -4 -6 -7 5 -9 12 -3 19 11 15 13 55 3 62 -5 2 -6 16 -4
30 3 14 10 22 16 18 6 -4 7 -1 1 8 -14 23 -16 51 -2 43 7 -5 8 -3 3 7 -11 17
-11 51 0 68 6 10 4 12 -5 6 -10 -6 -12 -4 -7 7 3 9 0 21 -6 28 -9 9 -9 11 -1
7 7 -4 15 0 18 9 9 24 7 28 -7 15 -11 -8 -13 -5 -9 19 2 17 9 27 15 23 6 -4 7
-1 1 8 -13 22 -16 51 -3 43 8 -4 8 -1 1 13 -7 11 -7 25 -1 35 6 11 5 19 -2 24
-8 5 -9 3 -4 -6 5 -9 4 -11 -4 -6 -7 5 -9 12 -3 19 12 16 13 55 1 62 -5 4 -6
12 -2 18 5 7 8 23 9 37 0 14 4 32 9 39 6 10 4 12 -5 6 -10 -6 -12 -4 -7 7 3 9
0 21 -6 27 -9 10 -9 12 2 9 7 -2 15 5 16 15 3 15 1 16 -13 5 -13 -11 -14 -11
-7 2 5 8 10 29 10 46 1 17 5 36 10 44 6 9 4 11 -5 5 -10 -6 -12 -4 -7 7 3 9 0
21 -6 27 -9 10 -9 12 2 9 7 -2 15 5 16 15 3 13 0 15 -9 8 -10 -8 -11 -4 -8 19
3 19 8 27 16 23 6 -4 5 1 -3 10 -7 9 -10 17 -6 17 4 0 1 8 -6 17 -8 9 -9 14
-3 10 7 -4 15 0 18 9 9 24 7 28 -7 15 -11 -8 -13 -5 -9 19 3 19 8 27 16 23 6
-4 5 1 -3 10 -7 9 -10 17 -6 17 4 0 1 8 -6 17 -8 9 -9 14 -3 10 7 -4 15 0 18
9 9 24 7 28 -7 15 -11 -8 -13 -5 -9 19 3 19 8 27 16 23 8 -5 8 -3 0 8 -5 8
-11 29 -13 48 -2 26 0 31 11 25 10 -6 10 -4 -1 9 -7 9 -10 17 -6 17 4 0 1 8
-6 17 -8 9 -9 14 -3 10 7 -4 15 0 18 9 9 24 7 28 -7 15 -11 -8 -13 -5 -9 19 3
19 8 27 16 23 6 -4 5 1 -3 10 -7 9 -10 17 -6 17 4 0 1 8 -6 17 -8 9 -9 14 -3
10 7 -4 15 0 18 9 9 24 7 28 -7 15 -11 -8 -13 -5 -9 19 3 19 8 27 16 23 8 -5
8 -3 0 8 -5 8 -11 29 -13 48 -2 26 0 31 11 25 10 -6 10 -4 -1 9 -7 9 -10 17
-6 17 4 0 1 8 -6 17 -8 9 -9 14 -3 10 7 -4 15 0 18 9 9 24 7 28 -7 15 -11 -8
-13 -5 -9 19 3 19 8 27 16 23 6 -4 5 1 -3 10 -7 9 -10 17 -6 17 4 0 1 8 -6 17
-8 9 -9 14 -3 10 7 -4 15 0 18 9 9 24 7 28 -7 15 -11 -8 -13 -5 -9 19 3 19 8
27 16 23 8 -5 8 -3 0 8 -5 8 -11 29 -13 48 -2 26 0 31 11 25 10 -6 10 -4 -1 9
-7 9 -10 17 -6 17 4 0 1 8 -6 17 -8 9 -9 14 -3 10 7 -4 15 0 18 9 9 24 7 28
-7 15 -11 -8 -13 -5 -9 19 3 19 8 27 16 23 6 -4 5 1 -3 10 -7 9 -10 17 -6 17
4 0 1 8 -6 17 -8 9 -9 14 -3 10 7 -4 15 0 18 9 9 24 7 28 -7 15 -11 -8 -13 -5
-9 19 2 17 9 27 15 23 6 -4 7 -1 1 8 -14 23 -16 51 -2 43 7 -5 8 -3 3 7 -11
17 -11 51 0 68 6 10 4 12 -5 6 -10 -6 -12 -4 -7 7 3 9 0 21 -6 27 -9 10 -9 12
2 9 7 -2 15 5 16 15 3 15 1 16 -13 5 -13 -11 -14 -11 -7 2 5 8 10 29 10 46 1
17 5 36 10 44 6 9 4 11 -5 5 -10 -6 -12 -4 -7 7 3 9 0 21 -6 27 -9 10 -9 12 2
9 7 -2 15 5 16 15 3 15 1 16 -12 5 -15 -12 -15 -11 -4 10 7 13 10 26 7 29 -3
3 -1 14 4 24 7 12 6 20 -2 25 -7 5 -8 3 -3 -6 5 -9 4 -11 -4 -6 -7 5 -9 12 -3
19 11 15 13 55 3 62 -5 2 -6 16 -4 30 3 14 10 22 16 18 6 -4 7 -1 1 8 -14 23
-16 51 -2 43 7 -5 8 -3 3 7 -11 17 -11 51 0 68 6 10 4 12 -5 6 -10 -6 -12 -4
-7 7 3 9 0 21 -6 28 -9 9 -9 11 -1 7 7 -4 15 0 18 9 9 24 7 28 -7 15 -11 -8
-13 -5 -9 19 2 17 9 27 15 23 6 -4 7 -1 1 8 -13 22 -16 51 -3 43 8 -4 8 -1 1
13 -7 11 -7 25 -1 35 6 11 5 19 -2 24 -8 5 -9 3 -4 -6 5 -9 4 -11 -4 -6 -7 5
-9 12 -3 19 12 16 13 55 1 62 -5 4 -6 12 -2 18 5 7 8 23 9 37 0 14 4 32 9 39
6 10 4 12 -5 6 -10 -6 -12 -4 -7 7 3 9 0 21 -6 27 -9 10 -9 12 2 9 7 -2 15 5
16 15 3 15 1 16 -13 5 -13 -11 -14 -11 -7 2 5 8 10 29 10 46 1 17 5 36 10 44
6 9 4 11 -5 5 -10 -6 -12 -4 -7 7 3 9 0 21 -6 27 -9 10 -9 12 2 9 7 -2 15 5
16 15 3 13 0 15 -9 8 -10 -8 -11 -4 -8 19 3 19 8 27 16 23 6 -4 5 1 -3 10 -7
9 -10 17 -6 17 4 0 1 8 -6 17 -8 9 -9 14 -3 10 7 -4 15 0 18 9 9 24 7 28 -7
15 -11 -8 -13 -5 -9 19 3 19 8 27 16 23 6 -4 5 1 -3 10 -7 9 -10 17 -6 17 4 0
1 8 -6 17 -8 9 -9 14 -3 10 7 -4 15 0 18 9 9 24 7 28 -7 15 -11 -8 -13 -5 -9
19 3 19 8 27 16 23 8 -5 8 -3 0 8 -5 8 -11 29 -13 48 -2 26 0 31 11 25 10 -6
10 -4 -1 9 -7 9 -10 17 -6 17 4 0 1 8 -6 17 -8 9 -9 14 -3 10 7 -4 15 0 18 9
9 24 7 28 -7 15 -11 -8 -13 -5 -9 19 3 19 8 27 16 23 6 -4 5 1 -3 10 -7 9 -10
17 -6 17 4 0 1 8 -6 17 -8 9 -9 14 -3 10 7 -4 15 0 18 9 9 24 7 28 -7 15 -11
-8 -13 -5 -9 19 3 19 8 27 16 23 8 -5 8 -3 0 8 -5 8 -11 29 -13 48 -2 26 0 31
11 25 10 -6 10 -4 -1 9 -7 9 -10 17 -6 17 4 0 1 8 -6 17 -8 9 -9 14 -3 10 7
-4 15 0 18 9 9 24 7 28 -7 15 -11 -8 -13 -5 -9 19 3 19 8 27 16 23 6 -4 5 1
-3 10 -7 9 -10 17 -6 17 4 0 1 8 -6 17 -8 9 -9 14 -3 10 7 -4 15 0 18 9 9 24
7 28 -7 15 -11 -8 -13 -5 -9 19 3 19 8 27 16 23 8 -5 8 -3 0 8 -5 8 -11 29
-13 48 -2 26 0 31 11 25 10 -6 10 -4 -1 9 -7 9 -10 17 -6 17 4 0 1 8 -6 17 -8
9 -9 14 -3 10 7 -4 15 0 18 9 9 24 7 28 -7 15 -11 -8 -13 -5 -9 19 3 19 8 27
16 23 6 -4 5 1 -3 10 -7 9 -10 17 -6 17 4 0 1 8 -6 17 -8 9 -9 14 -3 10 7 -4
15 0 18 9 9 24 7 28 -7 15 -11 -8 -13 -5 -9 19 2 17 9 27 15 23 6 -4 7 -1 1 8
-14 23 -16 51 -2 43 7 -5 8 -3 3 7 -11 17 -11 51 0 68 6 10 4 12 -5 6 -10 -6
-12 -4 -7 7 3 9 0 21 -6 27 -9 10 -9 12 2 9 7 -2 15 5 16 15 3 15 1 16 -13 5
-13 -11 -14 -11 -7 2 5 8 10 29 10 46 1 17 5 36 10 44 6 9 4 11 -5 5 -10 -6
-12 -4 -7 7 3 9 0 21 -6 27 -9 10 -9 12 2 9 7 -2 15 5 16 15 3 15 1 16 -12 5
-15 -12 -15 -11 -4 10 7 13 10 26 7 29 -3 3 -1 14 4 24 7 12 6 20 -2 25 -7 5
-8 3 -3 -6 5 -9 4 -11 -4 -6 -7 5 -9 12 -3 19 11 15 13 55 3 62 -5 2 -6 16 -4
30 3 14 10 22 16 18 6 -4 7 -1 1 8 -14 23 -16 51 -2 43 7 -5 8 -3 3 7 -11 17
-11 51 0 68 6 10 4 12 -5 6 -10 -6 -12 -4 -7 7 3 9 0 21 -6 28 -9 9 -9 11 -1
7 7 -4 15 0 18 9 9 24 7 28 -7 15 -11 -8 -13 -5 -9 19 3 19 8 27 16 23 6 -4 5
1 -3 10 -7 9 -10 17 -5 17 4 0 3 5 -3 11 -6 6 -9 18 -6 26 3 8 0 19 -8 24 -9
5 -10 9 -2 9 16 0 10 79 -6 90 -11 6 -11 9 0 13 8 3 9 6 2 6 -6 1 -9 10 -6 21
3 11 1 20 -5 20 -6 0 -9 12 -6 27 3 18 -2 37 -17 56 -12 17 -15 27 -8 23 8 -4
6 -1 -3 7 -11 9 -14 17 -8 23 7 7 2 18 -12 34 -12 12 -22 34 -23 48 0 13 -9
30 -18 37 -14 10 -15 14 -5 18 10 4 10 6 1 6 -7 1 -13 6 -13 12 0 7 -8 18 -17
26 -11 9 -12 12 -3 7 8 -4 2 7 -13 24 -16 16 -28 33 -28 36 3 12 -26 35 -34
28 -5 -4 -5 -2 -2 4 9 16 -32 66 -49 60 -8 -3 -11 2 -9 15 2 11 0 17 -5 14 -5
-3 -11 4 -15 15 -7 21 -40 45 -65 45 -9 0 -14 8 -12 18 2 10 -3 17 -13 17 -8
0 -15 4 -15 9 0 5 -9 13 -20 16 -11 3 -20 14 -20 23 0 15 -2 15 -10 2 -7 -11
-10 -11 -10 -2 0 7 -4 10 -10 7 -6 -4 -7 1 -3 11 5 14 3 15 -15 5 -19 -10 -21
-9 -15 6 5 13 3 15 -11 10 -14 -6 -17 -3 -12 9 5 12 1 14 -17 8 -12 -3 -19 -3
-15 1 10 10 -42 37 -58 31 -9 -3 -11 1 -7 11 5 12 2 15 -9 10 -9 -3 -24 1 -35
8 -10 8 -30 15 -45 15 -16 0 -28 5 -28 11 0 6 -9 8 -21 4 -13 -5 -19 -3 -15 3
3 5 -1 13 -10 16 -12 5 -15 2 -10 -10 6 -15 4 -15 -10 -3 -17 14 -38 21 -67
20 -10 0 -15 5 -11 11 5 7 1 7 -12 0 -14 -8 -21 -6 -32 6 -13 16 -13 16 -8 0
3 -12 1 -15 -9 -11 -8 3 -13 8 -11 12 3 4 -4 7 -14 7 -14 0 -16 -3 -8 -13 8
-10 7 -12 -6 -7 -9 3 -16 10 -16 15 0 4 -7 6 -16 2 -9 -3 -20 0 -25 8 -5 8 -9
9 -9 3 0 -14 -30 -14 -30 0 0 6 -4 5 -9 -2 -4 -8 -12 -14 -16 -14 -4 0 -12 6
-16 14 -5 7 -9 8 -9 2 0 -6 -11 -10 -25 -9 -14 2 -25 -2 -26 -8 0 -7 -4 -3 -9
8 -5 11 -9 14 -9 6 -1 -11 -4 -11 -18 0 -11 10 -14 10 -9 2 9 -17 -6 -17 -23
0 -11 10 -13 10 -7 0 8 -15 -10 -18 -19 -3 -8 13 -36 0 -29 -14 3 -6 -2 -2
-10 8 -14 18 -20 15 -17 -6 0 -4 -6 -5 -14 -2 -8 4 -15 10 -15 16 0 5 -5 6
-10 3 -6 -4 -7 -11 -4 -17 4 -7 0 -7 -13 1 -14 7 -24 7 -33 -2 -10 -9 -11 -9
-6 0 3 6 2 14 -4 18 -5 3 -10 -2 -10 -12 0 -15 -2 -16 -10 -3 -10 17 -39 20
-57 6 -9 -5 -13 -4 -13 5 0 9 -3 10 -8 4 -11 -15 -32 -17 -32 -3 0 10 -2 10
-9 0 -4 -8 -12 -14 -16 -14 -4 0 -12 6 -16 14 -5 7 -9 8 -9 2 0 -6 -11 -10
-25 -9 -14 2 -25 -2 -26 -8 0 -7 -4 -3 -9 8 -5 11 -9 14 -9 6 -1 -11 -4 -11
-18 0 -11 10 -14 10 -9 2 4 -7 3 -13 -1 -13 -5 0 -15 6 -22 13 -11 10 -13 10
-7 0 8 -15 -10 -18 -19 -3 -8 13 -36 0 -29 -14 3 -6 -2 -2 -10 8 -14 18 -20
15 -17 -6 0 -4 -6 -5 -14 -2 -8 4 -15 10 -15 16 0 5 -5 6 -10 3 -6 -4 -7 -11
-4 -17 4 -7 0 -7 -13 1 -14 7 -24 7 -33 -2 -10 -9 -11 -9 -6 0 3 6 2 14 -4 18
-5 3 -10 -2 -10 -12 0 -15 -2 -16 -10 -3 -10 17 -39 20 -57 6 -9 -5 -13 -4
-13 5 0 9 -3 10 -8 4 -11 -15 -32 -17 -32 -3 0 10 -2 10 -9 0 -11 -17 -21 -17
-32 0 -5 7 -9 8 -9 2 0 -6 -11 -10 -25 -9 -14 2 -25 -2 -26 -8 0 -7 -4 -3 -9
8 -5 11 -9 14 -9 6 -1 -11 -4 -11 -18 0 -11 10 -14 10 -9 2 4 -7 3 -13 -1 -13
-5 0 -15 6 -22 13 -11 10 -13 10 -7 0 8 -15 -10 -18 -19 -3 -8 13 -36 0 -29
-14 3 -6 -2 -2 -10 8 -14 18 -20 15 -17 -6 0 -4 -6 -5 -14 -2 -8 4 -15 10 -15
16 0 5 -5 6 -10 3 -6 -4 -7 -11 -4 -17 4 -7 0 -7 -13 1 -14 7 -24 7 -33 -2
-10 -9 -11 -9 -6 0 3 6 2 14 -4 18 -5 3 -10 -2 -10 -12 0 -15 -2 -16 -10 -3
-10 17 -39 20 -57 6 -9 -5 -13 -4 -13 5 0 9 -3 10 -8 4 -11 -15 -32 -17 -32
-3 0 10 -2 10 -9 0 -11 -17 -21 -17 -32 0 -5 7 -9 8 -9 2 0 -6 -11 -10 -25 -9
-14 2 -25 -2 -26 -8 0 -7 -4 -3 -9 8 -5 11 -9 14 -9 6 -1 -11 -4 -11 -18 0
-11 10 -14 10 -9 2 4 -7 3 -13 -1 -13 -5 0 -15 6 -22 13 -11 10 -13 10 -7 0 8
-15 -10 -18 -19 -3 -8 13 -36 0 -29 -14 3 -6 -2 -2 -10 8 -14 18 -20 15 -17
-6 0 -4 -6 -5 -14 -2 -8 4 -15 10 -15 16 0 5 -5 6 -10 3 -6 -4 -7 -11 -4 -17
4 -7 0 -7 -13 1 -14 7 -24 7 -33 -2 -10 -9 -11 -9 -6 0 3 6 2 14 -4 18 -5 3
-10 -2 -10 -12 0 -15 -2 -16 -10 -3 -10 17 -39 20 -57 6 -9 -5 -13 -4 -13 5 0
9 -3 10 -8 4 -11 -15 -32 -17 -32 -3 0 10 -2 10 -9 0 -4 -8 -12 -14 -16 -14
-4 0 -12 6 -16 14 -5 7 -9 8 -9 2 0 -6 -11 -10 -25 -9 -14 2 -25 -2 -26 -8 0
-7 -4 -3 -9 8 -5 11 -9 14 -9 6 -1 -11 -4 -11 -18 0 -11 10 -14 10 -9 2 4 -7
3 -13 -1 -13 -5 0 -15 6 -22 13 -11 10 -13 10 -7 0 8 -15 -10 -18 -19 -3 -8
13 -36 0 -29 -14 3 -6 -2 -2 -10 8 -14 18 -20 15 -17 -6 0 -4 -6 -5 -14 -2 -8
4 -15 10 -15 16 0 5 -5 6 -10 3 -6 -4 -7 -11 -4 -17 4 -7 0 -7 -13 1 -14 7
-24 7 -33 -2 -10 -9 -11 -9 -6 0 3 6 2 14 -4 18 -5 3 -10 -2 -10 -12 0 -15 -2
-16 -10 -3 -10 17 -39 20 -57 6 -9 -5 -13 -4 -13 5 0 9 -3 10 -8 4 -11 -15
-32 -17 -32 -3 0 10 -2 10 -9 0 -4 -8 -12 -14 -16 -14 -4 0 -12 6 -16 14 -5 7
-9 8 -9 2 0 -6 -11 -10 -25 -9 -14 2 -25 -2 -26 -8 0 -7 -4 -3 -9 8 -5 11 -9
14 -9 6 -1 -11 -4 -11 -18 0 -11 10 -14 10 -9 2 4 -7 3 -13 -1 -13 -5 0 -15 6
-22 13 -11 10 -13 10 -7 0 8 -15 -10 -18 -19 -3 -8 13 -36 0 -29 -14 3 -6 -2
-2 -10 8 -14 18 -20 15 -17 -6 0 -4 -6 -5 -14 -2 -8 4 -15 10 -15 16 0 5 -5 6
-10 3 -6 -4 -7 -11 -4 -17 4 -7 0 -7 -13 1 -14 7 -24 7 -33 -2 -10 -9 -11 -9
-6 0 3 6 2 14 -4 18 -5 3 -10 -2 -10 -12 0 -15 -2 -16 -10 -3 -10 17 -39 20
-57 6 -9 -5 -13 -4 -13 5 0 9 -3 10 -8 4 -11 -15 -32 -17 -32 -3 0 10 -2 10
-9 0 -4 -8 -12 -14 -16 -14 -4 0 -12 6 -16 14 -5 7 -9 8 -9 2 0 -6 -11 -10
-25 -9 -14 2 -25 -2 -26 -8 0 -7 -4 -3 -9 8 -5 11 -9 14 -9 6 -1 -11 -4 -11
-18 0 -11 10 -14 10 -9 2 4 -7 3 -13 -1 -13 -5 0 -15 6 -22 13 -11 10 -13 10
-7 0 8 -15 -10 -18 -19 -3 -8 13 -36 0 -29 -14 3 -6 -2 -2 -10 8 -14 18 -20
15 -17 -6 0 -4 -6 -5 -14 -2 -8 4 -15 10 -15 16 0 5 -5 6 -10 3 -6 -4 -7 -11
-4 -17 4 -7 0 -7 -13 1 -14 7 -24 7 -33 -2 -10 -9 -11 -9 -6 0 3 6 2 14 -4 18
-5 3 -10 -2 -10 -12 0 -15 -2 -16 -10 -3 -10 17 -39 20 -57 6 -9 -5 -13 -4
-13 5 0 9 -3 10 -8 4 -11 -15 -32 -17 -32 -2 0 9 -2 9 -9 -1 -4 -8 -12 -14
-16 -14 -4 0 -12 6 -16 14 -5 7 -9 8 -9 2 0 -6 -11 -10 -25 -9 -14 2 -25 -2
-26 -8 0 -7 -4 -3 -9 8 -5 11 -9 14 -9 6 -1 -11 -4 -11 -18 0 -11 10 -14 10
-9 2 4 -7 3 -13 -1 -13 -5 0 -15 6 -22 13 -11 10 -13 10 -7 0 8 -15 -10 -18
-19 -3 -8 13 -36 0 -29 -14 3 -6 -2 -2 -10 8 -14 18 -20 15 -17 -6 0 -4 -6 -5
-14 -2 -8 4 -15 10 -15 16 0 5 -5 6 -10 3 -6 -4 -7 -11 -4 -17 4 -7 0 -7 -13
1 -14 7 -24 7 -33 -2 -10 -9 -11 -9 -6 0 3 6 2 14 -4 18 -5 3 -10 -2 -10 -12
0 -15 -2 -16 -10 -3 -10 17 -39 20 -57 6 -9 -5 -13 -4 -13 5 0 9 -3 10 -8 4
-11 -15 -32 -17 -32 -2 0 9 -2 9 -9 -1 -11 -17 -21 -17 -32 0 -5 7 -9 8 -9 2
0 -6 -11 -10 -25 -9 -14 2 -25 -2 -26 -8 0 -7 -4 -3 -9 8 -5 11 -9 14 -9 6 -1
-11 -4 -11 -18 0 -11 10 -14 10 -9 2 4 -7 3 -13 -1 -13 -5 0 -15 6 -22 13 -11
10 -13 10 -7 0 8 -15 -10 -18 -19 -3 -8 13 -36 0 -29 -14 3 -6 -2 -2 -10 8
-14 18 -20 15 -17 -6 0 -4 -6 -5 -14 -2 -8 4 -15 10 -15 16 0 5 -5 6 -10 3 -6
-4 -7 -11 -4 -17 4 -7 0 -7 -13 1 -14 7 -24 7 -33 -2 -10 -9 -11 -9 -6 0 3 6
2 14 -4 18 -5 3 -10 -2 -10 -12 0 -15 -2 -16 -10 -3 -10 17 -39 20 -57 6 -9
-5 -13 -4 -13 5 0 9 -3 10 -8 4 -11 -15 -32 -17 -32 -2 0 9 -2 9 -9 -1 -11
-17 -21 -17 -32 0 -5 7 -9 8 -9 2 0 -6 -11 -10 -25 -9 -14 2 -25 -2 -26 -8 0
-7 -4 -3 -9 8 -5 11 -9 14 -9 6 -1 -11 -4 -11 -18 0 -11 10 -14 10 -9 2 4 -7
3 -13 -1 -13 -5 0 -15 6 -22 13 -11 10 -13 10 -7 0 8 -15 -10 -18 -19 -3 -8
13 -36 0 -29 -14 3 -6 -2 -2 -10 8 -14 18 -20 15 -17 -6 0 -4 -6 -5 -14 -2 -8
4 -15 10 -15 16 0 5 -5 6 -10 3 -6 -4 -7 -11 -4 -17 4 -7 0 -7 -13 1 -14 7
-24 7 -33 -2 -10 -9 -11 -9 -6 0 3 6 2 14 -4 18 -5 3 -10 -2 -10 -12 0 -15 -2
-16 -10 -3 -10 17 -39 20 -57 6 -9 -5 -13 -4 -13 5 0 9 -3 10 -8 4 -11 -15
-32 -17 -32 -2 0 9 -2 9 -9 -1 -11 -17 -21 -17 -32 0 -5 7 -9 8 -9 2 0 -6 -11
-10 -25 -9 -14 2 -25 -2 -26 -8 0 -7 -4 -3 -9 8 -5 11 -9 14 -9 6 -1 -11 -4
-11 -18 0 -11 10 -14 10 -9 2 4 -7 3 -13 -1 -13 -5 0 -15 6 -22 13 -11 10 -13
10 -7 0 8 -15 -10 -18 -19 -3 -8 13 -36 0 -29 -14 3 -6 -2 -2 -10 8 -14 18
-20 15 -17 -6 0 -4 -6 -5 -14 -2 -8 4 -15 10 -15 16 0 5 -5 6 -10 3 -6 -4 -7
-11 -4 -17 4 -7 0 -7 -13 1 -14 7 -24 7 -33 -2 -10 -9 -11 -9 -6 0 3 6 2 14
-4 18 -5 3 -10 -2 -10 -12 0 -15 -2 -16 -10 -3 -10 17 -39 20 -57 6 -9 -5 -13
-4 -13 5 0 9 -3 10 -8 4 -11 -15 -32 -17 -32 -2 0 9 -2 9 -9 -1 -11 -17 -21
-17 -32 0 -5 7 -9 8 -9 2 0 -6 -11 -10 -25 -9 -14 2 -25 -2 -26 -8 0 -7 -4 -3
-9 8 -5 11 -9 14 -9 6 -1 -11 -4 -11 -18 0 -11 10 -14 10 -9 2 4 -7 3 -13 -1
-13 -5 0 -15 6 -22 13 -11 10 -13 10 -7 0 8 -15 -10 -18 -19 -3 -8 13 -36 0
-29 -14 3 -6 -2 -2 -10 8 -14 18 -20 15 -17 -6 0 -4 -6 -5 -14 -2 -8 4 -15 10
-15 16 0 5 -5 6 -10 3 -6 -4 -7 -11 -4 -17 4 -7 0 -7 -13 1 -14 7 -24 7 -33
-2 -10 -9 -11 -9 -6 0 3 6 2 14 -4 18 -5 3 -10 -2 -10 -12 0 -15 -2 -16 -10
-3 -10 17 -39 20 -57 6 -9 -5 -13 -4 -13 5 0 9 -3 10 -8 4 -11 -15 -32 -17
-32 -2 0 9 -2 9 -9 -1 -11 -17 -21 -17 -32 0 -5 7 -9 8 -9 2 0 -6 -11 -10 -25
-9 -14 2 -25 -2 -26 -8 0 -7 -4 -3 -9 8 -5 11 -9 14 -9 6 -1 -11 -4 -11 -18 0
-11 10 -14 10 -9 2 4 -7 3 -13 -1 -13 -5 0 -15 6 -22 13 -11 10 -13 10 -7 0 8
-15 -10 -18 -19 -3 -8 13 -36 0 -29 -14 3 -6 -2 -2 -10 8 -14 18 -20 15 -17
-6 0 -4 -6 -5 -14 -2 -8 4 -15 10 -15 16 0 5 -5 6 -10 3 -6 -4 -7 -11 -4 -17
4 -7 0 -7 -13 1 -14 7 -24 7 -33 -2 -10 -9 -11 -9 -6 0 3 6 2 14 -4 18 -5 3
-10 -2 -10 -12 0 -15 -2 -16 -10 -3 -10 17 -39 20 -57 6 -9 -5 -13 -4 -13 5 0
9 -3 10 -8 4 -11 -15 -32 -17 -32 -2 0 9 -2 9 -9 -1 -4 -8 -12 -14 -16 -14 -4
0 -12 6 -16 14 -5 7 -9 8 -9 2 0 -6 -11 -10 -25 -9 -14 2 -25 -2 -26 -8 0 -7
-4 -3 -9 8 -5 11 -9 14 -9 6 -1 -11 -4 -11 -18 0 -11 10 -14 10 -9 2 4 -7 3
-13 -1 -13 -5 0 -15 6 -22 13 -11 10 -13 10 -7 0 8 -15 -10 -18 -19 -3 -8 13
-36 0 -29 -14 3 -6 -2 -2 -10 8 -14 18 -20 15 -17 -6 0 -4 -6 -5 -14 -2 -8 4
-15 10 -15 16 0 5 -5 6 -10 3 -6 -4 -7 -11 -4 -17 4 -7 0 -7 -13 1 -14 7 -24
7 -33 -2 -10 -9 -11 -9 -6 0 3 6 2 14 -4 18 -5 3 -10 -2 -10 -12 0 -15 -2 -16
-10 -3 -10 17 -39 20 -57 6 -9 -5 -13 -4 -13 5 0 9 -3 10 -8 4 -11 -15 -32
-17 -32 -3 0 10 -2 10 -9 0 -4 -8 -12 -14 -16 -14 -4 0 -12 6 -16 14 -5 7 -9
8 -9 2 0 -6 -11 -10 -25 -9 -14 2 -25 -2 -26 -8 0 -7 -4 -3 -9 8 -5 11 -9 14
-9 6 -1 -11 -4 -11 -18 0 -11 10 -14 10 -9 2 4 -7 3 -13 -1 -13 -5 0 -15 6
-22 13 -11 10 -13 10 -7 0 8 -15 -10 -18 -19 -3 -8 13 -36 0 -29 -14 3 -6 -2
-2 -10 8 -14 18 -20 15 -17 -6 0 -4 -6 -5 -14 -2 -8 4 -15 10 -15 16 0 5 -5 6
-10 3 -6 -4 -7 -11 -4 -17 4 -7 0 -7 -13 1 -14 7 -24 7 -33 -2 -10 -9 -11 -9
-6 0 3 6 2 14 -4 18 -5 3 -10 -2 -10 -12 0 -15 -2 -16 -10 -3 -10 17 -39 20
-57 6 -9 -5 -13 -4 -13 5 0 9 -3 10 -8 4 -11 -15 -32 -17 -32 -3 0 10 -2 10
-9 0 -4 -8 -12 -14 -16 -14 -4 0 -12 6 -16 14 -5 7 -9 8 -9 2 0 -6 -11 -10
-25 -9 -14 2 -25 -2 -26 -8 0 -7 -4 -3 -9 8 -5 11 -9 14 -9 6 -1 -11 -4 -11
-18 0 -11 10 -14 10 -9 2 4 -7 3 -13 -1 -13 -5 0 -15 6 -22 13 -11 10 -13 10
-7 0 8 -15 -10 -18 -19 -3 -8 13 -36 0 -29 -14 3 -6 -2 -2 -10 8 -14 18 -20
15 -17 -6 0 -4 -6 -5 -14 -2 -8 4 -15 10 -15 16 0 5 -5 6 -10 3 -6 -4 -7 -11
-4 -17 4 -7 0 -7 -13 1 -14 7 -24 7 -33 -2 -10 -9 -11 -9 -6 0 3 6 2 14 -4 18
-5 3 -10 -2 -10 -12 0 -15 -2 -16 -10 -3 -10 17 -39 20 -57 6 -9 -5 -13 -4
-13 5 0 9 -3 10 -8 4 -11 -15 -32 -17 -32 -3 0 10 -2 10 -9 0 -4 -8 -12 -14
-16 -14 -4 0 -12 6 -16 14 -5 7 -9 8 -9 2 0 -6 -11 -10 -25 -9 -14 2 -25 -2
-26 -8 0 -7 -4 -3 -9 8 -5 11 -9 14 -9 6 -1 -11 -4 -11 -18 0 -11 10 -14 10
-9 2 4 -7 3 -13 -1 -13 -5 0 -15 6 -22 13 -11 10 -13 10 -7 0 8 -15 -10 -18
-19 -3 -8 13 -36 0 -29 -14 3 -6 -2 -2 -10 8 -14 18 -20 15 -17 -6 0 -4 -6 -5
-14 -2 -8 4 -15 10 -15 16 0 5 -5 6 -10 3 -6 -4 -7 -11 -4 -17 4 -7 0 -7 -13
1 -14 7 -24 7 -33 -2 -10 -9 -11 -9 -6 0 3 6 2 14 -4 18 -5 3 -10 -2 -10 -12
0 -15 -2 -16 -10 -3 -10 17 -39 20 -57 6 -9 -5 -13 -4 -13 5 0 9 -3 10 -8 4
-11 -15 -32 -17 -32 -3 0 10 -2 10 -9 0 -4 -8 -12 -14 -16 -14 -4 0 -12 6 -16
14 -5 7 -9 8 -9 2 0 -6 -11 -10 -25 -9 -14 2 -25 -2 -26 -8 0 -7 -4 -3 -9 8
-5 11 -9 14 -9 6 -1 -11 -4 -11 -18 0 -11 10 -14 10 -9 2 4 -7 3 -13 -1 -13
-5 0 -15 6 -22 13 -11 10 -13 10 -7 0 8 -15 -10 -18 -19 -3 -8 13 -36 0 -29
-14 3 -6 -2 -2 -10 8 -14 18 -20 15 -17 -6 0 -4 -6 -5 -14 -2 -8 4 -15 10 -15
16 0 5 -5 6 -10 3 -6 -4 -7 -11 -4 -17 4 -7 0 -7 -13 1 -14 7 -24 7 -33 -2
-10 -9 -11 -9 -6 0 3 6 2 14 -4 18 -5 3 -10 -2 -10 -12 0 -15 -2 -16 -10 -3
-10 17 -39 20 -57 6 -9 -5 -13 -4 -13 5 0 9 -3 10 -8 4 -11 -15 -32 -17 -32
-2 0 9 -2 9 -9 -1 -4 -8 -12 -14 -16 -14 -4 0 -12 6 -16 14 -5 7 -9 8 -9 2 0
-6 -11 -10 -25 -9 -14 2 -25 -2 -26 -8 0 -7 -4 -3 -9 8 -5 11 -9 14 -9 6 -1
-11 -4 -11 -18 0 -11 10 -14 10 -9 2 4 -7 3 -13 -1 -13 -5 0 -15 6 -22 13 -11
10 -13 10 -7 0 8 -15 -10 -18 -19 -3 -8 13 -36 0 -29 -14 3 -6 -2 -2 -10 8
-14 18 -20 15 -17 -6 0 -4 -6 -5 -14 -2 -8 4 -15 10 -15 16 0 5 -5 6 -10 3 -6
-4 -7 -11 -4 -17 4 -7 0 -7 -13 1 -14 7 -24 7 -33 -2 -10 -9 -11 -9 -6 0 3 6
2 14 -4 18 -5 3 -10 -2 -10 -12 0 -15 -2 -16 -10 -3 -10 17 -39 20 -57 6 -9
-5 -13 -4 -13 5 0 9 -3 10 -8 4 -11 -15 -32 -17 -32 -2 0 9 -2 9 -9 -1 -4 -8
-12 -14 -16 -14 -4 0 -12 6 -16 14 -5 7 -9 8 -9 2 0 -6 -11 -10 -25 -9 -14 2
-25 -2 -26 -8 0 -7 -4 -3 -9 8 -5 11 -9 14 -9 6 -1 -11 -4 -11 -18 0 -11 10
-14 10 -9 2 4 -7 3 -13 -1 -13 -5 0 -15 6 -22 13 -11 10 -13 10 -7 0 8 -15
-10 -18 -19 -3 -8 13 -36 0 -29 -14 3 -6 -2 -2 -10 8 -14 18 -20 15 -17 -6 0
-4 -6 -5 -14 -2 -8 4 -15 10 -15 16 0 5 -5 6 -10 3 -6 -4 -7 -11 -4 -17 4 -7
0 -7 -13 1 -14 7 -24 7 -33 -2 -10 -9 -11 -9 -6 0 3 6 2 14 -4 18 -5 3 -10 -2
-10 -12 0 -15 -2 -16 -10 -3 -10 17 -39 20 -57 6 -9 -5 -13 -4 -13 5 0 9 -3
10 -8 4 -11 -15 -32 -17 -32 -2 0 9 -2 9 -9 -1 -4 -8 -12 -14 -16 -14 -4 0
-12 6 -16 14 -5 7 -9 8 -9 2 0 -6 -11 -10 -25 -9 -14 2 -25 -2 -26 -8 0 -7 -4
-3 -9 8 -5 11 -9 14 -9 6 -1 -11 -4 -11 -16 -1 -12 10 -16 9 -22 -6 -6 -17 -7
-17 -13 1 -6 18 -7 18 -13 1z m-507 -150 c0 -2 -8 -10 -17 -17 -16 -13 -17
-12 -4 4 13 16 21 21 21 13z m-90 -65 c0 -5 -7 -12 -16 -15 -14 -5 -15 -4 -4
9 14 17 20 19 20 6z m11224 -179 c3 -5 -1 -9 -9 -9 -8 0 -12 4 -9 9 3 4 7 8 9
8 2 0 6 -4 9 -8z m216 -402 c0 -5 -5 -10 -11 -10 -5 0 -7 5 -4 10 3 6 8 10 11
10 2 0 4 -4 4 -10z m-10640 -11050 c0 -5 -5 -10 -11 -10 -5 0 -7 5 -4 10 3 6
8 10 11 10 2 0 4 -4 4 -10z m3360 0 c0 -5 -5 -10 -11 -10 -5 0 -7 5 -4 10 3 6
8 10 11 10 2 0 4 -4 4 -10z m960 0 c0 -5 -5 -10 -11 -10 -5 0 -7 5 -4 10 3 6
8 10 11 10 2 0 4 -4 4 -10z m3200 0 c0 -5 -5 -10 -11 -10 -5 0 -7 5 -4 10 3 6
8 10 11 10 2 0 4 -4 4 -10z m160 0 c0 -5 -5 -10 -11 -10 -5 0 -7 5 -4 10 3 6
8 10 11 10 2 0 4 -4 4 -10z m160 0 c0 -5 -5 -10 -11 -10 -5 0 -7 5 -4 10 3 6
8 10 11 10 2 0 4 -4 4 -10z m960 0 c0 -5 -5 -10 -11 -10 -5 0 -7 5 -4 10 3 6
8 10 11 10 2 0 4 -4 4 -10z m160 0 c0 -5 -5 -10 -11 -10 -5 0 -7 5 -4 10 3 6
8 10 11 10 2 0 4 -4 4 -10z m160 0 c0 -5 -5 -10 -11 -10 -5 0 -7 5 -4 10 3 6
8 10 11 10 2 0 4 -4 4 -10z"/>
<path d="M20 1100 c0 -5 5 -10 11 -10 5 0 7 5 4 10 -3 6 -8 10 -11 10 -2 0 -4
-4 -4 -10z"/>
<path d="M120 700 c0 -5 5 -10 11 -10 5 0 7 5 4 10 -3 6 -8 10 -11 10 -2 0 -4
-4 -4 -10z"/>
</g>
</svg>
